<svg width="41" height="34" viewBox="0 0 41 34" fill="none" xmlns="http://www.w3.org/2000/svg">
<path d="M37.9352 32.2468V29.8882H35.6084V29.134H37.9352V26.7754H38.6793V29.134H41.0001V29.8882H38.6793V32.2468H37.9352Z" fill="black"/>
<path d="M31.4189 34C30.978 34 30.5705 33.9082 30.1965 33.7246C29.8225 33.541 29.5036 33.2876 29.2398 32.9643C28.976 32.6411 28.787 32.2699 28.6729 31.8509L29.5055 31.6234C29.5803 31.9347 29.7162 32.2041 29.913 32.4316C30.1099 32.655 30.3402 32.8286 30.6039 32.9524C30.8717 33.0761 31.1512 33.1379 31.4425 33.1379C31.8205 33.1379 32.1591 33.0461 32.4583 32.8626C32.7614 32.675 33.0016 32.4276 33.1787 32.1203C33.3559 31.813 33.4445 31.4758 33.4445 31.1086C33.4445 30.7295 33.352 30.3883 33.1669 30.085C32.9819 29.7777 32.7378 29.5342 32.4346 29.3546C32.1315 29.1751 31.8008 29.0853 31.4425 29.0853C31.041 29.0853 30.6945 29.1751 30.4032 29.3546C30.1118 29.5302 29.8795 29.7517 29.7063 30.0191L28.915 29.6839L29.1748 25.2002H33.7161V26.0443H29.5587L29.9898 25.6312L29.7595 29.4564L29.541 29.1631C29.7851 28.8797 30.0803 28.6582 30.4268 28.4986C30.7732 28.339 31.1374 28.2592 31.5193 28.2592C32.0429 28.2592 32.5154 28.3869 32.9366 28.6423C33.3579 28.8937 33.6925 29.2349 33.9405 29.6659C34.1886 30.0969 34.3126 30.5778 34.3126 31.1086C34.3126 31.6354 34.1807 32.1183 33.9169 32.5573C33.6531 32.9923 33.3028 33.3415 32.8657 33.6049C32.4287 33.8683 31.9465 34 31.4189 34Z" fill="black"/>
<path d="M21.9365 33.8153L21.9424 33.0131L25.7869 29.4932C26.1176 29.1899 26.3361 28.9026 26.4424 28.6312C26.5526 28.3558 26.6078 28.0685 26.6078 27.7692C26.6078 27.414 26.5251 27.0927 26.3597 26.8054C26.1944 26.518 25.9719 26.2906 25.6924 26.123C25.4129 25.9513 25.0999 25.8655 24.7534 25.8655C24.3912 25.8655 24.0684 25.9533 23.7849 26.1289C23.5015 26.3045 23.2771 26.536 23.1117 26.8233C22.9503 27.1107 22.8716 27.424 22.8755 27.7632H21.9897C21.9897 27.2404 22.1117 26.7715 22.3558 26.3564C22.5999 25.9414 22.9306 25.6161 23.3479 25.3807C23.7653 25.1412 24.2377 25.0215 24.7653 25.0215C25.281 25.0215 25.7436 25.1452 26.153 25.3926C26.5664 25.6361 26.8912 25.9673 27.1274 26.3863C27.3676 26.8014 27.4877 27.2643 27.4877 27.7752C27.4877 28.1343 27.4444 28.4516 27.3578 28.727C27.2751 28.9983 27.1432 29.2518 26.9621 29.4872C26.7849 29.7187 26.5586 29.9581 26.283 30.2056L22.8696 33.3304L22.7338 32.9712H27.4877V33.8153H21.9365Z" fill="black"/>
<path d="M19.8579 31.8093H2C1.44772 31.8093 1 31.3616 1 30.8093V9.17228M30.7756 21.7484V9.17228M1 9.17228V4.13574C1 3.58346 1.44772 3.13574 2 3.13574H29.7756C30.3279 3.13574 30.7756 3.58346 30.7756 4.13574V9.17228M1 9.17228H30.7756" stroke="black" stroke-linecap="round"/>
<path d="M12.2588 3.01886C12.1219 2.47822 11.8367 1.98799 11.4361 1.60499C11.0356 1.22199 10.5361 0.961919 9.9957 0.854922C9.45528 0.747925 8.89601 0.798386 8.38272 1.00046C7.86944 1.20253 7.42317 1.54793 7.09565 1.99662C6.76813 2.44531 6.57278 2.97891 6.53224 3.53556C6.4917 4.09221 6.60764 4.6491 6.8666 5.14168C7.12557 5.63426 7.51697 6.04234 7.99541 6.31863C8.47386 6.59491 9.01976 6.72808 9.56982 6.70268" stroke="black" stroke-linecap="round"/>
<path d="M26.1831 2.83914C26.0315 2.30256 25.7329 1.82054 25.322 1.44896C24.9112 1.07738 24.4048 0.831467 23.8616 0.73972C23.3185 0.647973 22.7608 0.714155 22.2533 0.930592C21.7457 1.14703 21.3091 1.50486 20.994 1.96259C20.6789 2.42033 20.4982 2.95922 20.4729 3.51679C20.4477 4.07437 20.5788 4.62778 20.8512 5.11289C21.1235 5.59799 21.5259 5.9949 22.0118 6.25761C22.4976 6.52033 23.0469 6.63808 23.5961 6.59721" stroke="black" stroke-linecap="round"/>
<path d="M5.4668 14.7061H9.43687" stroke="black" stroke-linecap="round"/>
<path d="M5.4668 19.7363H9.43687" stroke="black" stroke-linecap="round"/>
<path d="M5.4668 24.7666H9.43687" stroke="black" stroke-linecap="round"/>
<path d="M13.4062 14.7061H17.3763" stroke="black" stroke-linecap="round"/>
<path d="M13.4062 19.7363H17.3763" stroke="black" stroke-linecap="round"/>
<path d="M13.4062 24.7666H17.3763" stroke="black" stroke-linecap="round"/>
<path d="M21.3467 14.7061H25.3168" stroke="black" stroke-linecap="round"/>
<path d="M21.3467 19.7363H25.3168" stroke="black" stroke-linecap="round"/>
</svg>
