<svg width="42" height="42" viewBox="0 0 42 42" fill="none" xmlns="http://www.w3.org/2000/svg">
<path d="M1 1V41H41" stroke="black" stroke-linecap="round" stroke-linejoin="round"/>
<path d="M1 26.9277L3.4078 21.8884C3.77022 21.1299 4.84997 21.1299 5.21239 21.8884L7.70806 27.1116C8.07048 27.8701 9.15023 27.8701 9.51265 27.1116L12.0083 21.8884C12.3707 21.1299 13.4505 21.1299 13.8129 21.8884L16.3086 27.1116C16.671 27.8701 17.7508 27.8701 18.1132 27.1116L20.6089 21.8884C20.9713 21.1299 22.051 21.1299 22.4135 21.8884L25 27.3015C27 31.201 31.8 37.4 39 37" stroke="black" stroke-linecap="round"/>
<path d="M37.5 12C37.5 11.7239 37.2761 11.5 37 11.5C36.7239 11.5 36.5 11.7239 36.5 12L37.5 12ZM36.6464 27.3536C36.8417 27.5488 37.1583 27.5488 37.3536 27.3536L40.5355 24.1716C40.7308 23.9763 40.7308 23.6597 40.5355 23.4645C40.3403 23.2692 40.0237 23.2692 39.8284 23.4645L37 26.2929L34.1716 23.4645C33.9763 23.2692 33.6597 23.2692 33.4645 23.4645C33.2692 23.6597 33.2692 23.9763 33.4645 24.1716L36.6464 27.3536ZM37 12L36.5 12L36.5 27L37 27L37.5 27L37.5 12L37 12Z" fill="black"/>
</svg>
