<svg width="42" height="42" viewBox="0 0 42 42" fill="none" xmlns="http://www.w3.org/2000/svg">
<path d="M1 1V41H41" stroke="black" stroke-linecap="round" stroke-linejoin="round"/>
<path d="M7.36207 3.65517C7.17163 3.45521 6.85514 3.44749 6.65517 3.63793C6.45521 3.82837 6.44749 4.14486 6.63793 4.34483L7.36207 3.65517ZM26.9878 25.4999C27.2639 25.5066 27.4931 25.2883 27.4999 25.0122L27.6096 20.5135C27.6163 20.2375 27.398 20.0082 27.1219 20.0015C26.8459 19.9948 26.6166 20.2131 26.6099 20.4891L26.5123 24.488L22.5135 24.3904C22.2375 24.3837 22.0082 24.602 22.0015 24.8781C21.9948 25.1541 22.2131 25.3834 22.4891 25.3901L26.9878 25.4999ZM7 4L6.63793 4.34483L26.6379 25.3448L27 25L27.3621 24.6552L7.36207 3.65517L7 4Z" fill="black"/>
<path d="M36.7528 36.2307C35.6645 36.2307 34.738 35.9791 33.9731 35.4761C33.2082 34.973 32.6256 34.2877 32.2252 33.4202C31.8299 32.5475 31.6349 31.5593 31.64 30.4557C31.6657 29.3007 31.8787 28.292 32.2791 27.4296C32.6795 26.562 33.2544 25.887 34.0039 25.4045C34.7534 24.9219 35.6697 24.6807 36.7528 24.6807C37.2251 24.6807 37.6819 24.7346 38.1234 24.8424C38.57 24.9502 38.9832 25.1144 39.3631 25.3352L38.7548 26.29C38.4622 26.1206 38.1439 25.9948 37.8 25.9127C37.4612 25.8254 37.1121 25.7792 36.7528 25.7741C35.8853 25.7689 35.164 25.9666 34.5891 26.367C34.0142 26.7622 33.5804 27.3141 33.2878 28.0225C33.0003 28.7257 32.8566 29.5368 32.8566 30.4557C32.8566 31.3951 33.0003 32.2164 33.2878 32.9197C33.5804 33.6178 34.0142 34.1619 34.5891 34.5521C35.164 34.9422 35.8853 35.1398 36.7528 35.145C37.4817 35.1604 38.1542 34.9884 38.7702 34.6291L39.3708 35.5685C38.9909 35.7892 38.5777 35.9535 38.1311 36.0613C37.6845 36.1742 37.2251 36.2307 36.7528 36.2307ZM30.4619 32.1959V31.2257H37.4304V32.1959H30.4619ZM30.4619 29.7088V28.7386H37.4304V29.7088H30.4619Z" fill="black"/>
</svg>
