<svg width="39" height="41" viewBox="0 0 39 41" fill="none" xmlns="http://www.w3.org/2000/svg">
<path d="M10.9092 14.7861H21.6235" stroke="black" stroke-linecap="round"/>
<path d="M16.623 9.92871C16.9385 9.92887 17.1943 10.1845 17.1943 10.5V37.499C18.3162 36.4742 20.3566 35.6426 23.7129 35.6426C26.3361 35.6425 27.9366 34.4477 28.9053 32.957C29.4389 32.1356 29.7829 31.2184 29.9863 30.3555L28.5059 32.2773L28.4268 32.3613C28.2257 32.5352 27.923 32.5502 27.7041 32.3818C27.4855 32.2135 27.4227 31.9174 27.5391 31.6787L27.6006 31.5801L30.3496 28.0088C30.4732 27.8484 30.6731 27.7648 30.874 27.79C31.0499 27.8122 31.2046 27.9145 31.2939 28.0645L31.3281 28.1318L32.8643 31.7031C32.9885 31.9928 32.854 32.3284 32.5645 32.4531C32.2746 32.5778 31.9382 32.4441 31.8135 32.1543L31.1182 30.5352C30.891 31.5349 30.4954 32.6075 29.8643 33.5791C28.7061 35.3618 26.7608 36.786 23.7129 36.7861C18.5012 36.7862 17.3329 38.8033 17.207 39.6357L17.1943 39.7773C17.1943 39.7802 17.1953 39.7833 17.1953 39.7861H17.1943L17.1836 39.9004C17.1305 40.161 16.8993 40.3573 16.623 40.3574C16.3469 40.3573 16.1166 40.1609 16.0635 39.9004L16.0518 39.7861V39.7744C16.0414 39.0575 15.0644 36.7862 9.53418 36.7861C6.48644 36.786 4.54201 35.3617 3.38379 33.5791C2.7528 32.6078 2.35706 31.5356 2.12988 30.5361L1.43555 32.1543C1.31094 32.444 0.974395 32.5784 0.68457 32.4541C0.394682 32.3295 0.260327 31.993 0.384766 31.7031L1.91992 28.1318L1.9541 28.0645C2.04346 27.9148 2.19736 27.8122 2.37305 27.79C2.57404 27.7648 2.77383 27.8483 2.89746 28.0088L5.64844 31.5801L5.70996 31.6787C5.82623 31.9174 5.76344 32.2135 5.54492 32.3818C5.32609 32.5504 5.02337 32.5352 4.82227 32.3613L4.74316 32.2773L3.26172 30.3545C3.46511 31.2177 3.80796 32.1353 4.3418 32.957C5.31046 34.4478 6.91086 35.6435 9.53418 35.6436C12.8895 35.6436 14.9297 36.4737 16.0518 37.498V10.5C16.0518 10.1845 16.3076 9.92889 16.623 9.92871Z" fill="black"/>
<circle cx="16.624" cy="5.5" r="4.5" stroke="black"/>
<path d="M33.8374 3.92871C33.8374 3.65257 33.6135 3.42871 33.3374 3.42871C33.0613 3.42871 32.8374 3.65257 32.8374 3.92871L33.8374 3.92871ZM32.9838 21.4251C33.1791 21.6204 33.4957 21.6204 33.691 21.4251L36.8729 18.2431C37.0682 18.0479 37.0682 17.7313 36.8729 17.536C36.6777 17.3408 36.3611 17.3408 36.1658 17.536L33.3374 20.3645L30.509 17.536C30.3137 17.3408 29.9971 17.3408 29.8019 17.536C29.6066 17.7313 29.6066 18.0479 29.8019 18.2431L32.9838 21.4251ZM33.3374 3.92871L32.8374 3.92871L32.8374 21.0716L33.3374 21.0716L33.8374 21.0716L33.8374 3.92871L33.3374 3.92871Z" fill="black"/>
</svg>
