<svg width="42" height="38" viewBox="0 0 42 38" fill="none" xmlns="http://www.w3.org/2000/svg">
<path d="M35.0884 11.0066C36.2825 13.4149 36.9538 16.129 36.9538 19C36.9538 28.9411 28.9052 37 18.9769 37C9.04853 37 1 28.9411 1 19C1 9.05887 9.04853 1 18.9769 1C23.7618 1 28.1101 2.87183 31.3312 5.92408" stroke="black" stroke-linecap="round"/>
<path d="M30.6019 14.1666C31.22 15.6551 31.5612 17.2879 31.5612 19.0004C31.5612 25.9592 25.9272 31.6004 18.9774 31.6004C12.0275 31.6004 6.39355 25.9592 6.39355 19.0004C6.39355 12.0416 12.0275 6.40039 18.9774 6.40039C22.1681 6.40039 25.0814 7.58941 27.2995 9.54908" stroke="black" stroke-linecap="round"/>
<path d="M26.0768 17.8533C26.1366 18.227 26.1676 18.6102 26.1676 19.0008C26.1676 22.9772 22.9482 26.2008 18.9769 26.2008C15.0055 26.2008 11.7861 22.9772 11.7861 19.0008C11.7861 15.0243 15.0055 11.8008 18.9769 11.8008C20.5184 11.8008 21.9466 12.2865 23.1172 13.1133" stroke="black" stroke-linecap="round"/>
<path d="M18.5704 20.4032L33.6111 8.37346" stroke="black" stroke-linecap="round"/>
<path d="M19.086 17.2492L18.2049 20.5458C18.1656 20.6926 18.288 20.8324 18.4388 20.8128L21.7158 20.3868" stroke="black" stroke-linecap="round"/>
<path d="M34.6635 7.31921L40.9752 2.05285" stroke="black" stroke-linecap="round" stroke-dasharray="2 2"/>
</svg>
