<?xml version="1.0" encoding="UTF-8"?>
<svg id="artwork" xmlns="http://www.w3.org/2000/svg" version="1.1" viewBox="0 0 1331.6 859.6">
  <!-- Generator: Adobe Illustrator 29.5.1, SVG Export Plug-In . SVG Version: 2.1.0 Build 141)  -->
  <defs>
    <style>
      .st0 {
        fill: #fff;
      }
    </style>
  </defs>
  <path class="st0" d="M22,273l-.8-4.7c156.7-89.5,326.1-143.4,507.1-157,30.3-2.3,60.7-3.4,91.1-3.4,152.9,0,307.1,28.4,461.1,82.8l.8,4.3c-66.5-18.4-177.8-28.6-312.1-28.6s-148.9,2.9-229.9,9c-230,17.2-425.8,55.9-517.3,97.8M1321.5,195.5c-78.8-42.8-227.8-90.6-398.2-124.5-127.4-25.3-242.8-37.9-326.1-37.9s-54.3,1.6-74.7,4.6v-5C598.2,11.1,676.5,0,755.2,0c56.6,0,113,5.7,168.4,16.7,136.6,27.1,269.7,86.3,397.9,173.5v5.3"/>
  <path class="st0" d="M.5,390.6l-.5-6.1c205-98.1,422.2-150.5,649.7-151.5h6.9c227,0,452.9,51.3,674.5,148.2l.5,5.4c-121.8-43.2-371-72.7-657-72.7h-17.8c-288.9,1.2-537.5,32.4-656.2,76.6"/>
  <path class="st0" d="M198.1,566l-1,1.3c-4.6,5.9-9.6,10.3-14.9,12.9-5,2.6-10.6,4-16.3,4-6.8.1-13.5-1.2-19.7-4-5.7-2.6-10.9-6.3-15.1-10.9-4.3-4.8-7.6-10.3-9.8-16.4-2.4-6.7-3.6-13.8-3.5-20.9,0-6.7,1.2-13.4,3.5-19.7,2.2-5.9,5.5-11.3,9.8-15.9,4.3-4.5,9.4-8.2,15.1-10.7,6.2-2.7,12.9-4,19.7-3.9,4.9,0,9.8,1,14.4,2.8,4.7,1.8,9.7,5.5,14.8,11l1.1,1.1,22.9-16.8-1.2-1.4c-7.4-8.5-15.5-14.6-24.1-18.2-8.9-3.6-18.4-5.5-28-5.4-10.8-.1-21.4,1.8-31.5,5.6-9.3,3.5-17.7,8.9-24.8,15.9-7.1,7.1-12.6,15.6-16.3,24.9-4,10.3-6,21.3-5.9,32.3-.1,10.8,1.9,21.6,5.9,31.6,3.7,9.2,9.3,17.5,16.3,24.5,7.1,6.9,15.5,12.3,24.8,15.8,10.1,3.8,20.7,5.7,31.5,5.6,10.6,0,21.1-2.1,30.8-6.3,9.9-4.4,18.5-11.4,24.7-20.3l1-1.4-24.2-17.1ZM360.8,458.8h-24.7l-64.7,148.6h32.7l13.1-33.2h60.6l13.5,33.2h33.3l-63.8-148.6ZM367.6,548.6h-40.1l20.2-52.5,19.9,52.5ZM569.2,542.9c10-1.9,17.9-6.3,23.5-13.1,6-7.4,9.1-16.7,9.1-27.5s-1.6-15.6-4.7-21.2c-3-5.5-7.4-10-12.7-13.3-5.5-3.4-11.6-5.7-17.9-6.9-6.8-1.3-13.6-2-20.5-2h-52.2v148.6h29.3v-61.5h16l33.1,60.6.5.9h35.3l-38.8-64.6ZM523,484.4h20.6c3.3,0,6.6.2,9.9.6,3.1.3,6.1,1.2,9,2.4,2.5,1.1,4.7,2.9,6.3,5.2,1.6,2.3,2.4,5.4,2.4,9.3s-.9,7.8-2.5,10.2c-1.7,2.4-4.1,4.3-6.8,5.4-3.1,1.3-6.3,2-9.6,2.3-3.6.3-7.3.5-10.9.5h-18.4v-35.9ZM799.5,550.7c-1.6-4.1-3.9-7.9-6.8-11.2-3-3.3-6.5-6-10.5-8-2.5-1.2-5-2.2-7.7-2.9,5.3-2.3,10.1-5.7,13.9-10.1,4.9-5.6,7.4-12.8,7.4-21.4.1-6.2-1.3-12.2-4.1-17.7-2.6-4.8-6.2-8.8-10.7-11.9-4.5-3.1-9.5-5.4-14.8-6.6-5.4-1.3-11-2-16.6-2h-58.3v148.6h54c6.9,0,13.8-.7,20.5-2.1,6.4-1.3,12.6-3.7,18.2-7.1,5.3-3.3,9.8-7.9,13-13.3,3.3-5.5,5-12.5,5-20.7,0-4.6-.8-9.3-2.5-13.6h0ZM720.5,543.5h23.1c10.1,0,17.7,1.4,22.4,4.3,4.5,2.7,6.6,7.4,6.6,14.5s-.9,7.9-2.7,10.4c-1.9,2.5-4.3,4.5-7.1,5.9-3.1,1.4-6.4,2.4-9.8,2.7-3.5.4-6.9.6-10.4.6h-22.1v-38.4ZM760.7,513.2c-4,3.1-10.1,4.7-18.3,4.7h-21.8v-33.4h19.5c9.4,0,16.3,1.4,20.4,4.3s5.9,6.9,5.9,12.6c.2,4.6-1.9,9.1-5.7,11.8h0ZM1022.7,500.7c-3.7-9.3-9.3-17.7-16.4-24.8-7.2-6.9-15.7-12.3-25-15.7-10.2-3.6-21-5.4-31.8-5.1-10.8-.1-21.4,1.8-31.5,5.6-9.3,3.5-17.7,8.9-24.8,15.9-7.1,7.1-12.6,15.6-16.3,24.9-4,10.3-6,21.3-5.9,32.3-.1,10.8,1.9,21.6,5.9,31.6,3.7,9.2,9.3,17.5,16.3,24.5,7.1,6.9,15.5,12.3,24.8,15.8,20.4,7.6,43,7.5,63.3-.4,9.3-3.6,17.8-9.1,25-16.1,7.1-7,12.7-15.4,16.4-24.6,4-10,6-20.8,5.9-31.6.1-11-1.9-22-5.9-32.3h0ZM949.8,584.3c-6.8.1-13.5-1.2-19.7-4-5.7-2.6-10.9-6.3-15.1-10.9-4.3-4.8-7.6-10.3-9.8-16.4-2.4-6.7-3.6-13.8-3.5-20.9,0-6.7,1.2-13.4,3.5-19.7,2.2-5.9,5.5-11.3,9.8-15.9,4.3-4.5,9.4-8.2,15.1-10.7,6.2-2.7,12.9-4,19.7-3.9,6.8,0,13.5,1.2,19.8,3.9,5.8,2.5,10.9,6.1,15.2,10.7,4.3,4.6,7.6,10,9.8,15.9,2.3,6.3,3.5,13,3.5,19.7,0,7.1-1.1,14.2-3.5,20.9-2.1,6.1-5.5,11.6-9.8,16.4-4.3,4.6-9.4,8.3-15.2,10.9-6.2,2.7-13,4.1-19.8,4Z"/>
  <path class="st0" d="M1204.7,458.8v104.4l-68-104.4h-37v148.7h29.3v-107.8l69,107,.5.8h35.5v-148.7h-29.3ZM233.6,707.2v26.9h44.5v121.8h29.3v-121.8h44.5v-26.9h-118.3,0Z"/>
  <path class="st0" d="M499.5,791.3c10-1.9,17.9-6.3,23.5-13.1,6-7.4,9.1-16.7,9.1-27.5s-1.6-15.6-4.7-21.2c-3-5.5-7.4-10-12.7-13.3-5.5-3.4-11.6-5.7-17.9-6.9-6.8-1.3-13.6-2-20.5-2h-52.1v148.6h29.2v-61.5h16.1l33.1,60.6.5.9h35.3l-38.8-64.6ZM453.3,732.8h20.6c3.3,0,6.6.2,9.9.6,3.1.3,6.1,1.2,9,2.4,2.5,1.1,4.7,2.9,6.3,5.2,1.6,2.3,2.4,5.4,2.4,9.3s-.9,7.8-2.5,10.2c-1.7,2.4-4.1,4.3-6.8,5.4-3.1,1.3-6.3,2-9.6,2.3-3.6.3-7.3.5-10.9.5h-18.4v-35.9ZM705.4,707.2v92.8c0,3.6-.6,7.2-1.6,10.7-1,3.7-2.8,7.2-5.1,10.2-2.6,3.2-5.8,5.8-9.5,7.6-3.9,2-8.8,3-14.7,3s-10.8-1-14.7-3c-3.7-1.8-6.9-4.4-9.5-7.6-2.4-3-4.1-6.5-5.1-10.2-1-3.5-1.5-7.1-1.6-10.7v-92.8h-29.3v93.6c-.1,8.3,1.4,16.6,4.5,24.3,2.9,7,7.2,13.3,12.7,18.5,5.5,5.2,12,9.1,19.1,11.7,15.4,5.5,32.2,5.5,47.6,0,7.1-2.6,13.5-6.6,19-11.7,5.4-5.3,9.7-11.5,12.7-18.5,3.2-7.7,4.7-16,4.6-24.4v-93.6h-29.1ZM856.2,859.6c-9.1,0-18.1-1.6-26.6-4.6-8.7-3.2-16.4-8.6-22.3-15.7l-1-1.2,22.1-21.5,1.1,1.8c2.9,4.5,7,8.2,11.8,10.6,7.4,3.9,16,4.8,24.1,2.6,2.7-.7,5.3-1.9,7.7-3.5,2.2-1.5,4.1-3.4,5.4-5.7,1.3-2.4,2-5.1,2-7.8,0-4.8-1.5-8.4-4.5-11-3.7-2.9-7.8-5.3-12.2-7-5-2-10.5-3.8-16.5-5.6-6-1.7-11.7-4.3-17-7.5-5.3-3.2-9.9-7.6-13.3-12.8-3.6-5.4-5.4-12.6-5.4-21.6s1.6-14.6,4.8-20.3c3.1-5.6,7.4-10.4,12.6-14.2,5.4-3.8,11.4-6.6,17.7-8.4,14.1-3.9,29-3.6,42.9.8,7.5,2.4,14.3,6.5,20,11.9l1.3,1.2-21.5,22.7-1.2-1.8c-2.5-3.7-6.1-6.5-10.2-8.1-7-2.8-14.7-3.4-22.1-1.7-2.5.6-4.9,1.6-7,3-2,1.3-3.7,3.2-4.9,5.3-1.2,2.3-1.9,5-1.8,7.6,0,4.4,1.5,7.6,4.4,9.9,3.8,2.8,7.9,5,12.3,6.5,5,1.9,10.5,3.7,16.5,5.5,6,1.8,11.7,4.3,17,7.6,5.3,3.3,9.8,7.8,13.2,13,3.6,5.5,5.4,12.8,5.4,21.7.2,7.3-1.4,14.6-4.5,21.2-2.8,5.9-7,11-12.1,15-5.2,4-11.2,7-17.5,8.9-6.7,2.2-13.7,3.3-20.7,3.2h0ZM1053.5,855.9h-29.3v-121.8h-44.5v-26.8h118.3v26.8h-44.5v121.8Z"/>
</svg>