<?xml version="1.0" encoding="UTF-8"?>
<svg id="Layer_1" xmlns="http://www.w3.org/2000/svg" version="1.1" viewBox="0 0 4252 1218.9">
  <!-- Generator: Adobe Illustrator 29.3.1, SVG Export Plug-In . SVG Version: 2.1.0 Build 151)  -->
  <defs>
    <style>
      .st0 {
        fill: #327cff;
      }

      .st1 {
        fill: #fff;
      }
    </style>
  </defs>
  <g>
    <path class="st1" d="M2015.3,276.4c0,143.3-104.2,254.6-243.9,254.6h-201.2V21.8h201.2c139.7,0,243.9,111.3,243.9,254.6ZM1919.8,276.4c0-93.8-60.8-158.5-148.4-158.5h-101.3v317.1h101.3c87.6,0,148.4-64.7,148.4-158.5Z"/>
    <path class="st1" d="M2403.3,167.3v363.7h-93.4v-40.7c-21.7,32.7-59.4,50.9-107.8,50.9-76.7,0-136.8-53.8-136.8-150.5v-223.3h93.4v211.6c0,49.5,29.7,74.9,71.7,74.9s79.6-26.9,79.6-90.2v-196.4h93.4Z"/>
    <path class="st1" d="M2850.6,349.1c0,108.4-79.6,192-176.6,192s-91.2-19.6-117.3-53.1v42.9h-93.4V21.8h93.4v188.4c26.1-33.4,64.4-53.1,117.3-53.1,97,0,176.6,83.6,176.6,192ZM2757.3,349.1c0-61.1-42.7-102.5-100.6-102.5s-99.9,41.5-99.9,102.5,42.7,102.6,99.9,102.6,100.6-41.5,100.6-102.6Z"/>
    <path class="st1" d="M2893.4,0h93.4v530.9h-93.4V0Z"/>
    <path class="st1" d="M3050.4,66.2c0-31.3,26.1-58.2,57.2-58.2s57.9,26.9,57.9,58.2-26.1,57.5-57.9,57.5-57.2-26.2-57.2-57.5ZM3061.3,167.3h93.4v363.7h-93.4V167.3Z"/>
    <path class="st1" d="M3567.2,307.6v223.3h-93.4v-211.6c0-49.5-29.7-74.9-71.7-74.9s-79.6,26.9-79.6,90.2v196.4h-93.4V167.3h93.4v40.7c21.7-32.7,59.4-50.9,107.8-50.9,76.7,0,136.8,53.8,136.8,150.5Z"/>
    <path class="st1" d="M1547,954.2c0-149.1,116.5-264.7,262.7-264.7s263.5,115.6,263.5,264.7-117.3,264.7-263.5,264.7-262.7-116.4-262.7-264.7ZM1973.4,954.2c0-98.2-71.7-167.3-163.6-167.3s-163.6,69.1-163.6,167.3,71.7,166.6,163.6,166.6,163.6-69.1,163.6-166.6Z"/>
    <path class="st1" d="M2446.7,834.2v10.9h76.7v90.2h-76.7v273.5h-93.4v-273.5h-107.1v273.5h-93.4v-273.5h-52.1v-90.2h52.1v-3.6c0-100.4,55-159.3,170.1-152v90.2c-48.5-3.6-76.7,12.4-76.7,61.8v3.6h107.1v-10.9c0-100.4,55.7-159.3,170.1-152v90.2c-47.8-3.6-76.7,12.4-76.7,61.8Z"/>
    <path class="st1" d="M2828.2,1102.5c0,78.5-68,116.4-145.5,116.4s-125.9-30.6-152-86.5l81.1-45.8c10.1,29.8,34.7,47.3,70.9,47.3s49.9-10.2,49.9-31.3c0-53.1-186.7-24-186.7-152s63-115.6,137.5-115.6,109.3,26.9,137.5,77.1l-79.6,43.6c-10.9-23.3-31.1-37.1-57.9-37.1s-42,10.2-42,29.8c0,53.8,186.7,20.4,186.7,154.2Z"/>
    <path class="st1" d="M3204.6,985.4v223.3h-93.4v-211.6c0-49.5-29.7-74.9-71.7-74.9s-79.6,26.9-79.6,90.2v196.4h-93.4v-509.1h93.4v186.2c21.7-32.7,59.4-50.9,107.8-50.9,76.7,0,136.8,53.8,136.8,150.5Z"/>
    <path class="st1" d="M3240.1,1026.9c0-108.4,84.7-192,191.1-192s191.8,83.6,191.8,192-85.4,192-191.8,192-191.1-83.6-191.1-192ZM3529.6,1026.9c0-58.9-42.7-100.4-98.4-100.4s-97.7,41.5-97.7,100.4,42.7,100.4,97.7,100.4,98.4-41.5,98.4-100.4Z"/>
    <path class="st1" d="M3866.9,837.8v104.7c-48.5-5.8-110,16-110,92.4v173.8h-93.4v-363.7h93.4v62.5c18.8-49.5,64.4-69.8,110-69.8Z"/>
    <path class="st1" d="M4077.5,1133.8c36.2,0,65.1-15.3,81.1-36.4l75.3,43.6c-34,49.5-88.3,77.8-157.8,77.8-121.6,0-198.3-83.6-198.3-192s77.4-192,191.1-192,183.1,85.1,183.1,192-1.4,26.2-3.6,38.6h-272.9c13,48,52.8,68.4,102.1,68.4ZM4158.6,992.7c-11.6-52.4-50.7-73.4-89.8-73.4s-84,26.9-94.8,73.4h184.6Z"/>
  </g>
  <path class="st0" d="M601.4,5.2C269.8,5.2,0,276.2,0,609.5s269.8,604.3,601.4,604.3,601.4-271.1,601.4-604.3S933,5.2,601.4,5.2ZM133.5,609.5c0-129.6,104.9-235,233.9-235s233.9,105.4,233.9,235h133.5c0-203.6-164.8-369.2-367.4-369.2s-41.8,1.9-61.9,5.3c80.7-66.4,183.7-106.3,295.9-106.3,258,0,467.8,210.9,467.8,470.1s0,0,0,0h-.2c0,129.6-104.9,235-233.9,235s-233.9-105.4-233.9-235h-133.5c0,203.6,164.8,369.2,367.4,369.2s41.8-1.9,62-5.4c-80.7,66.3-183.7,106.2-295.8,106.2-258,0-467.8-210.9-467.8-470.1Z"/>
</svg>