<?xml version="1.0" encoding="UTF-8"?>
<svg id="Layer_1" xmlns="http://www.w3.org/2000/svg" version="1.1" viewBox="0 0 167.4 54.9">
  <!-- Generator: Adobe Illustrator 29.5.1, SVG Export Plug-In . SVG Version: 2.1.0 Build 141)  -->
  <defs>
    <style>
      .st0 {
        fill-rule: evenodd;
      }

      .st0, .st1 {
        fill: #fff;
      }
    </style>
  </defs>
  <path class="st0" d="M38.8,0c-12.8.4-21.4,8.6-25.9,18.5,17.1-5.3,42.3-4.9,55.4,3.7C65,10.6,56.4,1.4,42.9.1c-1.4,0-2.8-.2-4.1,0h0ZM66.8,25.5c-11.7,0-24.1,4.3-27.6,12.5-3.8,8.8,1.9,18.1,12.1,16.7,11.6-1.6,18.9-15.3,17.9-29.1h-2.4Z"/>
  <path class="st0" d="M0,40.5h21.6c6.7-10.5,16.1-18.3,32.9-18.7C31.4,15.8,7.5,24.3,0,40.5"/>
  <path class="st1" d="M75.9,12.8v24.1h14.2v-2.9h-10.9v-8.7h8v-2.8h-8v-6.7h11.1v-3s-14.4,0-14.4,0ZM101.3,19c-1.8,0-3.3.8-4.5,2.4l-1-2.1h-2v17.6h3.1v-13c.3-.6.8-1.1,1.5-1.6s1.4-.7,2-.7c1.1,0,1.9.3,2.6.8.6.5,1,1.2,1,2.1v12.5h3.1v-13c.2-.6.7-1.1,1.4-1.6s1.4-.7,2.1-.7c2.4,0,3.6,1.4,3.6,4.2v11.2h3.1v-11.8c0-2-.5-3.5-1.5-4.5-1-1.1-2.4-1.6-4.2-1.6s-2,.2-3,.7-1.6,1-1.9,1.7c-1-1.6-2.8-2.3-5.3-2.3h0v-.3ZM128.8,19c-2.2,0-4,.8-5.6,2.3-1.8,1.8-2.7,4.1-2.7,7s.9,5,2.6,6.7c1.5,1.5,3.4,2.2,5.6,2.2s2.9-.2,4.2-.7c1-.4,1.7-.8,2.2-1.2l-1.3-2.2c-1.2,1-2.7,1.6-4.5,1.6s-2.8-.5-3.8-1.5c-1.1-1.1-1.7-2.7-1.7-4.8h12.7c.2-.6.2-1.2.2-1.9,0-2.2-.7-4-2.1-5.4-1.4-1.4-3.4-2.1-5.9-2.1h.1ZM148.5,19c-2.3,0-4,1-5.1,3.1v-2.8h-3.1v17.6h3.1v-10.1c0-1.4.4-2.7,1.2-3.7s1.8-1.5,2.9-1.5,1.4.2,2.1.7l1.3-3.1c-1-.2-1.8-.3-2.4-.3h0ZM158.7,19c-1,0-2,.2-3,.5s-1.9.8-2.5,1.2l1.3,2.6c1.1-1.1,2.5-1.6,4.5-1.6s3.8,1.4,3.8,4.3c-.8-.3-1.6-.4-2.2-.4-2.4,0-4.4.6-6,1.9-1.6,1.2-2.3,2.7-2.3,4.5s.5,2.7,1.5,3.8c1,1,2.2,1.5,3.6,1.5,2.6,0,4.5-.8,5.8-2.3.3.8.7,1.4,1.3,1.8.6.4,1.6.5,2.9.5v-1.6c-.9-.5-1.4-1.6-1.4-3.1v-6.3c0-2.5-.6-4.4-1.8-5.5-1.2-1.2-3-1.8-5.6-1.8h0ZM129,21.6c1.5,0,2.7.5,3.5,1.4.8.8,1.2,1.9,1.2,3.2h-9.8c.1-1.3.6-2.3,1.5-3.2.9-.9,2.1-1.3,3.5-1.3h.1ZM160.8,27.9c.4,0,1.1,0,2.1.3v4.3c-1.2,1.5-2.6,2.2-4.2,2.2s-3.2-.9-3.2-2.8.5-2.1,1.5-2.9c1-.8,2.3-1.2,3.9-1.2h-.1Z"/>
</svg>