<?xml version="1.0" encoding="utf-8"?>
<!-- Generator: Adobe Illustrator 29.5.1, SVG Export Plug-In . SVG Version: 9.03 Build 0)  -->
<svg version="1.0" id="svg2" xmlns:svg="http://www.w3.org/2000/svg"
	 xmlns="http://www.w3.org/2000/svg" xmlns:xlink="http://www.w3.org/1999/xlink" x="0px" y="0px" viewBox="0 0 126.8 60.7"
	 style="enable-background:new 0 0 126.8 60.7;" xml:space="preserve">
<style type="text/css">
	.st0{fill:#F9F9F9;}
	.st1{fill:url(#path251_00000096764349266545167420000015258630532388977287_);}
	.st2{clip-path:url(#SVGID_00000013888455720599578980000004811132765201916328_);}
	.st3{fill:url(#path277_00000048487751251020672780000015320035582611190663_);}
	.st4{fill:url(#path299_00000023985609805589424880000011711731963117380501_);}
	.st5{fill:url(#path319_00000115475245551096727840000000980738887704707493_);}
	.st6{clip-path:url(#SVGID_00000037668705963335341780000012013035102756812445_);}
	.st7{fill:url(#path347_00000168799281830742266520000001443997447052106657_);}
	.st8{fill:url(#path369_00000041287202323631118640000011596759520331103153_);}
	.st9{fill:url(#path387_00000008113076163800665250000013350892430023032718_);}
	.st10{fill:url(#path405_00000147212410686580032880000013154480086389431197_);}
	.st11{fill:url(#path423_00000018219598422729077110000000066932780347945608_);}
	.st12{fill:url(#path443_00000002362728174922147740000011251755167247269761_);}
	.st13{fill:#FBFBFB;}
	.st14{fill:url(#path465_00000169536711621366451860000013465335267599866501_);}
	.st15{fill:#F7F7F7;}
	.st16{fill:#F3F3F3;}
	.st17{fill:#FAFAFA;}
</style>
<g id="g11" transform="matrix(1.25,0,0,-1.25,-26.574812,1024.1916)">
	<g id="g13" transform="matrix(1,0,0,-1,0,841.88977)">
		<g id="g15" transform="translate(42.51969,138.84095)">
			<g id="g23" transform="translate(0,-2.83465)">
				<g id="g101" transform="translate(252.28348,0)">
					<g id="g213" transform="translate(-273.54332,-113.46451)">
						<g id="g215" transform="translate(0.7755256,0.7755256)">
							<g id="g217" transform="matrix(99.833397,0,0,-46.997986,0,46.99799)">
								<g id="g219" transform="scale(2.003e-3,4.256e-3)">
									<g>
										<g id="g221">
											<g id="g227" transform="translate(499.165,148.077)">
												<path id="path229" class="st0" d="M-498.2-147.4v-0.3c0,0,0,0,0,0c0,0,0,0,0,0l0,0c0,0,0,0.1,0,0.2
													C-498.2-147.6-498.2-147.6-498.2-147.4C-498.2-147.5-498.2-147.5-498.2-147.4C-498.2-147.5-498.2-147.5-498.2-147.4
													C-498.2-147.5-498.2-147.5-498.2-147.4l-0.1-0.2c0,0,0,0,0,0c0,0,0,0,0,0l0,0h0l0,0c0,0,0,0,0,0c0,0,0,0,0,0l0,0.1
													c0,0,0,0,0,0c0,0,0,0,0,0c0,0,0,0,0,0c0,0,0-0.1,0-0.1c0,0,0-0.2,0-0.2l0,0c0,0,0,0,0,0c0,0,0,0,0,0v0.3c0,0,0,0,0,0h0
													c0,0,0,0,0,0c0,0,0-0.1,0-0.1c0,0,0,0,0,0v0c0,0,0,0,0,0h0c0,0,0,0,0,0c0,0,0,0,0,0c0,0,0,0,0,0c0,0,0,0,0,0h0
													c0,0,0,0,0,0v0c0,0,0,0,0,0C-498.3-147.6-498.2-147.4-498.2-147.4C-498.2-147.4-498.2-147.4-498.2-147.4L-498.2-147.4
													C-498.2-147.4-498.2-147.4-498.2-147.4z M-498.4-147.6C-498.4-147.6-498.4-147.6-498.4-147.6
													C-498.5-147.6-498.5-147.6-498.4-147.6C-498.5-147.5-498.5-147.5-498.4-147.6C-498.5-147.5-498.4-147.5-498.4-147.6
													C-498.4-147.5-498.4-147.5-498.4-147.6l0,0.1c0,0,0,0,0,0c0,0,0,0,0,0l0,0c0,0,0,0,0,0
													C-498.5-147.4-498.5-147.5-498.4-147.6C-498.5-147.6-498.5-147.6-498.4-147.6C-498.5-147.6-498.5-147.6-498.4-147.6
													C-498.5-147.7-498.4-147.7-498.4-147.6c0-0.1,0-0.1,0-0.1c0,0,0,0,0,0c0,0,0,0,0,0l0-0.1c0,0,0,0,0,0c0,0,0,0,0,0
													c0,0,0.1,0,0.1,0.1C-498.4-147.6-498.4-147.6-498.4-147.6z M-498.6-147.7C-498.6-147.7-498.6-147.7-498.6-147.7l0,0.2
													c0,0,0,0,0,0c0,0,0,0,0-0.1C-498.6-147.7-498.6-147.7-498.6-147.7z M-498.6-147.5C-498.6-147.4-498.6-147.4-498.6-147.5
													c-0.1,0-0.1,0-0.1,0v-0.3c0,0,0,0,0,0c0,0,0,0,0,0c0,0,0.1,0,0.1,0c0,0,0,0.1,0,0.2
													C-498.5-147.5-498.5-147.5-498.6-147.5"/>
											</g>
											<g id="g231">
												<g id="g233">
													<g id="g239">
														
															<linearGradient id="path251_00000134933580005967475180000014699744011497695390_" gradientUnits="userSpaceOnUse" x1="-5.5578" y1="-6.2478" x2="-4.5578" y2="-6.2478" gradientTransform="matrix(-20.8657 -81.2816 -18.0084 20.8717 -228.0469 -320.4241)">
															<stop  offset="0" style="stop-color:#F5F5F5"/>
															<stop  offset="0.12" style="stop-color:#FAFAFA"/>
															<stop  offset="0.8418" style="stop-color:#FBFBFB"/>
															<stop  offset="1" style="stop-color:#FBFBFB"/>
														</linearGradient>
														<path id="path251" style="fill:url(#path251_00000134933580005967475180000014699744011497695390_);" d="M0.4,1
															c-0.1,0-0.1-0.1-0.1-0.2c0-0.1,0-0.2,0-0.2c0,0,0,0,0,0c0,0,0,0,0,0c0,0,0-0.1,0-0.1c0,0,0,0,0,0c0,0,0,0,0,0
															c0,0,0,0,0,0c0,0,0-0.1,0.1-0.1c0,0,0.1,0,0.1,0.1C0.5,0.5,0.4,0.9,0.4,1"/>
													</g>
												</g>
											</g>
											<g id="g253">
												<g>
													<defs>
														<path id="SVGID_1_" d="M0.2,0.6c-0.1,0-0.1-0.2-0.1-0.4c0,0,0,0,0,0C0.2,0,0.2,0,0.2,0s0,0.1,0,0.2
															c0,0.1-0.1,0.1,0,0.2c0,0,0,0,0,0c0,0,0,0,0,0C0.2,0.5,0.2,0.5,0.2,0.6C0.2,0.6,0.2,0.6,0.2,0.6
															C0.2,0.6,0.3,0.6,0.2,0.6C0.3,0.6,0.3,0.6,0.2,0.6C0.3,0.6,0.3,0.6,0.2,0.6C0.3,0.6,0.2,0.6,0.2,0.6z"/>
													</defs>
													<clipPath id="SVGID_00000013190536684566386040000011459326058340847783_">
														<use xlink:href="#SVGID_1_"  style="overflow:visible;"/>
													</clipPath>
													<g id="g255" style="clip-path:url(#SVGID_00000013190536684566386040000011459326058340847783_);">
														<g id="g261">
															<g id="g267">
																
																	<linearGradient id="path277_00000159467840270734238440000001830571558363285680_" gradientUnits="userSpaceOnUse" x1="-5.6302" y1="-5.6012" x2="-4.6302" y2="-5.6012" gradientTransform="matrix(-1.499747e-06 76.7842 17.012 1.500176e-06 95.7881 432.3066)">
																	<stop  offset="0" style="stop-color:#F8F8F8"/>
																	<stop  offset="0.2704" style="stop-color:#F8F8F8"/>
																	<stop  offset="1" style="stop-color:#F6F6F6"/>
																</linearGradient>
																<path id="path277" style="fill:url(#path277_00000159467840270734238440000001830571558363285680_);" d="M0,1h1V0H0
																	V1z"/>
															</g>
														</g>
													</g>
												</g>
											</g>
											<g id="g279">
												<g id="g281">
													<g id="g287">
														
															<linearGradient id="path299_00000007429630299533334720000000021891084418848407_" gradientUnits="userSpaceOnUse" x1="-5.7849" y1="-5.7919" x2="-4.7849" y2="-5.7919" gradientTransform="matrix(-18.3784 37.7107 8.355 18.3837 -57.6256 324.7821)">
															<stop  offset="0" style="stop-color:#E2E2E2"/>
															<stop  offset="0.2615" style="stop-color:#D8D8D8"/>
															<stop  offset="0.8872" style="stop-color:#F5F5F5"/>
															<stop  offset="1" style="stop-color:#F5F5F5"/>
														</linearGradient>
														<path id="path299" style="fill:url(#path299_00000007429630299533334720000000021891084418848407_);" d="M0.2,0.3
															C0.2,0.3,0.2,0.3,0.2,0.3L0.2,0.3C0.2,0.3,0.2,0.4,0.2,0.3C0.2,0.4,0.2,0.4,0.2,0.3c-0.1,0.1-0.1,0.1,0,0.1
															c0,0,0,0.1,0,0.1c0,0,0,0,0,0c0,0,0,0,0-0.1c0-0.1,0-0.2,0-0.3c0-0.1,0.1-0.1,0.1-0.1c0,0,0.1,0.1,0.1,0.1
															C0.3,0.3,0.3,0.3,0.2,0.3"/>
													</g>
												</g>
											</g>
											<g id="g301">
												<g id="g303">
													<g id="g309">
														
															<linearGradient id="path319_00000080190117507645771830000004965586593629118387_" gradientUnits="userSpaceOnUse" x1="-5.4424" y1="-6.4128" x2="-4.4424" y2="-6.4128" gradientTransform="matrix(-9.998314e-07 -53.5501 -11.8643 1.000117e-06 -75.8855 -290.8761)">
															<stop  offset="0" style="stop-color:#D6D6D6"/>
															<stop  offset="0.9066" style="stop-color:#F9F9F9"/>
															<stop  offset="1" style="stop-color:#F9F9F9"/>
														</linearGradient>
														<path id="path319" style="fill:url(#path319_00000080190117507645771830000004965586593629118387_);" d="M0.2,0.1
															C0.2,0.1,0.2,0.1,0.2,0.1C0.2,0.2,0.2,0.2,0.2,0.1C0.2,0.3,0.2,0.4,0.2,0.5c0,0,0,0,0,0c0,0,0,0,0,0c0,0,0,0.1,0,0.1
															c0,0,0,0,0,0c0,0,0,0,0-0.1C0.1,0.4,0.1,0.3,0.2,0.1C0.2,0.1,0.2,0.1,0.2,0.1"/>
													</g>
												</g>
											</g>
											<g id="g321">
												<g>
													<defs>
														<path id="SVGID_00000028313339372434704260000000388761849946991236_" d="M0.4,0.7c0,0.1-0.1,0.2-0.1,0.2
															C0.1,1,0,1,0,0.8c0,0,0-0.1,0.1-0.1c0.1,0,0.1,0,0.2-0.1c0,0,0,0,0,0c0,0,0,0,0,0c0,0,0,0,0-0.1c0,0,0,0,0,0
															c0,0,0-0.1,0-0.1c0,0,0,0,0,0c0,0,0,0,0,0c0,0,0.1,0,0.1,0.1C0.4,0.5,0.4,0.6,0.4,0.7z"/>
													</defs>
													<clipPath id="SVGID_00000023263852045957462440000018105552234095923338_">
														<use xlink:href="#SVGID_00000028313339372434704260000000388761849946991236_"  style="overflow:visible;"/>
													</clipPath>
													<g id="g323" style="clip-path:url(#SVGID_00000023263852045957462440000018105552234095923338_);">
														<g id="g329">
															<g id="g335">
																
																	<linearGradient id="path347_00000129892469450803163910000003444178440517433021_" gradientUnits="userSpaceOnUse" x1="-5.4547" y1="-6.194" x2="-4.4547" y2="-6.194" gradientTransform="matrix(10.8637 -86.1488 -19.0867 -10.8668 -58.5501 -536.0595)">
																	<stop  offset="0" style="stop-color:#EDEDED"/>
																	<stop  offset="0.5969" style="stop-color:#D9D9D9"/>
																	<stop  offset="0.5969" style="stop-color:#D9D9D9"/>
																	<stop  offset="1" style="stop-color:#D9D9D9"/>
																</linearGradient>
																<path id="path347" style="fill:url(#path347_00000129892469450803163910000003444178440517433021_);" d="M0,1h1V0H0
																	V1z"/>
															</g>
														</g>
													</g>
												</g>
											</g>
											<g id="g349">
												<g id="g351">
													<g id="g357">
														
															<linearGradient id="path369_00000084529232780724885120000015251474286768615071_" gradientUnits="userSpaceOnUse" x1="-5.4525" y1="-6.2321" x2="-4.4524" y2="-6.2321" gradientTransform="matrix(6.4039 -77.1708 -17.0976 -6.4057 -71.493 -459.8488)">
															<stop  offset="0" style="stop-color:#F6F6F6"/>
															<stop  offset="0.6" style="stop-color:#F9F9F9"/>
															<stop  offset="0.6" style="stop-color:#F9F9F9"/>
															<stop  offset="1" style="stop-color:#F3F3F3"/>
														</linearGradient>
														<path id="path369" style="fill:url(#path369_00000084529232780724885120000015251474286768615071_);" d="M0.3,0.7
															c0,0.1-0.1,0.2-0.1,0.2C0.1,0.8,0,0.7,0,0.5c0-0.1,0-0.3,0.1-0.3c0,0.2,0,0.4,0.1,0.4c0,0,0,0,0,0c0,0,0,0,0,0
															c0,0,0,0,0,0c0,0,0,0,0-0.1c0,0,0,0,0,0c0,0,0,0,0-0.1c0,0,0,0.1,0,0.1C0.3,0.6,0.3,0.7,0.3,0.7"/>
													</g>
												</g>
											</g>
											<g id="g371">
												<g id="g373">
													<g id="g379">
														
															<linearGradient id="path387_00000007400743261886569850000013904146284317348535_" gradientUnits="userSpaceOnUse" x1="-5.6897" y1="-5.3677" x2="-4.6897" y2="-5.3677" gradientTransform="matrix(-9.998314e-07 43.3272 9.5994 1.000117e-06 51.8399 246.9245)">
															<stop  offset="0" style="stop-color:#EFEFEF"/>
															<stop  offset="1" style="stop-color:#FBFBFB"/>
														</linearGradient>
														<path id="path387" style="fill:url(#path387_00000007400743261886569850000013904146284317348535_);" d="M0.3,0.3
															c0,0,0.1,0,0.1,0.1c0,0.1,0,0.2,0,0.3c0,0,0,0.1,0,0.1c0,0,0-0.1,0-0.1c0-0.1,0-0.2,0-0.2c0,0,0,0,0,0c0,0,0,0,0,0
															C0.3,0.4,0.3,0.4,0.3,0.3C0.3,0.4,0.3,0.3,0.3,0.3L0.3,0.3"/>
													</g>
												</g>
											</g>
											<g id="g389">
												<g id="g391">
													<g id="g397">
														
															<linearGradient id="path405_00000162324285568358010430000015229593893867697304_" gradientUnits="userSpaceOnUse" x1="-5.3833" y1="-5.9662" x2="-4.3833" y2="-5.9662" gradientTransform="matrix(31.6187 -38.7888 -8.5939 -31.6277 119.0175 -396.6812)">
															<stop  offset="0" style="stop-color:#FAFAFA"/>
															<stop  offset="1" style="stop-color:#F9F9F9"/>
														</linearGradient>
														<path id="path405" style="fill:url(#path405_00000162324285568358010430000015229593893867697304_);" d="M0.3,0.5
															c0,0.1,0,0.2,0,0.2c0,0.1-0.1,0.2-0.1,0.2c-0.1,0-0.1,0-0.1-0.1c0,0,0,0,0.1,0c0.1,0,0.1,0,0.2-0.1
															C0.3,0.6,0.3,0.6,0.3,0.5L0.3,0.5C0.3,0.6,0.3,0.6,0.3,0.5C0.3,0.6,0.3,0.6,0.3,0.5C0.3,0.5,0.3,0.5,0.3,0.5
															C0.3,0.5,0.3,0.5,0.3,0.5C0.3,0.4,0.3,0.4,0.3,0.5C0.3,0.4,0.3,0.4,0.3,0.5"/>
													</g>
												</g>
											</g>
											<g id="g407">
												<g id="g409">
													<g id="g415">
														
															<linearGradient id="path423_00000175298623407077992220000009929222983895029382_" gradientUnits="userSpaceOnUse" x1="-5.9351" y1="-5.4209" x2="-4.9351" y2="-5.4209" gradientTransform="matrix(-6.9113 24.9905 5.5368 6.9133 -10.7113 185.9435)">
															<stop  offset="0" style="stop-color:#F2F2F2"/>
															<stop  offset="1" style="stop-color:#F9F9F9"/>
														</linearGradient>
														<path id="path423" style="fill:url(#path423_00000175298623407077992220000009929222983895029382_);" d="M0.4,0.3
															c0,0,0,0.1,0,0.1c0,0,0,0,0,0s0-0.1-0.1-0.1c0,0,0,0,0,0c0,0,0,0,0,0c0,0-0.1,0-0.1-0.1c0,0,0,0,0.1,0
															C0.3,0.1,0.4,0.3,0.4,0.3"/>
													</g>
												</g>
											</g>
											<g id="g425">
												<g id="g427">
													<g id="g433">
														
															<linearGradient id="path443_00000012440911644819311450000009558693661969784199_" gradientUnits="userSpaceOnUse" x1="-6.1654" y1="-5.1048" x2="-5.1654" y2="-5.1048" gradientTransform="matrix(-4.3125 15.594 3.4549 4.3138 -8.6339 118.4287)">
															<stop  offset="0" style="stop-color:#FEFEFE"/>
															<stop  offset="0.8" style="stop-color:#FDFDFD"/>
															<stop  offset="1" style="stop-color:#FDFDFD"/>
														</linearGradient>
														<path id="path443" style="fill:url(#path443_00000012440911644819311450000009558693661969784199_);" d="M0.3,0.4
															C0.3,0.4,0.3,0.3,0.3,0.4C0.3,0.3,0.3,0.3,0.3,0.4C0.3,0.3,0.3,0.3,0.3,0.4C0.2,0.3,0.2,0.3,0.2,0.3c0,0,0,0,0,0
															c0,0,0,0,0,0c0,0,0,0,0,0c0,0,0-0.1,0.1-0.1c0,0,0.1,0,0.1,0.1c0,0,0,0,0,0C0.4,0.4,0.4,0.4,0.3,0.4
															C0.4,0.4,0.3,0.4,0.3,0.4"/>
													</g>
												</g>
											</g>
											<g id="g445" transform="translate(91.669,141.163)">
												<path id="path447" class="st13" d="M-91.5-140.6c-0.1,0-0.1-0.2-0.1-0.4C-91.6-140.8-91.5-140.6-91.5-140.6
													C-91.4-140.6-91.4-140.6-91.5-140.6C-91.4-140.6-91.4-140.6-91.5-140.6C-91.4-140.6-91.4-140.6-91.5-140.6
													C-91.4-140.6-91.4-140.6-91.5-140.6C-91.4-140.5-91.4-140.5-91.5-140.6"/>
											</g>
											<g id="g449">
												<g id="g451">
													<g id="g457">
														
															<linearGradient id="path465_00000103241578115096358760000005835982776372637828_" gradientUnits="userSpaceOnUse" x1="-5.2868" y1="-5.6611" x2="-4.2868" y2="-5.6611" gradientTransform="matrix(20.8315 0 0 -20.8374 110.2494 -117.6975)">
															<stop  offset="0" style="stop-color:#F3F3F3"/>
															<stop  offset="1" style="stop-color:#F6F6F6"/>
														</linearGradient>
														<path id="path465" style="fill:url(#path465_00000103241578115096358760000005835982776372637828_);" d="M0.3,0.2
															c0,0.1,0,0.1-0.1,0.1c0,0,0,0,0,0c0,0-0.1,0-0.1-0.1c0,0,0,0,0.1,0C0.3,0.2,0.3,0.2,0.3,0.2"/>
													</g>
												</g>
											</g>
											<g id="g467" transform="translate(158.291,156.465)">
												<path id="path469" class="st13" d="M-158-155.8c0-0.1,0-0.1,0-0.2c0,0,0,0,0,0c0,0,0,0,0,0c0,0,0,0,0,0c0,0,0,0,0,0
													c0,0,0,0,0,0c0,0,0,0,0,0c0,0,0,0,0-0.1c0,0,0,0.1,0,0.1C-158-155.9-158-155.8-158-155.8"/>
											</g>
											<g id="g471" transform="translate(114.883,47.674)">
												<path id="path473" class="st15" d="M-114.7-47.5C-114.7-47.5-114.7-47.5-114.7-47.5c0,0.1,0,0.1-0.1,0.1
													c0,0,0,0-0.1-0.1C-114.8-47.4-114.7-47.4-114.7-47.5C-114.7-47.5-114.7-47.5-114.7-47.5"/>
											</g>
											<g id="g475" transform="translate(132.213,79.887)">
												<path id="path477" class="st16" d="M-131.9-79.5C-131.9-79.5-131.9-79.5-131.9-79.5C-131.9-79.5-131.9-79.5-131.9-79.5
													C-132-79.5-132-79.5-131.9-79.5C-132-79.5-132-79.5-131.9-79.5C-131.9-79.5-131.9-79.5-131.9-79.5"/>
											</g>
											<g id="g479" transform="translate(105.876,79.995)">
												<path id="path481" class="st16" d="M-105.7-79.7C-105.7-79.7-105.7-79.7-105.7-79.7C-105.7-79.7-105.7-79.7-105.7-79.7
													L-105.7-79.7"/>
											</g>
											<g id="g483" transform="translate(105.876,79.995)">
												<path id="path485" class="st16" d="M-105.7-79.7C-105.7-79.7-105.7-79.7-105.7-79.7C-105.7-79.7-105.7-79.7-105.7-79.7
													L-105.7-79.7"/>
											</g>
											<g id="g487" transform="translate(111.271,80.26)">
												<path id="path489" class="st16" d="M-111-79.9C-111-79.9-111-79.9-111-79.9C-111-79.9-111-79.9-111-79.9
													C-111-79.9-111-79.9-111-79.9"/>
											</g>
											<g id="g491" transform="translate(111.271,80.26)">
												<path id="path493" class="st16" d="M-111-79.9C-111-79.9-111-79.9-111-79.9C-111-79.9-111-79.9-111-79.9
													C-111-79.9-111-79.9-111-79.9"/>
											</g>
											<g id="g495" transform="translate(111.271,80.26)">
												<path id="path497" class="st17" d="M-111-79.9C-111-79.9-111-79.9-111-79.9C-111.1-79.9-111.1-79.9-111-79.9
													C-111.1-79.9-111.1-79.9-111-79.9C-111-80-111-80-111-79.9C-111-80-111-80-111-79.9C-111-79.9-111-79.9-111-79.9
													C-111-79.9-111-79.9-111-79.9"/>
											</g>
										</g>
									</g>
								</g>
							</g>
						</g>
					</g>
				</g>
			</g>
		</g>
	</g>
</g>
</svg>
