<?xml version="1.0" encoding="UTF-8"?>
<svg id="Layer_1" xmlns="http://www.w3.org/2000/svg" version="1.1" viewBox="0 0 269.6 77.7">
  <!-- Generator: Adobe Illustrator 29.5.1, SVG Export Plug-In . SVG Version: 2.1.0 Build 141)  -->
  <defs>
    <style>
      .st0 {
        fill: #fff;
      }
    </style>
  </defs>
  <g id="layer1">
    <path id="path12" class="st0" d="M245.2,16.2c1.8,2.4,4.7,0,8-2.6,3.1-2.6,5.5-4.9,3.5-6.9s-5.5,1.1-7.3,2.6c-2.9,2.4-5.8,4.6-4.2,6.9M239.3,11.3c0,3.5,2.9,8.9,11.8,8.9s12-4.4,12-8.9-5.8-8.2-12-8.2-11.8,4.7-11.8,8.2M268.5,11.3c0,7.8-9.7,11.8-17.5,11.8s-17.1-3.6-17.1-11.8,7.8-11.3,17.1-11.3,17.5,4.9,17.5,11.3"/>
    <path id="path14" class="st0" d="M58.9,7.8c1.5,0,4.2.2,4.6,2.9h-2.2c0-.7-.7-1.5-2.4-1.5s-2.2.4-2.2,1.3c0,2.2,6.7,0,6.7,4s-2.4,2.9-4.4,2.9c-3.3,0-4.6-1.3-4.6-3.3h2c0,1.3,1.1,1.8,2.6,1.8s2.2-.4,2.2-1.3c0-2.2-6.7-.4-6.7-4,.4-2,2.2-2.9,4.4-2.9"/>
    <polygon id="polygon16" class="st0" points="72.7 13.1 66.9 13.1 66.9 17.3 65.1 17.3 65.1 8.2 66.9 8.2 66.9 11.7 72.7 11.7 72.7 8.2 74.6 8.2 74.6 17.3 72.7 17.3 72.7 13.1"/>
    <rect id="rect18" class="st0" x="76.6" y="8.2" width="2" height="9.1"/>
    <polygon id="polygon20" class="st0" points="90.6 9.7 87.3 17.3 85.7 17.3 82.2 9.7 82.2 9.7 82.2 17.3 80.6 17.3 80.6 8.2 83.3 8.2 86.4 15.3 89.7 8.2 92.4 8.2 92.4 17.3 90.6 17.3 90.6 9.7"/>
    <rect id="rect22" class="st0" x="94.4" y="8.2" width="2" height="9.1"/>
    <polygon id="polygon24" class="st0" points="106.5 17.3 97.5 17.3 97.5 15.9 103.9 9.5 98.1 9.5 98.1 8.2 106.5 8.2 106.5 9.5 100.1 15.9 106.5 15.9 106.5 17.3"/>
    <path id="path26" class="st0" d="M107.6,8.2h2v5.1c0,1.3,0,2.7,2.6,2.7s2.6-1.5,2.6-2.7v-5.1h2v5.3c0,1.5,0,4.2-4.6,4.2s-4.6-2.7-4.6-4.2v-5.3Z"/>
    <path id="path28" class="st0" d="M129.8,11.5c-.2-1.5-1.3-2.2-2.9-2.2s-3.1,1.1-3.1,3.6,1.3,3.3,3.3,3.3,2.7-1.3,2.7-2.4h2c-.2,1.8-1.5,3.8-5.3,3.8s-4.9-2.2-4.9-4.7,1.5-4.7,5.1-4.7,4.7,1.6,4.9,3.6h-1.8v-.4Z"/>
    <path id="path30" class="st0" d="M141.3,12.8c0-2-1.3-3.5-3.5-3.5s-3.5,1.5-3.5,3.5,1.3,3.5,3.5,3.5c2.4-.2,3.5-1.5,3.5-3.5M132.5,12.8c0-2.6,1.5-4.7,5.5-4.7s5.5,2.2,5.5,4.7-1.5,4.7-5.5,4.7-5.5-2.2-5.5-4.7"/>
    <path id="path32" class="st0" d="M149.5,12.2c1.1,0,1.6-.4,1.6-1.3s-.5-1.3-1.6-1.3h-3.3v2.6h3.3ZM144.2,8.2h5.8c2.4,0,3.1,1.1,3.1,2.6s-.7,2-1.5,2.2h0c1.1.2,1.3,1.1,1.3,2.6s0,1.5.4,2h-2c-.2-.2-.2-.7-.2-1.5,0-1.3-.2-2.2-1.6-2.2h-3.3v3.6h-2v-9.3Z"/>
    <path id="path34" class="st0" d="M156.2,12.4h3.1c1.1,0,1.6-.4,1.6-1.5s-.7-1.5-1.5-1.5h-3.3v2.9ZM154.4,8.2h5.7c2.2,0,2.9,1.5,2.9,2.9s-.9,2.7-2.9,2.7h-3.8v3.5h-2v-9.1h.2Z"/>
    <path id="path36" class="st0" d="M172.4,12.8c0-2-1.3-3.5-3.5-3.5s-3.5,1.5-3.5,3.5,1.3,3.5,3.5,3.5c2.2-.2,3.5-1.5,3.5-3.5M163.7,12.8c0-2.6,1.5-4.7,5.5-4.7s5.3,2.2,5.3,4.7-1.5,4.7-5.3,4.7-5.5-2.2-5.5-4.7"/>
    <path id="path38" class="st0" d="M180.5,12.2c1.1,0,1.6-.4,1.6-1.3s-.5-1.3-1.6-1.3h-3.3v2.6h3.3ZM175.4,8.2h5.8c2.4,0,3.1,1.1,3.1,2.6s-.7,2-1.5,2.2h0c1.1.2,1.3,1.1,1.3,2.6s0,1.5.4,2h-2c-.2-.2-.2-.7-.2-1.5,0-1.3-.2-2.2-1.6-2.2h-3.3v3.6h-2v-9.3Z"/>
    <path id="path40" class="st0" d="M191.8,13.5l-1.6-3.8-1.6,3.8h3.3ZM189.2,8.2h2.4l4,9.1h-2.2l-.9-2.2h-4.4l-.9,2.2h-2l4-9.1Z"/>
    <polygon id="polygon42" class="st0" points="198.5 9.5 195.1 9.5 195.1 8.2 203.8 8.2 203.8 9.5 200.3 9.5 200.3 17.3 198.5 17.3 198.5 9.5"/>
    <rect id="rect44" class="st0" x="204.7" y="8.2" width="2" height="9.1"/>
    <path id="path46" class="st0" d="M216.7,12.8c0-2-1.3-3.5-3.5-3.5s-3.5,1.5-3.5,3.5,1.3,3.5,3.5,3.5c2.2-.2,3.5-1.5,3.5-3.5M208,12.8c0-2.6,1.5-4.7,5.5-4.7s5.5,2.2,5.5,4.7-1.5,4.7-5.5,4.7-5.5-2.2-5.5-4.7"/>
    <polygon id="polygon48" class="st0" points="221.7 10.4 221.7 10.4 221.7 17.3 219.8 17.3 219.8 8.2 222 8.2 227.5 14.9 227.5 8.2 229.3 8.2 229.3 17.3 227.1 17.3 221.7 10.4"/>
    <polygon id="polygon50" class="st0" points="184.8 42.5 184.8 77.7 203.8 77.7 203.8 26.8 130.7 26.8 130.7 77.7 149.7 77.7 149.7 42.5 157.7 42.5 157.7 77.7 176.6 77.7 176.6 42.5 184.8 42.5"/>
    <rect id="rect52" class="st0" x="103" y="26.8" width="21.1" height="13.5"/>
    <polygon id="polygon54" class="st0" points="123 77.7 123 44.7 83.5 44.7 83.5 26.8 64.3 26.8 64.3 77.7 83.5 77.7 83.5 58.7 103.9 58.7 103.9 77.7 123 77.7"/>
    <path id="path56" class="st0" d="M52.5,53.6l-28.1-12.4c-.9-.4-.7-1.5.2-1.5h33.7v-12.9H16c-7.5,0-14.9.4-14.9,6.7v6.7c0,6.2,5.8,8.2,8.7,9.8l26.6,12.2c1.3.5,1.3,2.4-.2,2.4H0v12.9h43.7c10.4,0,15.7-1.8,15.7-8.4v-6.7c-.2-4.6-3.3-7.1-6.9-8.9"/>
    <polygon id="polygon58" class="st0" points="209.3 77.7 269.6 77.7 269.6 64.7 236.1 64.7 268.9 37.9 268.9 26.8 209.5 26.8 209.5 39.7 239.7 39.7 209.3 64.7 209.3 77.7"/>
  </g>
</svg>