<?xml version="1.0" encoding="UTF-8"?>
<svg id="Layer_1" xmlns="http://www.w3.org/2000/svg" version="1.1" viewBox="0 0 270.8 99.3">
  <!-- Generator: Adobe Illustrator 29.5.1, SVG Export Plug-In . SVG Version: 2.1.0 Build 141)  -->
  <defs>
    <style>
      .st0 {
        fill: #fff;
      }
    </style>
  </defs>
  <g id="Group_82">
    <rect id="Rectangle_63" class="st0" x="50.2" y="27.3" width="1.9" height="37.6"/>
    <rect id="Rectangle_64" class="st0" x="28.9" y="43.5" width="37.2" height="1.9"/>
    <rect id="Rectangle_65" class="st0" x="29.2" y="48.3" width="38.4" height="1.9" transform="translate(-18.5 66.6) rotate(-60)"/>
    <rect id="Rectangle_66" class="st0" x="48.3" y="28.5" width="1.9" height="29.8" transform="translate(-12.9 64.3) rotate(-60)"/>
    <rect id="Rectangle_67" class="st0" x="36.6" y="44.9" width="24.4" height="1.9" transform="translate(-16.4 30.5) rotate(-30)"/>
    <rect id="Rectangle_68" class="st0" x="47.1" y="20" width="1.9" height="37.9" transform="translate(-13.1 29.2) rotate(-30)"/>
    <rect id="Rectangle_69" class="st0" x="15.3" y="84.5" width="21.2" height="7.5" transform="translate(-63.5 66.5) rotate(-60)"/>
    <rect id="Rectangle_70" class="st0" x="47.4" y="70.7" width="7.5" height="14.6"/>
    <rect id="Rectangle_71" class="st0" x=".7" y="64.7" width="17.9" height="7.5" transform="translate(-32.9 14) rotate(-30)"/>
    <rect id="Rectangle_72" class="st0" x="58.4" y="59.2" width="7.5" height="8.6" transform="translate(-23.4 39.6) rotate(-30)"/>
    <rect id="Rectangle_73" class="st0" x="8.2" y="40.7" width="13.4" height="7.5"/>
    <rect id="Rectangle_74" class="st0" x="11.7" y="17.8" width="7.5" height="12.2" transform="translate(-12.9 25.4) rotate(-60)"/>
    <rect id="Rectangle_75" class="st0" x="26.1" y="1" width="7.5" height="13.1" transform="translate(.2 15.9) rotate(-30)"/>
    <rect id="Rectangle_76" class="st0" x="49.6" y="20.8" width="3.1" height="6.5"/>
    <rect id="Rectangle_77" class="st0" x="66.1" y="42.9" width="7.1" height="3.1"/>
    <rect id="Rectangle_78" class="st0" x="55.9" y="27.5" width="8.3" height="3.1" transform="translate(4.9 66.6) rotate(-60)"/>
    <rect id="Rectangle_79" class="st0" x="65.6" y="48" width="3.1" height="11.4" transform="translate(-12.9 85) rotate(-60)"/>
    <rect id="Rectangle_80" class="st0" x="59" y="36.8" width="5.8" height="3.1" transform="translate(-10.9 36.1) rotate(-30)"/>
    <rect id="Rectangle_81" class="st0" x="27.4" y="69.7" width="15.2" height="5.6" transform="translate(-45.3 66.6) rotate(-60)"/>
    <rect id="Rectangle_82" class="st0" x="48.4" y="65" width="5.6" height="5.7"/>
    <rect id="Rectangle_83" class="st0" x="15.7" y="55.2" width="24.1" height="5.6" transform="translate(-25.3 21.7) rotate(-30)"/>
    <rect id="Rectangle_84" class="st0" x="55.9" y="55.1" width="5.6" height="5.1" transform="translate(-20.9 37.1) rotate(-30)"/>
    <rect id="Rectangle_85" class="st0" x="21.6" y="41.7" width="7.3" height="5.6"/>
    <rect id="Rectangle_86" class="st0" x="25.7" y="22.5" width="5.6" height="17.9" transform="translate(-12.9 40.4) rotate(-60)"/>
    <rect id="Rectangle_87" class="st0" x="33" y="12.5" width="5.6" height="10.8" transform="translate(-4.1 20.3) rotate(-30)"/>
    <path id="Path_27" class="st0" d="M110.1,27.5v.6h-4.5v-.6c0-2.8-1.7-3.9-4.5-3.9s-4.1,1.1-4.1,2.9,1.3,2.7,4.3,3.3l.8.2c5.2,1.1,8.5,2.9,8.5,7.4s-3.6,7.5-9.2,7.5-9.6-3.1-9.6-8.4v-.4h4.5v.3c0,2.9,1.9,4.4,5.1,4.4s4.7-1.4,4.7-3.3-1.6-2.7-4.8-3.4l-.8-.2c-5.1-1.1-8-2.8-8-7.3s3.4-7.1,8.6-7.1,9,2.7,9,8"/>
    <path id="Path_28" class="st0" d="M117.8,44.5h-4.4v-17.3h4.4v17.3ZM115.6,19.1c1.7,0,3,1.4,2.9,3.1s-1.4,3-3.1,2.9c-1.6,0-2.9-1.4-2.9-3,0-1.6,1.3-3,2.9-3,0,0,.1,0,.2,0"/>
    <path id="Path_29" class="st0" d="M126.1,27.1v2.2h.3c.7-1.3,2-2.4,4.5-2.4,2-.2,3.9.9,4.7,2.7h.3c1-1.8,2.9-2.9,5-2.7,3.2,0,5.8,2,5.8,6.2v11.4h-4.4v-11.2c.2-1.4-.8-2.7-2.2-2.9-.2,0-.4,0-.6,0-2,0-3.1,1.3-3.1,3.7v10.3h-4.4v-11.2c.2-1.4-.8-2.7-2.2-2.9-.2,0-.4,0-.6,0-2,0-3.1,1.3-3.1,3.7v10.3h-4.4v-17.3h4.3Z"/>
    <path id="Path_30" class="st0" d="M164.3,35.8c0-3.4-2-5.4-4.7-5.4s-4.7,2-4.7,5.4,2,5.4,4.7,5.4,4.7-2,4.7-5.4M150.5,27.1h4.3v2.3h.3c1.3-1.9,3.5-3,5.7-2.8,4.1,0,7.8,3.5,7.8,9.1s-3.7,9.1-7.8,9.1c-2.2.1-4.4-.9-5.7-2.7h-.3v9.2h-4.4v-24.3Z"/>
    <rect id="Rectangle_88" class="st0" x="171.6" y="20" width="4.4" height="24.4"/>
    <path id="Path_31" class="st0" d="M197,27.1l-9.5,24.3h-4.7l2.4-5.9-7.2-18.4h4.7l4.6,12.5h.3l4.6-12.5h4.7Z"/>
    <path id="Path_32" class="st0" d="M208.9,40.3h6c2,0,3.3-1.1,3.3-3s-1.3-3-3.3-3h-6v6ZM208.9,30.1h5.9c2,0,3.3-1.1,3.3-2.9s-1.3-2.9-3.3-2.9h-5.9v5.9ZM215.4,20c4.3,0,7.2,2.5,7.2,6.5.2,2.5-1.5,4.8-4,5.4v.3c2.5.6,4.3,2.9,4.1,5.5,0,4.1-3,6.6-7.2,6.6h-11.2v-24.4h11Z"/>
    <rect id="Rectangle_89" class="st0" x="225.7" y="20" width="4.4" height="24.4"/>
    <path id="Path_33" class="st0" d="M246.5,44.5v-2.6h-.3c-.7,1.5-2.2,2.9-5.3,2.9s-6.7-3-6.7-7.3v-10.3h4.4v10.1c0,2.6,1.3,3.9,3.7,3.9s4.3-1.9,4.3-5.1v-8.9h4.4v17.3h-4.3Z"/>
    <path id="Path_34" class="st0" d="M266.3,33.8c-.2-2-2-3.5-4-3.4-2.1-.1-3.9,1.3-4.1,3.4h8.1ZM262.4,26.7c5.1,0,8.4,3.6,8.4,8.9v1.5h-12.6c0,2.3,2,4.2,4.4,4.1,0,0,0,0,0,0,1.8.1,3.4-1,4-2.7l3.6,1.9c-1.4,2.9-4.5,4.7-7.8,4.5-5.2,0-8.8-3.6-8.8-9.1s3.6-9.1,8.7-9.1"/>
    <path id="Path_35" class="st0" d="M92.9,64.7c0-5.6,3.1-8.9,8.1-8.9s7.3,2.9,7.3,7.4v.2h-1.6v-.2c0-3.7-1.9-5.9-5.6-5.9s-6.5,2.7-6.5,7.4v4.1c0,4.7,2.3,7.4,6.4,7.4s5.8-2.2,5.8-6v-1.1h-7v-1.4h8.6v2.6c0,4.6-2.9,7.4-7.4,7.4s-8-3.3-8-8.9v-4.1Z"/>
    <path id="Path_36" class="st0" d="M114.3,64.6h.3c.6-1.3,1.7-1.9,3.7-1.9h2.2v1.4h-2.4c-2.3,0-3.7,1.3-3.7,4v9.2h-1.5v-14.5h1.4v1.8Z"/>
    <path id="Path_37" class="st0" d="M129.1,76.3c3.5,0,5.8-2.6,5.8-6.3s-2.3-6.3-5.8-6.3-5.8,2.7-5.8,6.3,2.3,6.3,5.8,6.3M129.1,62.3c4.4,0,7.3,3.2,7.3,7.7s-2.9,7.7-7.3,7.7-7.3-3.2-7.3-7.7,2.9-7.7,7.3-7.7"/>
    <path id="Path_38" class="st0" d="M151.8,77.3v-2.6h-.3c-.8,1.4-2.3,2.9-5.5,2.9-3,.2-5.7-2.2-5.8-5.2,0-.2,0-.5,0-.7v-8.9h1.5v8.8c0,3.3,1.8,4.7,4.6,4.7s5.5-2,5.5-6.2v-7.3h1.5v14.5h-1.4Z"/>
    <path id="Path_39" class="st0" d="M171.3,70c0-3.9-2.3-6.3-5.7-6.3s-5.9,2.5-5.9,6.3,2.4,6.3,5.9,6.3,5.7-2.4,5.7-6.3M158.2,62.7h1.4v2.8h.3c1.1-2.1,3.5-3.4,5.9-3.2,4,0,7,3,7,7.7s-3,7.7-7,7.7-5-1.6-5.8-3.2h-.3v8.7h-1.5v-20.5Z"/>
  </g>
</svg>