<?xml version="1.0" encoding="UTF-8"?>
<svg id="Layer_1" xmlns="http://www.w3.org/2000/svg" version="1.1" viewBox="0 0 480.3 133.6">
  <!-- Generator: Adobe Illustrator 29.5.1, SVG Export Plug-In . SVG Version: 2.1.0 Build 141)  -->
  <defs>
    <style>
      .st0 {
        fill: #fff;
      }
    </style>
  </defs>
  <path class="st0" d="M305.5,9.1c-3.9-6-12-7.7-18-3.8s-7.7,12-3.8,18c3.4,5.2,9.9,7.3,15.7,5,1.2,1.9,10.8,17,12.1,18.8,1.3-1.1,2.7-2,4.3-2.7-2.4-3.8-10.8-17-12.1-18.9,4.4-4.2,5.2-11.1,1.8-16.4ZM290.3,9.5c3.7-2.4,8.6-1.3,11,2.4s1.3,8.6-2.4,11c-3.7,2.4-8.6,1.3-11-2.4s-1.3-8.6,2.4-11Z"/>
  <path class="st0" d="M305.5,9.1c-3.9-6-12-7.7-18-3.8s-7.7,12-3.8,18c3.4,5.2,9.9,7.3,15.7,5,1.2,1.9,10.8,17,12.1,18.8,1.3-1.1,2.7-2,4.3-2.7-2.4-3.8-10.8-17-12.1-18.9,4.4-4.2,5.2-11.1,1.8-16.4ZM290.3,9.5c3.7-2.4,8.6-1.3,11,2.4s1.3,8.6-2.4,11c-3.7,2.4-8.6,1.3-11-2.4s-1.3-8.6,2.4-11Z"/>
  <path class="st0" d="M305.5,9.1c-3.9-6-12-7.7-18-3.8s-7.7,12-3.8,18c3.4,5.2,9.9,7.3,15.7,5,1.2,1.9,10.8,17,12.1,18.8,1.3-1.1,2.7-2,4.3-2.7-2.4-3.8-10.8-17-12.1-18.9,4.4-4.2,5.2-11.1,1.8-16.4ZM290.3,9.5c3.7-2.4,8.6-1.3,11,2.4s1.3,8.6-2.4,11c-3.7,2.4-8.6,1.3-11-2.4s-1.3-8.6,2.4-11Z"/>
  <path class="st0" d="M305.5,9.1c-3.9-6-12-7.7-18-3.8s-7.7,12-3.8,18c3.4,5.2,9.9,7.3,15.7,5,1.2,1.9,10.8,17,12.1,18.8,1.3-1.1,2.7-2,4.3-2.7-2.4-3.8-10.8-17-12.1-18.9,4.4-4.2,5.2-11.1,1.8-16.4ZM290.3,9.5c3.7-2.4,8.6-1.3,11,2.4s1.3,8.6-2.4,11c-3.7,2.4-8.6,1.3-11-2.4s-1.3-8.6,2.4-11Z"/>
  <path class="st0" d="M340.4,17.3c-2.1,3.6-1.6,8.2,1.3,11.3-1,1.6-9.1,14.3-10.2,15.9,1.5.7,3,1.6,4.3,2.7,1-1.6,9.2-14.4,10.2-16,.9.2,1.7.4,2.6.4,3.4,0,6.5-1.8,8.2-4.7,1.3-2.2,1.6-4.7,1-7.2-.6-2.4-2.2-4.5-4.4-5.8-4.6-2.6-10.4-1.1-13,3.4ZM346.3,26c-2.1-1.2-2.8-3.9-1.6-6.1,1.2-2.1,4-2.8,6.1-1.6,1,.6,1.8,1.6,2,2.7.3,1.1.1,2.3-.5,3.3-1.2,2.2-3.9,2.9-6,1.7Z"/>
  <path class="st0" d="M340.4,17.3c-2.1,3.6-1.6,8.2,1.3,11.3-1,1.6-9.1,14.3-10.2,15.9,1.5.7,3,1.6,4.3,2.7,1-1.6,9.2-14.4,10.2-16,.9.2,1.7.4,2.6.4,3.4,0,6.5-1.8,8.2-4.7,1.3-2.2,1.6-4.7,1-7.2-.6-2.4-2.2-4.5-4.4-5.8-4.6-2.6-10.4-1.1-13,3.4ZM346.3,26c-2.1-1.2-2.8-3.9-1.6-6.1,1.2-2.1,4-2.8,6.1-1.6,1,.6,1.8,1.6,2,2.7.3,1.1.1,2.3-.5,3.3-1.2,2.2-3.9,2.9-6,1.7Z"/>
  <path class="st0" d="M340.4,17.3c-2.1,3.6-1.6,8.2,1.3,11.3-1,1.6-9.1,14.3-10.2,15.9,1.5.7,3,1.6,4.3,2.7,1-1.6,9.2-14.4,10.2-16,.9.2,1.7.4,2.6.4,3.4,0,6.5-1.8,8.2-4.7,1.3-2.2,1.6-4.7,1-7.2-.6-2.4-2.2-4.5-4.4-5.8-4.6-2.6-10.4-1.1-13,3.4ZM346.3,26c-2.1-1.2-2.8-3.9-1.6-6.1,1.2-2.1,4-2.8,6.1-1.6,1,.6,1.8,1.6,2,2.7.3,1.1.1,2.3-.5,3.3-1.2,2.2-3.9,2.9-6,1.7Z"/>
  <path class="st0" d="M340.4,17.3c-2.1,3.6-1.6,8.2,1.3,11.3-1,1.6-9.1,14.3-10.2,15.9,1.5.7,3,1.6,4.3,2.7,1-1.6,9.2-14.4,10.2-16,.9.2,1.7.4,2.6.4,3.4,0,6.5-1.8,8.2-4.7,1.3-2.2,1.6-4.7,1-7.2-.6-2.4-2.2-4.5-4.4-5.8-4.6-2.6-10.4-1.1-13,3.4ZM346.3,26c-2.1-1.2-2.8-3.9-1.6-6.1,1.2-2.1,4-2.8,6.1-1.6,1,.6,1.8,1.6,2,2.7.3,1.1.1,2.3-.5,3.3-1.2,2.2-3.9,2.9-6,1.7Z"/>
  <path class="st0" d="M335.8,75.6c-1.3,1.1-2.7,2-4.2,2.8,1.5,2.3,13.3,20.6,14.8,22.9-6.3,5.7-7.2,15.1-2.2,21.9,5.4,7.3,15.7,8.9,23,3.5s8.9-15.7,3.5-23c-4.6-6.3-13-8.5-20.1-5.3-1.5-2.2-13.3-20.5-14.8-22.8h0ZM348.2,120.2c-3.7-5.1-2.6-12.2,2.5-15.9,5-3.8,12.1-2.9,16,2.1,3.8,5,2.9,12.1-2.1,16-.1.1-.3.2-.4.3-5.1,3.7-12.3,2.6-16-2.5Z"/>
  <path class="st0" d="M335.8,75.6c-1.3,1.1-2.7,2-4.2,2.8,1.5,2.3,13.3,20.6,14.8,22.9-6.3,5.7-7.2,15.1-2.2,21.9,5.4,7.3,15.7,8.9,23,3.5s8.9-15.7,3.5-23c-4.6-6.3-13-8.5-20.1-5.3-1.5-2.2-13.3-20.5-14.8-22.8h0ZM348.2,120.2c-3.7-5.1-2.6-12.2,2.5-15.9,5-3.8,12.1-2.9,16,2.1,3.8,5,2.9,12.1-2.1,16-.1.1-.3.2-.4.3-5.1,3.7-12.3,2.6-16-2.5Z"/>
  <path class="st0" d="M335.8,75.6c-1.3,1.1-2.7,2-4.2,2.8,1.5,2.3,13.3,20.6,14.8,22.9-6.3,5.7-7.2,15.1-2.2,21.9,5.4,7.3,15.7,8.9,23,3.5s8.9-15.7,3.5-23c-4.6-6.3-13-8.5-20.1-5.3-1.5-2.2-13.3-20.5-14.8-22.8h0ZM348.2,120.2c-3.7-5.1-2.6-12.2,2.5-15.9,5-3.8,12.1-2.9,16,2.1,3.8,5,2.9,12.1-2.1,16-.1.1-.3.2-.4.3-5.1,3.7-12.3,2.6-16-2.5Z"/>
  <path class="st0" d="M335.8,75.6c-1.3,1.1-2.7,2-4.2,2.8,1.5,2.3,13.3,20.6,14.8,22.9-6.3,5.7-7.2,15.1-2.2,21.9,5.4,7.3,15.7,8.9,23,3.5s8.9-15.7,3.5-23c-4.6-6.3-13-8.5-20.1-5.3-1.5-2.2-13.3-20.5-14.8-22.8h0ZM348.2,120.2c-3.7-5.1-2.6-12.2,2.5-15.9,5-3.8,12.1-2.9,16,2.1,3.8,5,2.9,12.1-2.1,16-.1.1-.3.2-.4.3-5.1,3.7-12.3,2.6-16-2.5Z"/>
  <path class="st0" d="M311.4,75.7c-1.2,1.8-10.5,16.2-11.7,18-6-2.2-12.8.8-15,6.9-1.9,5-.1,10.7,4.4,13.7,5.3,3.6,12.6,2.2,16.2-3.1,3.1-4.6,2.6-10.7-1.3-14.7,2.3-3.6,9.4-14.5,11.7-18.1-1.5-.7-3-1.6-4.3-2.7h0ZM290.2,101c1-1.4,2.5-2.4,4.2-2.8,1.7-.3,3.5,0,5,1,3,2,3.8,6.1,1.8,9.2-2,3-6.1,3.8-9.2,1.8s-3.9-6.2-1.8-9.2Z"/>
  <path class="st0" d="M311.4,75.7c-1.2,1.8-10.5,16.2-11.7,18-6-2.2-12.8.8-15,6.9-1.9,5-.1,10.7,4.4,13.7,5.3,3.6,12.6,2.2,16.2-3.1,3.1-4.6,2.6-10.7-1.3-14.7,2.3-3.6,9.4-14.5,11.7-18.1-1.5-.7-3-1.6-4.3-2.7h0ZM290.2,101c1-1.4,2.5-2.4,4.2-2.8,1.7-.3,3.5,0,5,1,3,2,3.8,6.1,1.8,9.2-2,3-6.1,3.8-9.2,1.8s-3.9-6.2-1.8-9.2Z"/>
  <path class="st0" d="M311.4,75.7c-1.2,1.8-10.5,16.2-11.7,18-6-2.2-12.8.8-15,6.9-1.9,5-.1,10.7,4.4,13.7,5.3,3.6,12.6,2.2,16.2-3.1,3.1-4.6,2.6-10.7-1.3-14.7,2.3-3.6,9.4-14.5,11.7-18.1-1.5-.7-3-1.6-4.3-2.7h0ZM290.2,101c1-1.4,2.5-2.4,4.2-2.8,1.7-.3,3.5,0,5,1,3,2,3.8,6.1,1.8,9.2-2,3-6.1,3.8-9.2,1.8s-3.9-6.2-1.8-9.2Z"/>
  <path class="st0" d="M311.4,75.7c-1.2,1.8-10.5,16.2-11.7,18-6-2.2-12.8.8-15,6.9-1.9,5-.1,10.7,4.4,13.7,5.3,3.6,12.6,2.2,16.2-3.1,3.1-4.6,2.6-10.7-1.3-14.7,2.3-3.6,9.4-14.5,11.7-18.1-1.5-.7-3-1.6-4.3-2.7h0ZM290.2,101c1-1.4,2.5-2.4,4.2-2.8,1.7-.3,3.5,0,5,1,3,2,3.8,6.1,1.8,9.2-2,3-6.1,3.8-9.2,1.8s-3.9-6.2-1.8-9.2Z"/>
  <path class="st0" d="M361.6,58.2h-13.1c-1.8-13.8-14.4-23.5-28.2-21.7-13.8,1.8-23.5,14.4-21.7,28.2s14.4,23.5,28.2,21.7c11.3-1.5,20.2-10.4,21.7-21.7h13.1v23.1h12.9c7.2,0,13.1-.7,18.7-4,8.7-5,13.2-12.8,13.2-22.7,0-16-11.4-26.6-31.9-26.6h-12.9v23.7h0ZM323.5,45c9.1,0,16.5,7.4,16.5,16.5s-7.4,16.5-16.5,16.5-16.5-7.4-16.5-16.5c.1-9.1,7.4-16.5,16.5-16.5ZM370.8,43h4.8c13.6,0,21.1,7.1,21.1,18.1s-7.5,18.1-21.1,18.1h-4.8v-36.2Z"/>
  <path class="st0" d="M361.6,58.2h-13.1c-1.8-13.8-14.4-23.5-28.2-21.7-13.8,1.8-23.5,14.4-21.7,28.2s14.4,23.5,28.2,21.7c11.3-1.5,20.2-10.4,21.7-21.7h13.1v23.1h12.9c7.2,0,13.1-.7,18.7-4,8.7-5,13.2-12.8,13.2-22.7,0-16-11.4-26.6-31.9-26.6h-12.9v23.7h0ZM323.5,45c9.1,0,16.5,7.4,16.5,16.5s-7.4,16.5-16.5,16.5-16.5-7.4-16.5-16.5c.1-9.1,7.4-16.5,16.5-16.5ZM370.8,43h4.8c13.6,0,21.1,7.1,21.1,18.1s-7.5,18.1-21.1,18.1h-4.8v-36.2Z"/>
  <path class="st0" d="M361.6,58.2h-13.1c-1.8-13.8-14.4-23.5-28.2-21.7-13.8,1.8-23.5,14.4-21.7,28.2s14.4,23.5,28.2,21.7c11.3-1.5,20.2-10.4,21.7-21.7h13.1v23.1h12.9c7.2,0,13.1-.7,18.7-4,8.7-5,13.2-12.8,13.2-22.7,0-16-11.4-26.6-31.9-26.6h-12.9v23.7h0ZM323.5,45c9.1,0,16.5,7.4,16.5,16.5s-7.4,16.5-16.5,16.5-16.5-7.4-16.5-16.5c.1-9.1,7.4-16.5,16.5-16.5ZM370.8,43h4.8c13.6,0,21.1,7.1,21.1,18.1s-7.5,18.1-21.1,18.1h-4.8v-36.2Z"/>
  <path class="st0" d="M361.6,58.2h-13.1c-1.8-13.8-14.4-23.5-28.2-21.7-13.8,1.8-23.5,14.4-21.7,28.2s14.4,23.5,28.2,21.7c11.3-1.5,20.2-10.4,21.7-21.7h13.1v23.1h12.9c7.2,0,13.1-.7,18.7-4,8.7-5,13.2-12.8,13.2-22.7,0-16-11.4-26.6-31.9-26.6h-12.9v23.7h0ZM323.5,45c9.1,0,16.5,7.4,16.5,16.5s-7.4,16.5-16.5,16.5-16.5-7.4-16.5-16.5c.1-9.1,7.4-16.5,16.5-16.5ZM370.8,43h4.8c13.6,0,21.1,7.1,21.1,18.1s-7.5,18.1-21.1,18.1h-4.8v-36.2Z"/>
  <path class="st0" d="M19,64.3c-.4-.2-3.6-2.2-4-2.4-7.4-4.4-11.2-8.5-11.2-15s6.4-14.1,16.2-14.1,9.3,1.1,13.4,3.2c0,.9-.3,7.6-.3,8.5-5-2.7-9-4.2-12.4-4.2-5,0-7.9,2.5-7.9,6.1s2.4,5.4,7.3,8.3c.4.2,3.5,2,3.8,2.3,8.1,4.8,12.3,9.5,12.3,16.9s-6.9,15.9-18.4,15.9-9.9-1.1-14.4-3.2c0-1-.7-9.4-.8-10.5,5.5,3.5,10.2,5.4,14.7,5.4s9.4-3.2,9.4-7.5c0-4-2.4-6.6-7.7-9.7h0Z"/>
  <path class="st0" d="M19,64.3c-.4-.2-3.6-2.2-4-2.4-7.4-4.4-11.2-8.5-11.2-15s6.4-14.1,16.2-14.1,9.3,1.1,13.4,3.2c0,.9-.3,7.6-.3,8.5-5-2.7-9-4.2-12.4-4.2-5,0-7.9,2.5-7.9,6.1s2.4,5.4,7.3,8.3c.4.2,3.5,2,3.8,2.3,8.1,4.8,12.3,9.5,12.3,16.9s-6.9,15.9-18.4,15.9-9.9-1.1-14.4-3.2c0-1-.7-9.4-.8-10.5,5.5,3.5,10.2,5.4,14.7,5.4s9.4-3.2,9.4-7.5c0-4-2.4-6.6-7.7-9.7h0Z"/>
  <path class="st0" d="M19,64.3c-.4-.2-3.6-2.2-4-2.4-7.4-4.4-11.2-8.5-11.2-15s6.4-14.1,16.2-14.1,9.3,1.1,13.4,3.2c0,.9-.3,7.6-.3,8.5-5-2.7-9-4.2-12.4-4.2-5,0-7.9,2.5-7.9,6.1s2.4,5.4,7.3,8.3c.4.2,3.5,2,3.8,2.3,8.1,4.8,12.3,9.5,12.3,16.9s-6.9,15.9-18.4,15.9-9.9-1.1-14.4-3.2c0-1-.7-9.4-.8-10.5,5.5,3.5,10.2,5.4,14.7,5.4s9.4-3.2,9.4-7.5c0-4-2.4-6.6-7.7-9.7h0Z"/>
  <path class="st0" d="M19,64.3c-.4-.2-3.6-2.2-4-2.4-7.4-4.4-11.2-8.5-11.2-15s6.4-14.1,16.2-14.1,9.3,1.1,13.4,3.2c0,.9-.3,7.6-.3,8.5-5-2.7-9-4.2-12.4-4.2-5,0-7.9,2.5-7.9,6.1s2.4,5.4,7.3,8.3c.4.2,3.5,2,3.8,2.3,8.1,4.8,12.3,9.5,12.3,16.9s-6.9,15.9-18.4,15.9-9.9-1.1-14.4-3.2c0-1-.7-9.4-.8-10.5,5.5,3.5,10.2,5.4,14.7,5.4s9.4-3.2,9.4-7.5c0-4-2.4-6.6-7.7-9.7h0Z"/>
  <path class="st0" d="M69.8,81.2c8.3,0,12.8-5.3,12.8-15.8v-30.9h8.4v31c0,15.6-8.7,24-21.4,24s-22.2-8.3-22.2-23.9v-31.2h9.5v31.1c0,10.4,4.4,15.7,12.9,15.7Z"/>
  <path class="st0" d="M69.8,81.2c8.3,0,12.8-5.3,12.8-15.8v-30.9h8.4v31c0,15.6-8.7,24-21.4,24s-22.2-8.3-22.2-23.9v-31.2h9.5v31.1c0,10.4,4.4,15.7,12.9,15.7Z"/>
  <path class="st0" d="M69.8,81.2c8.3,0,12.8-5.3,12.8-15.8v-30.9h8.4v31c0,15.6-8.7,24-21.4,24s-22.2-8.3-22.2-23.9v-31.2h9.5v31.1c0,10.4,4.4,15.7,12.9,15.7Z"/>
  <path class="st0" d="M69.8,81.2c8.3,0,12.8-5.3,12.8-15.8v-30.9h8.4v31c0,15.6-8.7,24-21.4,24s-22.2-8.3-22.2-23.9v-31.2h9.5v31.1c0,10.4,4.4,15.7,12.9,15.7Z"/>
  <g>
    <path class="st0" d="M117.4,34.5c6.9,0,12.1.6,16.6,3.8,3.9,2.7,6.2,7.2,6.2,11.9,0,10.2-7.8,16.8-22,16.8h-4v20.8h-9.3v-53.3h12.5ZM130.9,50.6c0-5.9-4.4-8.2-13.2-8.2h-3.4v16.7h4.2c8.3,0,12.4-3.1,12.4-8.5h0Z"/>
    <path class="st0" d="M117.4,34.5c6.9,0,12.1.6,16.6,3.8,3.9,2.7,6.2,7.2,6.2,11.9,0,10.2-7.8,16.8-22,16.8h-4v20.8h-9.3v-53.3h12.5ZM130.9,50.6c0-5.9-4.4-8.2-13.2-8.2h-3.4v16.7h4.2c8.3,0,12.4-3.1,12.4-8.5h0Z"/>
  </g>
  <g>
    <path class="st0" d="M117.4,34.5c6.9,0,12.1.6,16.6,3.8,3.9,2.7,6.2,7.2,6.2,11.9,0,10.2-7.8,16.8-22,16.8h-4v20.8h-9.3v-53.3h12.5ZM130.9,50.6c0-5.9-4.4-8.2-13.2-8.2h-3.4v16.7h4.2c8.3,0,12.4-3.1,12.4-8.5h0Z"/>
    <path class="st0" d="M117.4,34.5c6.9,0,12.1.6,16.6,3.8,3.9,2.7,6.2,7.2,6.2,11.9,0,10.2-7.8,16.8-22,16.8h-4v20.8h-9.3v-53.3h12.5ZM130.9,50.6c0-5.9-4.4-8.2-13.2-8.2h-3.4v16.7h4.2c8.3,0,12.4-3.1,12.4-8.5h0Z"/>
  </g>
  <g>
    <path class="st0" d="M179.8,34.5v8.2h-21.9v13.1h18.8v8.1h-18.8v15.6h22.3v8.3h-31.4v-53.3h31,0Z"/>
    <path class="st0" d="M179.8,34.5v8.2h-21.9v13.1h18.8v8.1h-18.8v15.6h22.3v8.3h-31.4v-53.3h31,0Z"/>
  </g>
  <g>
    <path class="st0" d="M179.8,34.5v8.2h-21.9v13.1h18.8v8.1h-18.8v15.6h22.3v8.3h-31.4v-53.3h31,0Z"/>
    <path class="st0" d="M179.8,34.5v8.2h-21.9v13.1h18.8v8.1h-18.8v15.6h22.3v8.3h-31.4v-53.3h31,0Z"/>
  </g>
  <g>
    <path class="st0" d="M204.8,34.5c6.8,0,12.1.4,16.6,3.7,3.8,2.5,6.2,6.8,6.2,11.4,0,7-4.1,12.3-11.7,14.8,1.1,1.6,6.9,9.4,17.2,23.4h-10.9l-16.2-22.1h-4.5v22.1h-9.2v-53.3h12.5ZM218.3,50.3c0-5.9-4.4-8.2-13.3-8.2h-3.4v16.7h4.3c8.3,0,12.4-3,12.4-8.5Z"/>
    <path class="st0" d="M204.8,34.5c6.8,0,12.1.4,16.6,3.7,3.8,2.5,6.2,6.8,6.2,11.4,0,7-4.1,12.3-11.7,14.8,1.1,1.6,6.9,9.4,17.2,23.4h-10.9l-16.2-22.1h-4.5v22.1h-9.2v-53.3h12.5ZM218.3,50.3c0-5.9-4.4-8.2-13.3-8.2h-3.4v16.7h4.3c8.3,0,12.4-3,12.4-8.5Z"/>
  </g>
  <g>
    <path class="st0" d="M204.8,34.5c6.8,0,12.1.4,16.6,3.7,3.8,2.5,6.2,6.8,6.2,11.4,0,7-4.1,12.3-11.7,14.8,1.1,1.6,6.9,9.4,17.2,23.4h-10.9l-16.2-22.1h-4.5v22.1h-9.2v-53.3h12.5ZM218.3,50.3c0-5.9-4.4-8.2-13.3-8.2h-3.4v16.7h4.3c8.3,0,12.4-3,12.4-8.5Z"/>
    <path class="st0" d="M204.8,34.5c6.8,0,12.1.4,16.6,3.7,3.8,2.5,6.2,6.8,6.2,11.4,0,7-4.1,12.3-11.7,14.8,1.1,1.6,6.9,9.4,17.2,23.4h-10.9l-16.2-22.1h-4.5v22.1h-9.2v-53.3h12.5ZM218.3,50.3c0-5.9-4.4-8.2-13.3-8.2h-3.4v16.7h4.3c8.3,0,12.4-3,12.4-8.5Z"/>
  </g>
  <g>
    <path class="st0" d="M242.6,32.8l34.3,35.6v-33.9h9.1v55h-1l-34.4-35.6v33.9h-9v-55s1,0,1,0Z"/>
    <path class="st0" d="M242.6,32.8l34.3,35.6v-33.9h9.1v55h-1l-34.4-35.6v33.9h-9v-55s1,0,1,0Z"/>
  </g>
  <g>
    <path class="st0" d="M242.6,32.8l34.3,35.6v-33.9h9.1v55h-1l-34.4-35.6v33.9h-9v-55s1,0,1,0Z"/>
    <path class="st0" d="M242.6,32.8l34.3,35.6v-33.9h9.1v55h-1l-34.4-35.6v33.9h-9v-55s1,0,1,0Z"/>
  </g>
  <g>
    <path class="st0" d="M447.5,34.5v8.2h-21.9v13.1h18.8v8.1h-18.8v15.6h22.3v8.3h-31.4v-53.3h31Z"/>
    <path class="st0" d="M447.5,34.5v8.2h-21.9v13.1h18.8v8.1h-18.8v15.6h22.3v8.3h-31.4v-53.3h31Z"/>
  </g>
  <g>
    <path class="st0" d="M447.5,34.5v8.2h-21.9v13.1h18.8v8.1h-18.8v15.6h22.3v8.3h-31.4v-53.3h31Z"/>
    <path class="st0" d="M447.5,34.5v8.2h-21.9v13.1h18.8v8.1h-18.8v15.6h22.3v8.3h-31.4v-53.3h31Z"/>
  </g>
  <g>
    <path class="st0" d="M459.6,36.2v-1.8h7.3v1.8h-2.6v6.7h-2v-6.7h-2.7Z"/>
    <path class="st0" d="M459.6,36.2v-1.8h7.3v1.8h-2.6v6.7h-2v-6.7h-2.7Z"/>
  </g>
  <g>
    <path class="st0" d="M459.6,36.2v-1.8h7.3v1.8h-2.6v6.7h-2v-6.7h-2.7Z"/>
    <path class="st0" d="M459.6,36.2v-1.8h7.3v1.8h-2.6v6.7h-2v-6.7h-2.7Z"/>
  </g>
  <g>
    <path class="st0" d="M469.1,34.2l3.2,5.5,3-5.5h.2l1.8,8.7h-2l-.7-3.8-2.3,4.2h0l-2.4-4.2-.7,3.9h-1.8l1.7-8.7h0Z"/>
    <path class="st0" d="M469.1,34.2l3.2,5.5,3-5.5h.2l1.8,8.7h-2l-.7-3.8-2.3,4.2h0l-2.4-4.2-.7,3.9h-1.8l1.7-8.7h0Z"/>
  </g>
  <g>
    <path class="st0" d="M469.1,34.2l3.2,5.5,3-5.5h.2l1.8,8.7h-2l-.7-3.8-2.3,4.2h0l-2.4-4.2-.7,3.9h-1.8l1.7-8.7h0Z"/>
    <path class="st0" d="M469.1,34.2l3.2,5.5,3-5.5h.2l1.8,8.7h-2l-.7-3.8-2.3,4.2h0l-2.4-4.2-.7,3.9h-1.8l1.7-8.7h0Z"/>
  </g>
  <path class="st0" d="M15.7,122c-1.4,1-3.3,1.5-5.1,1.5-4.6,0-8-3.4-8-7.8s3.5-7.9,8.1-7.9,3.6.5,5,1.5l-.8,1.2c-1.2-.8-2.7-1.2-4.2-1.2-3.6,0-6.4,2.7-6.4,6.4s2.7,6.3,6.3,6.3,3.1-.5,4.2-1.2l.9,1.2ZM17,117.9c0-3.3,2.5-5.6,5.8-5.6s5.7,2.3,5.7,5.6-2.5,5.6-5.8,5.6-5.7-2.3-5.7-5.6ZM26.7,117.9c0-2.4-1.7-4.1-4-4.1s-4.1,1.7-4.1,4.1,1.7,4.1,4,4.1,4.1-1.7,4.1-4.1ZM39.7,123.4v-6.3c0-2.1-1.1-3.3-3.1-3.3s-3.8,1.3-3.8,3.4v6.1h-1.7v-10.7h1.4l.2,1.7c1-1.3,2.5-1.9,4.2-1.9,2.8,0,4.4,1.7,4.4,4.6v6.4h-1.6ZM53.1,123.4v-6.3c0-2.1-1.1-3.3-3.1-3.3s-3.8,1.3-3.8,3.4v6.1h-1.7v-10.7h1.4l.2,1.7c1-1.3,2.5-1.9,4.2-1.9,2.8,0,4.4,1.7,4.4,4.6v6.4h-1.6ZM63.2,123.5c-3.2,0-5.8-1.9-5.8-5.5s2.5-5.7,5.7-5.7,5.4,2.3,5.4,5.3v.8h-9.3c.2,2.2,1.8,3.6,4.2,3.6s2.4-.4,3.4-1l.8,1.1c-1.2.9-2.8,1.4-4.4,1.4h0ZM66.7,117.2c0-1.8-1.4-3.4-3.7-3.4s-3.7,1.4-3.9,3.4h7.6ZM79.8,122.4c-1.1.7-2.4,1.1-3.7,1.1-3,0-5.9-1.9-5.9-5.5s2.7-5.7,6-5.7,2.5.3,3.5,1l-.7,1.2c-.9-.4-1.8-.7-2.8-.7-2.5,0-4.4,1.6-4.4,4.1s1.9,4.1,4.3,4.1,2-.3,2.8-.7l.9,1.1h0ZM80.7,112.6h2.2v-3.4l1.7-.3v3.8h3.1v1.4h-3.1v5.2c0,2.2,1,2.6,2.6,3l-.2,1.4c-2.1-.1-4.1-1.1-4.1-3.6v-6h-2.2v-1.5h0ZM89.3,109c0-.6.5-1.2,1.2-1.2s1.2.5,1.2,1.2-.5,1.2-1.2,1.2-1.2-.5-1.2-1.2ZM89.6,112.6h1.7v10.7h-1.7v-10.7ZM103.2,123.4v-6.3c0-2.1-1.1-3.3-3.1-3.3s-3.8,1.3-3.8,3.4v6.1h-1.7v-10.7h1.4l.2,1.7c1-1.3,2.5-1.9,4.2-1.9,2.8,0,4.4,1.7,4.4,4.6v6.4h-1.6,0ZM118.7,122.9c0,3.3-2.4,5.1-5.7,5.1s-3.2-.5-4.5-1.4l.8-1.1c1.1.7,2.2,1.1,3.5,1.1,2.4,0,4.2-1.1,4.2-4v-1.4c-.9,1.3-2.5,1.9-4.1,1.9-2.8,0-5.4-1.9-5.4-5.4s2.8-5.4,5.5-5.4,3.1.7,4.1,2l.2-1.8h1.5v10.4h-.1ZM117.1,117.8c0-2.4-1.6-3.9-4-3.9s-3.9,1.7-3.9,3.9,1.6,4,4,4c2.3-.1,3.9-1.7,3.9-4ZM126.3,112.6h2.2v-3.4l1.7-.3v3.8h3.1v1.4h-3.1v5.2c0,2.2,1,2.6,2.6,3l-.2,1.4c-2.1-.1-4.1-1.1-4.1-3.6v-6h-2.2v-1.5h0ZM143.9,123.5v-6.2c0-2.2-1-3.5-3.2-3.5s-3.9,1.3-3.9,3.3v6.2h-1.7v-15.6l1.7-.3v6.9c1-1.2,2.5-1.8,4.2-1.8,2.8,0,4.5,1.7,4.5,4.6v6.4h-1.6ZM153.9,123.5c-3.2,0-5.8-1.9-5.8-5.5s2.5-5.7,5.7-5.7,5.4,2.3,5.4,5.3v.8h-9.3c.2,2.2,1.8,3.6,4.2,3.6s2.4-.4,3.4-1l.8,1.1c-1.2.9-2.7,1.4-4.4,1.4h0ZM157.5,117.2c-.1-1.8-1.4-3.4-3.7-3.4s-3.7,1.4-3.9,3.4h7.6,0ZM169.9,123.3h-1.7v-15.3h9.9v1.5h-8.2v5.7h6.8v1.5h-6.8v6.6ZM189.7,123.3h-1.5l-.2-1.7c-1,1.3-2.4,1.9-4.1,1.9-2.8,0-4.4-1.8-4.4-4.6v-6.4h1.7v6.2c0,2.1,1,3.3,3.1,3.3s3.7-1.3,3.7-3.4v-6h1.7v10.7ZM191.6,112.6h2.2v-3.4l1.7-.3v3.8h3.1v1.4h-3.1v5.2c0,2.2,1,2.6,2.6,3l-.2,1.4c-2.1-.1-4.1-1.1-4.1-3.6v-6h-2.2v-1.5h0ZM210.6,123.3h-1.5l-.2-1.7c-1,1.3-2.4,1.9-4.1,1.9-2.8,0-4.4-1.8-4.4-4.6v-6.4h1.7v6.2c0,2.1,1,3.3,3.1,3.3s3.7-1.3,3.7-3.4v-6h1.7v10.7ZM213.8,112.6h1.5l.2,1.8c.8-1.3,1.9-2,3.5-2s.9.1,1.3.2l-.3,1.5c-.4-.1-.8-.2-1.2-.2-2.3,0-3.3,1.9-3.3,4.1v5.3h-1.7v-10.7h0ZM226.7,123.5c-3.2,0-5.8-1.9-5.8-5.5s2.5-5.7,5.7-5.7,5.4,2.3,5.4,5.3v.8h-9.3c.2,2.2,1.8,3.6,4.2,3.6s2.4-.4,3.4-1l.8,1.1c-1.2.9-2.8,1.4-4.4,1.4h0ZM230.2,117.2c-.1-1.8-1.4-3.4-3.7-3.4s-3.7,1.4-3.9,3.4h7.6Z"/>
</svg>