<?xml version="1.0" encoding="UTF-8"?>
<svg id="Layer_1" xmlns="http://www.w3.org/2000/svg" version="1.1" viewBox="0 0 636.5 253.7">
  <!-- Generator: Adobe Illustrator 29.5.1, SVG Export Plug-In . SVG Version: 2.1.0 Build 141)  -->
  <defs>
    <style>
      .st0 {
        fill: #fff;
      }
    </style>
  </defs>
  <g>
    <path class="st0" d="M304.7,37.4l-12.7,11.3c-.3.2-.6.4-.8.6-.3,0-.5.3-.8.3-.3,0-.6,0-.9.2h-9l7.9-10.7c.3-.4.6-.7.8-.9.3-.2.6-.4.9-.5s.7-.2,1.1-.2h13.5ZM287.4,101.5c1.9,0,3.6-.3,5.2-1,1.5-.6,2.8-1.6,3.9-2.7,1.1-1.2,1.9-2.6,2.4-4.3.6-1.7.8-3.6.8-5.7v-34.1h11.8v34.1c0,3.5-.6,6.7-1.7,9.6s-2.7,5.4-4.8,7.5c-2.1,2.1-4.6,3.7-7.6,4.9-3,1.2-6.3,1.8-10.1,1.8s-7.1-.6-10.1-1.8c-3-1.2-5.5-2.8-7.6-4.9s-3.7-4.6-4.8-7.5c-1.1-2.9-1.7-6.1-1.7-9.6v-34.1h11.8v34.1c0,2.1.3,4,.8,5.7s1.4,3.1,2.4,4.3c1.1,1.2,2.3,2.1,3.9,2.7,1.7.7,3.5,1,5.4,1"/>
    <path class="st0" d="M345.1,80.9c-1-1.2-2.1-2-3.3-2.5-1.2-.5-2.5-.7-3.8-.7s-2.5.2-3.6.7-2,1.3-2.8,2.3c-.8,1.1-1.4,2.4-1.8,4.1s-.6,3.6-.6,5.9.2,4.2.5,5.8c.3,1.6.8,2.9,1.5,3.8.6,1,1.4,1.7,2.3,2.1s1.9.7,3.1.7c1.9,0,3.5-.4,4.8-1.1,1.3-.8,2.5-1.8,3.7-3.2v-17.9h0ZM356,52.1v58.9h-6.7c-1.4,0-2.3-.6-2.7-1.9l-.9-3.6c-.8.9-1.7,1.7-2.6,2.4-.9.7-1.9,1.4-2.9,1.9-1.1.5-2.2,1-3.4,1.2-1.2.3-2.5.4-3.9.4-2.2,0-4.2-.5-6-1.4s-3.4-2.3-4.7-4c-1.3-1.8-2.4-4-3.1-6.5-.7-2.6-1.1-5.5-1.1-8.8s.4-5.8,1.2-8.4c.8-2.6,2-4.9,3.5-6.7s3.4-3.4,5.5-4.5c2.2-1.1,4.6-1.6,7.2-1.6s4.1.3,5.6,1,2.9,1.6,4.1,2.7v-21h10.9Z"/>
    <path class="st0" d="M386.3,94c-2.7,0-4.9.4-6.6.7-1.8.3-3.2.8-4.2,1.3s-1.8,1.1-2.2,1.8c-.4.7-.7,1.4-.7,2.2,0,1.6.4,2.7,1.3,3.4.9.7,2.1,1,3.7,1s3.4-.3,4.7-1c1.3-.6,2.6-1.7,4-3v-6.4h0ZM364.1,75.9c2.4-2.2,5-3.8,7.9-4.8,2.9-1.1,6-1.6,9.4-1.6s4.6.4,6.5,1.2c1.9.8,3.5,1.9,4.9,3.3,1.3,1.4,2.3,3.1,3.1,5,.7,1.9,1.1,4.1,1.1,6.4v25.6h-5c-1,0-1.8,0-2.3-.4s-1-.9-1.3-1.8l-.9-2.6c-1,.9-2,1.7-3,2.4-1,.7-2,1.3-3,1.7-1,.5-2.1.8-3.3,1-1.2.2-2.5.4-3.9.4s-3.4-.2-4.9-.7-2.7-1.2-3.8-2.1c-1.1-.9-1.9-2.1-2.5-3.5s-.9-3-.9-4.8.4-3,1.1-4.5c.8-1.5,2.1-2.9,3.9-4.1,1.9-1.2,4.3-2.2,7.4-3s7-1.3,11.6-1.4v-2.1c0-2.6-.5-4.4-1.6-5.6s-2.6-1.8-4.7-1.8-2.7.2-3.7.5c-1,.4-1.9.7-2.6,1.1-.8.4-1.5.8-2.1,1.1-.7.4-1.4.5-2.3.5s-1.4-.2-1.9-.6-.9-.8-1.3-1.4l-1.9-3.4Z"/>
    <path class="st0" d="M415.7,77c1.3-2.3,2.8-4.1,4.5-5.5,1.7-1.3,3.7-2,5.9-2s3.3.4,4.5,1.3l-.7,8c-.1.5-.3.9-.6,1.1-.3.2-.7.3-1.1.3s-1,0-1.8-.2-1.5-.2-2.2-.2c-1,0-1.9,0-2.7.4-.8.3-1.5.7-2.1,1.2s-1.1,1.2-1.6,1.9c-.5.8-.9,1.6-1.4,2.6v25.1h-10.9v-40.7h6.4c1.1,0,1.9.2,2.3.6s.7,1.1.9,2.1l.6,4Z"/>
    <path class="st0" d="M464.7,53.1l-10,10.3c-.5.6-1,.9-1.6,1.2-.5.2-1.2.3-2,.3h-6.5l5.5-9.6c.4-.7.9-1.3,1.4-1.7.6-.4,1.4-.6,2.6-.6h10.6ZM456,94c-2.7,0-4.9.4-6.6.7-1.8.3-3.2.8-4.2,1.3s-1.8,1.1-2.2,1.8c-.4.7-.7,1.4-.7,2.2,0,1.6.4,2.7,1.3,3.4.9.7,2.1,1,3.7,1s3.4-.3,4.7-1c1.3-.6,2.6-1.7,4-3v-6.4h0ZM433.8,75.9c2.4-2.2,5-3.8,7.9-4.8,2.9-1.1,6-1.6,9.4-1.6s4.6.4,6.5,1.2c1.9.8,3.5,1.9,4.9,3.3,1.3,1.4,2.3,3.1,3.1,5,.7,1.9,1.1,4.1,1.1,6.4v25.6h-5c-1,0-1.8,0-2.3-.4s-1-.9-1.3-1.8l-.9-2.6c-1,.9-2,1.7-3,2.4-1,.7-2,1.3-3,1.7-1,.5-2.1.8-3.3,1-1.2.2-2.5.4-3.9.4s-3.4-.2-4.9-.7-2.7-1.2-3.8-2.1c-1.1-.9-1.9-2.1-2.5-3.5s-.9-3-.9-4.8.4-3,1.1-4.5c.8-1.5,2.1-2.9,3.9-4.1,1.9-1.2,4.3-2.2,7.4-3s7-1.3,11.6-1.4v-2.1c0-2.6-.5-4.4-1.6-5.6s-2.6-1.8-4.7-1.8-2.7.2-3.7.5c-1,.4-1.9.7-2.6,1.1-.8.4-1.5.8-2.1,1.1-.7.4-1.4.5-2.3.5s-1.4-.2-1.9-.6-.9-.8-1.3-1.4l-1.9-3.4Z"/>
    <path class="st0" d="M500.4,78.7c-.3.4-.6.8-.9,1s-.7.3-1.2.3-1.1,0-1.6-.4c-.6-.3-1.2-.5-1.9-.8-.7-.3-1.5-.6-2.3-.8-.9-.3-1.9-.4-3.1-.4-1.8,0-3.1.4-4.1,1.1s-1.5,1.7-1.5,2.9.3,1.5.8,2.1c.6.6,1.3,1,2.2,1.4.9.4,1.9.8,3.1,1.1,1.2.4,2.3.7,3.6,1.2,1.2.4,2.4.9,3.6,1.5s2.2,1.2,3.1,2.1c.9.8,1.6,1.8,2.2,3s.8,2.6.8,4.2-.4,3.8-1.1,5.5-1.8,3.1-3.2,4.3c-1.4,1.2-3.1,2.2-5.2,2.8-2.1.7-4.5,1-7.2,1s-2.8,0-4.1-.4c-1.4-.3-2.7-.6-3.9-1.1-1.2-.5-2.4-1-3.5-1.6s-2-1.3-2.8-2l2.5-4.1c.3-.5.6-.8,1.1-1.1.4-.3,1-.4,1.7-.4s1.3.2,1.8.5,1.2.7,1.9,1.1c.7.4,1.5.7,2.4,1.1.9.3,2.1.5,3.5.5s2,0,2.7-.4c.8-.2,1.4-.6,1.9-1s.8-.9,1-1.4.3-1,.3-1.6c0-.9-.3-1.6-.9-2.2s-1.3-1.1-2.2-1.5c-.9-.4-2-.8-3.1-1.1-1.2-.3-2.4-.7-3.6-1.1s-2.4-.9-3.6-1.5-2.2-1.3-3.1-2.2c-.9-.9-1.6-2-2.2-3.3s-.8-2.9-.8-4.7.3-3.3,1-4.8,1.6-2.8,3-4c1.3-1.2,3-2.1,4.9-2.8,2-.7,4.2-1,6.8-1s5.5.5,7.9,1.4,4.3,2.2,5.8,3.7l-2.5,3.9Z"/>
    <path class="st0" d="M538.9,75c.8-.8,1.7-1.5,2.5-2.2.9-.7,1.8-1.2,2.8-1.7s2.1-.8,3.2-1.1c1.1-.3,2.4-.4,3.7-.4,2.2,0,4.2.4,5.9,1.1,1.7.8,3.2,1.8,4.3,3.2,1.2,1.4,2.1,3,2.6,4.9.6,1.9.9,4,.9,6.2v26h-10.8v-25.9c0-2.3-.5-4-1.6-5.3-1.1-1.2-2.6-1.9-4.7-1.9s-3,.3-4.3,1-2.6,1.6-3.8,2.8v29.3h-10.9v-40.7h6.7c1.4,0,2.3.6,2.7,1.9l.8,2.8Z"/>
    <path class="st0" d="M594.8,94c-2.7,0-4.9.4-6.6.7-1.8.3-3.2.8-4.2,1.3s-1.8,1.1-2.2,1.8c-.4.7-.7,1.4-.7,2.2,0,1.6.4,2.7,1.3,3.4.9.7,2.1,1,3.7,1s3.4-.3,4.7-1c1.3-.6,2.7-1.7,4-3v-6.4ZM572.6,75.9c2.4-2.2,5-3.8,7.9-4.8,2.9-1.1,6-1.6,9.4-1.6s4.6.4,6.5,1.2c1.9.8,3.5,1.9,4.9,3.3,1.3,1.4,2.3,3.1,3.1,5,.7,1.9,1.1,4.1,1.1,6.4v25.6h-5c-1,0-1.8,0-2.3-.4s-1-.9-1.3-1.8l-.9-2.6c-1,.9-2,1.7-3,2.4-1,.7-2,1.3-3,1.7-1,.5-2.1.8-3.3,1s-2.5.4-3.9.4-3.4-.2-4.9-.7-2.7-1.2-3.8-2.1-1.9-2.1-2.5-3.5-.9-3-.9-4.8.4-3,1.1-4.5c.8-1.5,2.1-2.9,3.9-4.1,1.9-1.2,4.3-2.2,7.4-3,3.1-.8,7-1.3,11.6-1.4v-2.1c0-2.6-.5-4.4-1.6-5.6s-2.6-1.8-4.7-1.8-2.7.2-3.7.5c-1,.4-1.9.7-2.6,1.1-.8.4-1.5.8-2.1,1.1-.7.4-1.4.5-2.3.5s-1.4-.2-1.9-.6-.9-.8-1.3-1.4l-1.9-3.4Z"/>
    <path class="st0" d="M291.8,166.8h19.6v23.6c-2.9,2.1-6,3.7-9.3,4.7s-6.8,1.5-10.5,1.5-9-.7-12.8-2.2-7.1-3.5-9.8-6.1c-2.7-2.6-4.8-5.7-6.3-9.3s-2.2-7.5-2.2-11.7.7-8.2,2.1-11.8,3.4-6.7,6-9.2c2.6-2.6,5.8-4.6,9.4-6,3.7-1.4,7.8-2.2,12.4-2.2s4.6.2,6.6.6c2.1.4,3.9.9,5.7,1.6,1.7.7,3.3,1.5,4.8,2.4,1.4.9,2.8,1.9,3.9,3l-3.4,5.3c-.5.8-1.2,1.4-2.1,1.5-.8.2-1.8,0-2.8-.6-.9-.6-1.9-1.1-2.8-1.6s-1.9-.9-2.9-1.2-2.1-.6-3.4-.8c-1.2-.2-2.6-.3-4.2-.3-2.7,0-5.1.5-7.2,1.4-2.2.9-4,2.2-5.5,3.9s-2.7,3.7-3.5,6.1c-.8,2.4-1.2,5-1.2,7.9s.4,6,1.3,8.5,2.2,4.6,3.8,6.3c1.6,1.7,3.6,3,5.9,3.9s4.8,1.3,7.6,1.3,3.6-.2,5.1-.6c1.5-.4,2.9-.9,4.4-1.6v-9.6h-6.5c-.8,0-1.4-.2-1.8-.6-.4-.4-.6-.9-.6-1.6v-6.5h.2Z"/>
    <path class="st0" d="M340.8,178.9c-2.7.1-4.9.4-6.6.7-1.8.3-3.2.8-4.2,1.3s-1.8,1.1-2.2,1.8c-.4.7-.7,1.4-.7,2.2,0,1.6.4,2.7,1.3,3.4s2.1,1,3.7,1,3.4-.3,4.7-1c1.3-.6,2.6-1.7,4-3v-6.4h0ZM318.7,160.9c2.4-2.2,5-3.8,7.9-4.8,2.9-1.1,6-1.6,9.4-1.6s4.6.4,6.5,1.2,3.5,1.9,4.9,3.3c1.3,1.4,2.3,3.1,3.1,5,.7,1.9,1.1,4.1,1.1,6.4v25.6h-5c-1,0-1.8-.1-2.3-.4-.5-.3-1-.9-1.3-1.8l-.9-2.6c-1,.9-2,1.7-3,2.4s-2,1.3-3,1.7c-1,.5-2.1.8-3.3,1-1.2.2-2.5.4-3.9.4s-3.4-.2-4.9-.7-2.7-1.2-3.8-2.1c-1.1-.9-1.9-2.1-2.5-3.5s-.9-3-.9-4.8.4-3,1.1-4.5c.8-1.5,2.1-2.9,3.9-4.1,1.9-1.2,4.3-2.2,7.4-3s7-1.3,11.6-1.4v-2.1c0-2.6-.5-4.4-1.6-5.6-1.1-1.2-2.6-1.8-4.7-1.8s-2.7.2-3.7.5c-1,.4-1.9.7-2.6,1.1-.7.4-1.5.8-2.1,1.1-.7.4-1.4.5-2.3.5s-1.4-.2-1.9-.6c-.5-.4-.9-.8-1.3-1.4l-1.9-3.4Z"/>
    <path class="st0" d="M385.8,170.8c0-1.1-.2-2.2-.5-3.2s-.8-1.9-1.4-2.7c-.7-.8-1.5-1.4-2.5-1.9s-2.2-.7-3.6-.7c-2.6,0-4.6.7-6.1,2.2s-2.4,3.6-2.9,6.3h17ZM368.6,177.3c.3,3.8,1.4,6.6,3.3,8.4,1.8,1.8,4.2,2.6,7.2,2.6s2.8-.2,3.9-.5c1.1-.4,2.1-.8,2.9-1.2s1.6-.8,2.2-1.2c.7-.4,1.3-.5,2-.5s1.5.3,2,.9l3.2,3.9c-1.2,1.3-2.4,2.5-3.8,3.3-1.4.9-2.8,1.6-4.3,2.1s-3,.9-4.5,1.1c-1.5.2-3,.3-4.4.3-2.8,0-5.5-.5-8-1.4s-4.6-2.3-6.4-4.1-3.3-4.1-4.3-6.8c-1.1-2.7-1.6-5.9-1.6-9.4s.5-5.4,1.4-7.8c.9-2.4,2.2-4.6,3.9-6.4,1.7-1.8,3.8-3.3,6.2-4.3,2.4-1.1,5.2-1.6,8.3-1.6s5,.4,7.2,1.2,4.1,2,5.7,3.6,2.8,3.5,3.7,5.8c.9,2.3,1.3,4.9,1.3,7.9s0,1.5-.1,2-.2.9-.4,1.3c-.2.3-.4.5-.8.7-.3.1-.7.2-1.2.2h-24.6Z"/>
  </g>
  <rect class="st0" x="402.3" y="137.1" width="10.9" height="58.8"/>
  <g>
    <path class="st0" d="M436.3,196.6c-1.8,0-3.5-.3-4.9-.8s-2.6-1.3-3.6-2.3-1.7-2.2-2.2-3.6c-.5-1.4-.8-3-.8-4.8v-21.9h-3.8c-.6,0-1.1-.2-1.5-.6-.4-.4-.6-.9-.6-1.7v-4.3l6.5-1.2,2.2-10.5c.3-1.2,1.1-1.8,2.4-1.8h5.7v12.4h10.5v7.6h-10.5v21.2c0,1.1.3,2,.8,2.7s1.3,1,2.3,1,1-.1,1.3-.2c.4-.1.7-.2.9-.4s.5-.3.7-.4c.2-.1.5-.2.7-.2.3,0,.6.1.8.2s.4.4.6.7l3.3,5.2c-1.5,1.2-3.2,2.1-5.1,2.7-1.7.7-3.6,1-5.7,1"/>
    <path class="st0" d="M473.3,178.9c-2.7.1-4.9.4-6.6.7-1.8.3-3.2.8-4.2,1.3s-1.8,1.1-2.2,1.8c-.4.7-.7,1.4-.7,2.2,0,1.6.4,2.7,1.3,3.4s2.1,1,3.7,1,3.4-.3,4.7-1c1.3-.6,2.6-1.7,4-3v-6.4h0ZM451.2,160.9c2.4-2.2,5-3.8,7.9-4.8,2.9-1.1,6-1.6,9.4-1.6s4.6.4,6.5,1.2,3.5,1.9,4.9,3.3c1.3,1.4,2.3,3.1,3.1,5,.7,1.9,1.1,4.1,1.1,6.4v25.6h-5c-1,0-1.8-.1-2.3-.4-.5-.3-1-.9-1.3-1.8l-.9-2.6c-1,.9-2,1.7-3,2.4s-2,1.3-3,1.7c-1,.5-2.1.8-3.3,1-1.2.2-2.5.4-3.9.4s-3.4-.2-4.9-.7-2.7-1.2-3.8-2.1c-1.1-.9-1.9-2.1-2.5-3.5s-.9-3-.9-4.8.4-3,1.1-4.5c.8-1.5,2.1-2.9,3.9-4.1,1.9-1.2,4.3-2.2,7.4-3s7-1.3,11.6-1.4v-2.1c0-2.6-.5-4.4-1.6-5.6-1.1-1.2-2.6-1.8-4.7-1.8s-2.7.2-3.7.5c-1,.4-1.9.7-2.6,1.1-.7.4-1.5.8-2.1,1.1-.7.4-1.4.5-2.3.5s-1.4-.2-1.9-.6c-.5-.4-.9-.8-1.3-1.4l-1.9-3.4Z"/>
    <path class="st0" d="M522,164.3c-.3.4-.6.7-.9,1-.3.2-.8.3-1.3.3s-1-.2-1.5-.5-1-.6-1.7-1c-.6-.4-1.4-.7-2.3-1-.9-.3-1.9-.5-3.2-.5s-3,.3-4.2.9c-1.2.6-2.2,1.4-3,2.5s-1.4,2.4-1.8,4-.6,3.4-.6,5.3c0,4.2.8,7.3,2.5,9.5s3.9,3.3,6.8,3.3,1.9-.1,2.6-.3,1.4-.4,1.9-.7,1-.6,1.4-.9c.4-.3.8-.6,1.1-.9.4-.3.7-.5,1.1-.7.4-.2.8-.3,1.2-.3.8,0,1.5.3,2,.9l3.1,3.9c-1.2,1.3-2.4,2.5-3.7,3.3-1.3.9-2.7,1.6-4.1,2.1-1.4.5-2.8.9-4.3,1.1-1.4.2-2.9.3-4.3.3-2.5,0-4.9-.5-7.1-1.4s-4.2-2.3-5.9-4.1c-1.7-1.8-3-4-4-6.6s-1.5-5.6-1.5-8.9.4-5.7,1.3-8.3,2.1-4.8,3.8-6.6c1.7-1.9,3.8-3.3,6.3-4.4,2.5-1.1,5.4-1.6,8.6-1.6s5.8.5,8.2,1.5c2.3,1,4.4,2.4,6.3,4.3l-2.8,4.5Z"/>
    <path class="st0" d="M541.5,159.2c.8-.7,1.6-1.3,2.4-1.9.8-.6,1.7-1.1,2.6-1.5.9-.4,1.9-.7,3-.9s2.2-.3,3.4-.3c2.2,0,4.2.4,5.9,1.1,1.7.8,3.2,1.8,4.3,3.2,1.2,1.4,2.1,3,2.6,4.9.6,1.9.9,4,.9,6.2v25.8h-10.8v-25.8c0-2.3-.5-4-1.6-5.3-1.1-1.2-2.6-1.9-4.7-1.9s-3,.3-4.3,1-2.6,1.6-3.8,2.8v29.2h-10.9v-58.8h10.9v22.2h0Z"/>
    <path class="st0" d="M588.9,196.6c-1.8,0-3.5-.3-4.9-.8s-2.6-1.3-3.6-2.3-1.7-2.2-2.2-3.6c-.5-1.4-.8-3-.8-4.8v-21.9h-3.8c-.6,0-1.1-.2-1.5-.6-.4-.4-.6-.9-.6-1.7v-4.3l6.5-1.2,2.2-10.5c.3-1.2,1.1-1.8,2.4-1.8h5.7v12.4h10.5v7.6h-10.5v21.2c0,1.1.3,2,.8,2.7s1.3,1,2.3,1,1-.1,1.3-.2c.4-.1.7-.2.9-.4.3-.1.5-.3.7-.4.2-.1.5-.2.7-.2.3,0,.6.1.8.2.2.1.4.4.6.7l3.3,5.2c-1.5,1.2-3.2,2.1-5.1,2.7-1.7.7-3.7,1-5.7,1"/>
    <path class="st0" d="M625.9,178.9c-2.7.1-4.9.4-6.6.7-1.8.3-3.2.8-4.2,1.3s-1.8,1.1-2.2,1.8-.7,1.4-.7,2.2c0,1.6.4,2.7,1.3,3.4.9.7,2.1,1,3.7,1s3.4-.3,4.7-1c1.3-.6,2.7-1.7,4-3v-6.4ZM603.7,160.9c2.4-2.2,5-3.8,7.9-4.8,2.9-1.1,6-1.6,9.4-1.6s4.6.4,6.5,1.2,3.5,1.9,4.9,3.3c1.3,1.4,2.3,3.1,3.1,5,.7,1.9,1.1,4.1,1.1,6.4v25.6h-5c-1,0-1.8-.1-2.3-.4-.5-.3-1-.9-1.3-1.8l-.9-2.6c-1,.9-2,1.7-3,2.4s-2,1.3-3,1.7c-1,.5-2.1.8-3.3,1s-2.5.4-3.9.4-3.4-.2-4.9-.7-2.7-1.2-3.8-2.1c-1.1-.9-1.9-2.1-2.5-3.5s-.9-3-.9-4.8.4-3,1.1-4.5c.8-1.5,2.1-2.9,3.9-4.1,1.9-1.2,4.3-2.2,7.4-3,3.1-.8,7-1.3,11.6-1.4v-2.1c0-2.6-.5-4.4-1.6-5.6-1.1-1.2-2.6-1.8-4.7-1.8s-2.7.2-3.7.5c-1,.4-1.9.7-2.6,1.1-.8.4-1.5.8-2.1,1.1-.7.4-1.4.5-2.3.5s-1.4-.2-1.9-.6c-.5-.4-.9-.8-1.3-1.4l-1.9-3.4Z"/>
  </g>
  <polygon class="st0" points="115.1 208.5 107.6 216 111.4 219.8 118.9 212.3 122.7 208.5 130.1 201.1 126.4 197.3 118.9 204.7 115.1 208.5"/>
  <polygon class="st0" points="137.4 168.1 137.4 168.1 136.5 167.2 132.7 163.4 125.2 155.9 121.4 159.7 128.9 167.2 128.9 167.2 132.7 170.9 140.2 178.4 143.9 174.6 137.4 168.1"/>
  <polygon class="st0" points="91.3 157.2 91.3 157.2 95.1 153.4 102.6 145.9 98.8 142.1 93.1 147.8 85.7 155.1 80 160.8 83.8 164.6 91.3 157.2"/>
  <g>
    <path class="st0" d="M175.6,175.6l-15.3,15.4-7.5-7.5-3.8,3.8,7.5,7.5-10,10-9-9-7.3-7.3-4.9-4.9-3.8,3.8,7.5,7.5,3.8,3.8h0l10,10-10,10-7.5-7.5-3.8,3.8,7.5,7.5-10,10-9-9h0l-7.3-7.3-4.9-4.9-3.8,3.8,7.5,7.5h0l3.8,3.8h0l10,10-10,10-10-10,7.5-7.5-3.8-3.8-7.5,7.5-10-10,10-10h0l3.8-3.8,7.5-7.5-3.8-3.8-5.7,5.7h0l-7.3,7.3-8.2,8.2-10-10,7.5-7.5-3.8-3.8-7.5,7.5-10-10,10-10,3.8-3.8h0l7.5-7.5-3.8-3.8-5.7,5.7-1.8,1.8-3.8,3.8-1.8,1.8-8.2,8.2-15.3-15.3c-18.8-18.8-29.2-43.9-29.2-70.5s10.4-51.7,29.2-70.5C53.4,15.7,78.4,5.4,105.1,5.4s51.7,10.4,70.5,29.2c18.8,18.8,29.2,43.9,29.2,70.5s-10.4,51.7-29.2,70.5M179.4,30.8C159.5,10.9,133.2,0,105.1,0S50.6,10.9,30.8,30.8C11,50.7,0,77,0,105.1s10.9,54.5,30.8,74.3l74.3,74.3,74.3-74.3c19.8-19.8,30.8-46.2,30.8-74.3,0-28.1-11-54.5-30.8-74.3"/>
    <path class="st0" d="M82.3,168.1h0l-7.3-7.3h0l-12.8-12.8c-11.5-11.5-17.8-26.7-17.8-42.9s6.3-31.5,17.8-42.9c11.5-11.5,26.7-17.8,42.9-17.8s31.5,6.3,42.9,17.8,17.8,26.7,17.8,42.9-6.3,31.5-17.8,42.9l-12.8,12.8,3.8,3.8,12.8-12.8c12.5-12.5,19.4-29.1,19.4-46.7s-6.9-34.2-19.4-46.7-29.1-19.4-46.7-19.4-34.2,6.9-46.7,19.4c-12.5,12.4-19.4,29-19.4,46.7s6.9,34.2,19.4,46.7l15.3,15.3h0l3.8,3.8,7.5,7.5,3.8-3.8-6.5-6.5Z"/>
  </g>
  <polygon class="st0" points="102.5 188.4 102.5 188.4 97.6 183.5 93.8 187.3 101.3 194.7 101.3 194.7 105.1 198.5 105.1 198.5 105.1 198.5 112.6 206 116.4 202.2 109.9 195.7 109.9 195.7 102.5 188.4"/>
  <polygon class="st0" points="95.1 180.9 95.1 180.9 102.6 173.5 98.8 169.7 93.1 175.4 87.5 180.9 80 188.4 83.8 192.2 89.5 186.5 95.1 180.9"/>
  <polygon class="st0" points="120.6 175.4 120.6 175.4 113.3 182.7 107.6 188.4 111.4 192.2 117.1 186.5 124.4 179.2 130.1 173.5 126.4 169.7 120.6 175.4"/>
  <path class="st0" d="M48.4,161.8c-15.2-15.2-23.5-35.3-23.5-56.7s8.3-41.6,23.5-56.7c15.2-15.2,35.3-23.5,56.7-23.5s41.6,8.3,56.7,23.5c15.2,15.2,23.5,35.3,23.5,56.7s-8.3,41.6-23.5,56.7l-15.3,15.3-5.6,5.6-5.7,5.7,3.8,3.8,7.5-7.5,5.5-5.6,13.6-13.6c16.2-16.2,25.1-37.7,25.1-60.5s-8.9-44.3-25.1-60.5c-16.2-16.2-37.7-25.1-60.5-25.1s-44.3,8.9-60.5,25.1-25.1,37.7-25.1,60.5,8.9,44.3,25.1,60.5l12.8,12.8,3.8-3.8-12.8-12.7Z"/>
  <polygon class="st0" points="75 188.4 75 188.4 70 183.5 66.2 187.3 73.7 194.7 73.7 194.7 77.5 198.5 77.5 198.5 85 206 88.8 202.2 82.3 195.7 82.3 195.7 75 188.4"/>
  <polygon class="st0" points="105.1 163.4 102.5 160.8 97.6 155.9 93.8 159.7 101.3 167.2 105.1 170.9 112.6 178.4 116.4 174.6 108.9 167.2 105.1 163.4"/>
  <g>
    <path class="st0" d="M75.9,134.2c-7.8-7.8-12.1-18.1-12.1-29.1s4.3-21.4,12.1-29.1c7.8-7.8,18.1-12.1,29.1-12.1s21.4,4.3,29.1,12.1c7.8,7.8,12.1,18.1,12.1,29.1s-4.3,21.4-12.1,29.1l-15.3,15.3-5.6,5.6h0l-5.7,5.7,3.8,3.8,5.7-5.7,7.3-7.3,13.7-13.6c8.8-8.8,13.6-20.5,13.6-32.9s-4.8-24.1-13.6-32.9c-8.8-8.8-20.5-13.6-32.9-13.6s-24.1,4.8-32.9,13.6c-8.8,8.8-13.6,20.5-13.6,32.9s4.8,24.1,13.6,32.9l12.8,12.8,3.8-3.8-12.9-12.8Z"/>
    <path class="st0" d="M108.9,139.6h0l-3.8-3.8-15.3-15.3c-4.1-4.1-6.4-9.6-6.4-15.3s2.3-11.2,6.4-15.3c4.1-4.1,9.5-6.4,15.3-6.4s11.2,2.3,15.3,6.4c4.1,4.1,6.4,9.6,6.4,15.3s-2.3,11.2-6.4,15.3l-12.8,12.8,3.8,3.8,12.8-12.8c5.1-5.1,7.9-11.9,7.9-19.1s-2.8-14-7.9-19.1-11.9-7.9-19.1-7.9-14,2.8-19.1,7.9-7.9,11.9-7.9,19.1,2.8,14,7.9,19.1l15.3,15.3,3.8,3.8,7.5,7.5,3.8-3.8-7.5-7.5Z"/>
  </g>
</svg>