<?xml version="1.0" encoding="UTF-8"?>
<svg id="Layer_1" xmlns="http://www.w3.org/2000/svg" version="1.1" viewBox="0 0 164.8 60.3">
  <!-- Generator: Adobe Illustrator 29.5.1, SVG Export Plug-In . SVG Version: 2.1.0 Build 141)  -->
  <defs>
    <style>
      .st0 {
        fill: #fff;
      }
    </style>
  </defs>
  <path class="st0" d="M107.8,21.5S85.2.5,57.9,13.5.4,13.2.4,13.2c0,0,25.5,8.9,46.4-7.3,25.4-19.6,61,15.6,61,15.6"/>
  <polygon class="st0" points="22.7 26.6 17.3 40.6 14.8 40.6 11.2 30.9 7.5 40.6 4.9 40.6 0 26.9 3.6 26.2 6.7 36.2 10.4 26.5 12.8 26.5 16.4 36.2 19.7 26.2 22.7 26.6"/>
  <path class="st0" d="M32.3,34.3v-1.4c-.3,0-.8.2-1.5.4-2.4.6-3.6,1.6-3.6,3s.2,1.1.5,1.5.8.6,1.4.6,1.3-.2,1.9-.7c.5-.4.8-.9,1-1.4.2-.7.4-1.4.3-2M36.5,40.6h-3.9c-.2-.6-.3-1.2-.3-1.9-1.2,1.5-2.7,2.2-4.5,2.2s-2.1-.4-2.9-1.2-1.2-1.8-1.2-2.9c0-1.7.9-3,2.6-4.1,1-.6,2.2-1.1,3.8-1.4.6-.2,1.4-.3,2.3-.5-.4-1.7-1.3-2.5-2.8-2.5s-2.4.5-3.6,1.5l-1.2-1.7c1.6-1.3,3.5-1.9,5.6-1.9s3.8.6,4.7,1.9c.4.5.6,1,.7,1.5.1.6.2,1.5.2,2.7v3.8c0,2,.2,3.5.6,4.5"/>
  <polygon class="st0" points="52 26.8 45.9 40.6 43.4 40.6 37.7 26.9 41.4 26.2 45.1 36.1 49 26.2 52 26.8"/>
  <g>
    <path class="st0" d="M62.7,32c0-.2,0-.4,0-.7-.2-2.1-1.1-3.2-2.7-3.2s-3,1.3-3.1,3.9h5.9ZM66.1,33.4s-.1.1-.4.2c-.2.1-.4.2-.4.3h-8.5c0,1.4.4,2.6,1.2,3.4.8.8,1.8,1.2,3.1,1.2s2.4-.4,3.7-1.1l1,1.9c-1.9,1.1-3.7,1.6-5.5,1.6s-3.8-.6-5.1-1.9c-1.6-1.5-2.3-3.4-2.3-5.7s.7-3.9,2.1-5.2c1.3-1.3,3-1.9,5-1.9s4.3,1,5.2,3.1c.5,1.1.8,2.5.8,4.2"/>
    <path class="st0" d="M83.6,32c0-.2,0-.4,0-.7-.2-2.1-1.1-3.2-2.7-3.2s-3,1.3-3.1,3.9h5.9ZM86.9,33.4s-.1.1-.4.2c-.2.1-.4.2-.4.3h-8.5c0,1.4.4,2.6,1.2,3.4.8.8,1.8,1.2,3.1,1.2s2.4-.4,3.7-1.1l1,1.9c-1.9,1.1-3.7,1.6-5.5,1.6s-3.8-.6-5.1-1.9c-1.6-1.5-2.3-3.4-2.3-5.7s.7-3.9,2.1-5.2c1.3-1.3,3-1.9,5-1.9s4.3,1,5.2,3.1c.5,1.1.8,2.5.8,4.2"/>
    <path class="st0" d="M103.7,40.6h-3.7v-8.1c0-1.2-.2-2.1-.5-2.7-.5-.8-1.2-1.2-2.3-1.2-1.5,0-2.5.6-3,1.9-.2.5-.3,1.3-.3,2.3v7.6h-3.8v-14.1h3.8v1.9c1.4-1.5,3-2.2,4.8-2.2s3.7.9,4.5,2.7c.3.7.4,2,.4,3.8v8Z"/>
    <path class="st0" d="M116.8,32c0-.2,0-.4,0-.7-.2-2.1-1.1-3.2-2.7-3.2s-3,1.3-3.1,3.9h5.9ZM120.1,33.4s-.1.1-.4.2c-.2.1-.4.2-.4.3h-8.5c0,1.4.4,2.6,1.2,3.4.8.8,1.8,1.2,3.1,1.2s2.4-.4,3.7-1.1l1,1.9c-1.9,1.1-3.7,1.6-5.5,1.6s-3.8-.6-5.1-1.9c-1.6-1.5-2.3-3.4-2.3-5.7s.7-3.9,2.1-5.2c1.3-1.3,3-1.9,5-1.9s4.3,1,5.2,3.1c.5,1.1.8,2.5.8,4.2"/>
    <path class="st0" d="M132.9,27.4l-1.4,2.7c-.8-.4-1.4-.6-1.8-.6-1.1,0-1.8.6-2.2,1.7-.2.7-.4,1.8-.4,3.4v6h-3.7v-14.1h3.7v2.5l.5-.9c.8-1.3,1.6-1.9,2.6-1.9s1.7.4,2.6,1.3"/>
    <path class="st0" d="M144.6,33.3c0-1.6-.3-2.8-1-3.7-.6-.9-1.5-1.3-2.7-1.3s-1.9.4-2.5,1.3c-.6.9-.9,2.1-.9,3.6s.3,2.9.9,3.9c.6,1,1.5,1.5,2.5,1.5s1.9-.5,2.6-1.5c.6-1,1-2.3,1-3.9M148.3,37.7c0,2.1,0,3.6-.3,4.4-.9,3.7-3.4,5.6-7.5,5.6s-4.1-.5-6-1.4l.7-2.3c1.6.8,3.1,1.3,4.6,1.3,2.3,0,3.8-.9,4.4-2.7.2-.6.3-1.6.3-2.9v-1.1c-1.4,1.6-2.9,2.4-4.6,2.4s-3.5-.7-4.7-2.2c-1.1-1.4-1.6-3.1-1.6-5.1s.6-3.9,1.9-5.3c1.3-1.4,2.8-2.1,4.7-2.1s3.3.8,4.3,2.3v-1.9h3.7v11.2Z"/>
    <path class="st0" d="M164.8,26.8l-6.9,15.5c-.9,2-1.7,3.3-2.5,4-1,.8-2.5,1.3-4.4,1.3h-.9v-2.5h.7c.9,0,1.5-.1,2-.4.5-.2.9-.7,1.4-1.3.4-.6,1-1.9,1.8-3.8l-5.5-12.7,3.7-.7,3.6,9.9,4-9.9,2.9.6Z"/>
  </g>
  <polygon class="st0" points="65.3 60.1 56.9 60.1 56.9 46.1 59.7 46.1 59.7 58.2 65.3 58.2 65.3 60.1"/>
  <g>
    <path class="st0" d="M13.9,56.4c0,1.2-.5,2.1-1.4,2.8-.9.7-2.1,1.1-3.5,1.1s-2.9-.4-4.2-1.3l1.1-1.7c1,.8,1.9,1.1,2.9,1.1s1.2-.2,1.6-.5c.4-.3.6-.8.6-1.4s-.5-1.5-1.5-2.4c-.5-.4-1.2-1-2.2-1.9-1.2-.9-1.7-1.9-1.7-3s.4-1.9,1.3-2.5c.8-.6,1.9-1,3.3-1s2.5.4,3.6,1.1l-1.1,1.5c-.8-.5-1.5-.8-2.3-.8s-1,.1-1.3.4c-.3.3-.5.6-.5,1.1s.4,1.2,1.3,1.9c.3.3,1,.9,2.2,1.8,1.3,1.1,2,2.3,2,3.5"/>
    <path class="st0" d="M27.9,47l-.9,1.7c-1-.6-2-.9-3-.9-1.5,0-2.7.5-3.7,1.4-.9,1-1.4,2.2-1.4,3.8s.5,2.8,1.4,3.8c.9,1,2.2,1.5,3.8,1.5s2-.3,3-.8l.7,1.7c-1.2.7-2.6,1-4.1,1-2.3,0-4.1-.7-5.6-2-1.5-1.3-2.2-3.1-2.2-5.2s.7-3.9,2.2-5.2c1.5-1.4,3.4-2.1,5.6-2.1s2.8.4,4.2,1.1"/>
    <path class="st0" d="M39.9,53.1c0-1.7-.4-3-1.1-3.9-.7-.9-1.7-1.4-3-1.4s-2.3.6-3,1.7c-.6,1-.9,2.2-.9,3.5s.3,2.6.9,3.6c.7,1.1,1.7,1.7,3.1,1.7s2.2-.5,2.9-1.4c.7-.9,1.1-2.2,1.1-3.8M43,53c0,2.1-.6,3.9-1.9,5.2-1.3,1.4-3,2.1-5.1,2.1s-3.8-.7-5.1-2.1c-1.3-1.4-1.9-3.1-1.9-5.2s.7-3.8,2-5.1c1.3-1.3,3-2,5.1-2s3.6.7,4.9,2c1.3,1.4,2,3,2,5.1"/>
  </g>
  <polygon class="st0" points="55.1 48 50.8 48 50.8 60.1 48 60.1 48 48 43.7 48 43.7 46.1 55.1 46.1 55.1 48"/>
  <path class="st0" d="M74.7,54.6l-1.8-5.4-2,5.4h3.9ZM79.6,60.1h-3l-1.3-3.8h-5l-1.5,3.8h-2.3l5.7-14h2.2l5.3,14Z"/>
  <polygon class="st0" points="93 60.1 91.1 60.1 83.6 50.4 83.6 60.1 81.3 60.1 81.3 46.1 83.2 46.1 90.7 55.8 90.7 46.1 93 46.1 93 60.1"/>
  <path class="st0" d="M105.9,52.9c0-2.1-.7-3.6-2.1-4.3-.7-.4-1.8-.6-3.4-.6h-1.2v10.3h1.1c1,0,1.8,0,2.4-.2.6-.2,1.1-.4,1.6-.8,1.1-.9,1.6-2.4,1.6-4.3M108.9,52.7c0,2.9-1.1,5-3.4,6.3-1.3.7-3,1.1-5.2,1.1h-3.9v-14h3.9c1.3,0,2.4,0,3.1.2.6.1,1.2.4,1.9.7,2.4,1.2,3.6,3.1,3.6,5.7"/>
</svg>