<svg width="11" height="10" viewBox="0 0 11 10" fill="none" xmlns="http://www.w3.org/2000/svg">
<g clip-path="url(#clip0_412_5628)">
<path fill-rule="evenodd" clip-rule="evenodd" d="M10.0655 0.54885C10.0292 0.461043 9.97544 0.378738 9.90431 0.3072L9.90272 0.305607L9.90113 0.304019C9.76553 0.169229 9.57869 0.0859375 9.37239 0.0859375H1.03906C0.624849 0.0859375 0.289062 0.421724 0.289062 0.835937C0.289062 1.25015 0.624849 1.58593 1.03906 1.58593H7.56173L0.508733 8.63894C0.215839 8.93183 0.215839 9.4067 0.508733 9.6996C0.801626 9.99249 1.27649 9.99249 1.56939 9.6996L8.62239 2.64659V9.16927C8.62239 9.58348 8.95818 9.91927 9.37239 9.91927C9.7866 9.91927 10.1224 9.58348 10.1224 9.16927V0.835937C10.1224 0.734245 10.1022 0.63728 10.0655 0.54885Z" fill="black"/>
</g>
<defs>
<clipPath id="clip0_412_5628">
<rect width="10" height="10" fill="white" transform="translate(0.207031)"/>
</clipPath>
</defs>
</svg>
