<svg width="310" height="232" viewBox="0 0 310 232" fill="none" xmlns="http://www.w3.org/2000/svg">
<g clip-path="url(#clip0_455_507)">
<rect width="310" height="232" fill="#152445"/>
<g clip-path="url(#clip1_455_507)">
<path d="M121.166 39.7129C147.674 39.7129 169.231 61.2591 169.248 87.7637H192.056C192.056 101.675 203.387 113.008 217.299 113.008V135.846C190.79 135.846 169.234 114.3 169.217 87.7949H146.41C146.41 73.8834 135.078 62.5508 121.166 62.5508V39.7129ZM192.056 38.8438C192.056 52.7552 203.387 64.0869 217.299 64.0869V86.9248C190.809 86.9248 169.217 65.3625 169.217 38.8438H192.056Z" fill="#327CFF"/>
<path d="M121.166 -9.2334C147.685 -9.2334 169.248 12.3289 169.248 38.8477H146.41C146.41 24.9362 135.077 13.6045 121.166 13.6045V-9.2334ZM192.056 -10.0801C192.056 3.83142 203.387 15.164 217.299 15.1641V38.002C190.78 38.0019 169.217 16.4387 169.217 -10.0801H192.056ZM192.056 -59C192.056 -45.0885 203.387 -33.7569 217.299 -33.7568V-10.918C190.809 -10.918 169.217 -32.4812 169.217 -59H192.056Z" fill="#327CFF"/>
<path d="M121.166 186.453C147.685 186.453 169.248 208.016 169.248 234.535H146.41C146.41 220.624 135.078 209.291 121.166 209.291V186.453ZM121.166 137.561C147.675 137.561 169.231 159.107 169.248 185.611H192.056C192.056 199.523 203.387 210.855 217.299 210.855V233.693C190.79 233.693 169.234 212.147 169.217 185.643H146.41C146.41 171.731 135.078 160.398 121.166 160.398V137.561ZM192.056 136.691C192.056 150.603 203.387 161.935 217.299 161.935V184.772C190.809 184.772 169.217 163.21 169.217 136.691H192.056Z" fill="#327CFF"/>
<path d="M217.297 88.6055C243.816 88.6056 265.378 110.169 265.378 136.688H242.54C242.54 122.776 231.208 111.444 217.297 111.444V88.6055ZM217.297 39.7129C243.805 39.713 265.361 61.2592 265.378 87.7637H288.188C288.188 101.675 299.519 113.008 313.431 113.008V135.846C286.922 135.846 265.366 114.299 265.35 87.7949H242.54C242.54 73.8835 231.208 62.5509 217.297 62.5508V39.7129ZM288.188 38.8438C288.188 52.7551 299.519 64.0867 313.431 64.0869V86.9248C286.941 86.9246 265.35 65.3624 265.35 38.8438H288.188Z" fill="#327CFF"/>
<path d="M217.297 -9.2334C243.816 -9.23325 265.378 12.329 265.378 38.8477H242.54C242.54 24.9363 231.208 13.6046 217.297 13.6045V-9.2334ZM217.297 -58.1309C243.805 -58.1307 265.361 -36.5845 265.378 -10.0801H288.188C288.188 3.83133 299.519 15.1639 313.431 15.1641V38.002C286.922 38.0018 265.366 16.4557 265.35 -10.0488H242.54C242.54 -23.9602 231.208 -35.2918 217.297 -35.292V-58.1309ZM288.188 -59C288.188 -45.0886 299.519 -33.757 313.431 -33.7568V-10.918C286.941 -10.9181 265.35 -32.4813 265.35 -59H288.188Z" fill="#327CFF"/>
<path d="M217.297 186.453C243.816 186.453 265.378 208.016 265.378 234.535H242.54C242.54 220.624 231.208 209.291 217.297 209.291V186.453ZM217.297 137.561C243.805 137.561 265.361 159.107 265.378 185.611H288.188C288.188 199.523 299.519 210.855 313.431 210.855V233.693C286.922 233.693 265.366 212.147 265.35 185.643H242.54C242.54 171.731 231.208 160.399 217.297 160.398V137.561ZM288.188 136.691C288.188 150.603 299.519 161.934 313.431 161.935V184.772C286.941 184.772 265.35 163.21 265.35 136.691H288.188Z" fill="#327CFF"/>
</g>
<path d="M95.916 90.5039C95.916 104.415 107.249 115.747 121.16 115.747V138.586C94.6413 138.586 73.0781 117.023 73.0781 90.5039H95.916ZM25 42.418C51.5188 42.418 73.082 63.9812 73.082 90.5H50.2432C50.2432 76.5885 38.9115 65.2559 25 65.2559V42.418ZM95.916 41.5469C95.916 55.4584 107.249 66.79 121.16 66.79V89.6289C94.6703 89.6289 73.0781 68.0657 73.0781 41.5469H95.916Z" fill="#327CFF"/>
</g>
<defs>
<clipPath id="clip0_455_507">
<rect width="310" height="232" fill="white"/>
</clipPath>
<clipPath id="clip1_455_507">
<rect width="298.871" height="391.378" fill="white" transform="translate(121.16 -59)"/>
</clipPath>
</defs>
</svg>
