<svg width="14" height="15" viewBox="0 0 14 15" fill="none" xmlns="http://www.w3.org/2000/svg">
<path d="M12.7273 0.402344H1.27273C0.569545 0.402344 0 0.971889 0 1.67507V13.1296C0 13.8328 0.569545 14.4023 1.27273 14.4023H12.7273C13.4305 14.4023 14 13.8328 14 13.1296V1.67507C14 0.971889 13.4305 0.402344 12.7273 0.402344ZM4.42527 11.8569H2.548V5.81653H4.42527V11.8569ZM3.46755 4.95298C2.86236 4.95298 2.373 4.46234 2.373 3.85843C2.373 3.25453 2.863 2.76453 3.46755 2.76453C4.07082 2.76453 4.56145 3.25516 4.56145 3.85843C4.56145 4.46234 4.07082 4.95298 3.46755 4.95298ZM11.4571 11.8569H9.58109V8.91943C9.58109 8.2188 9.56836 7.31771 8.60555 7.31771C7.62873 7.31771 7.47855 8.08071 7.47855 8.86853V11.8569H5.60255V5.81653H7.40345V6.64189H7.42891C7.67964 6.16716 8.29182 5.66634 9.205 5.66634C11.1058 5.66634 11.4571 6.91744 11.4571 8.54398V11.8569Z" fill="white"/>
</svg>
