<svg xmlns="http://www.w3.org/2000/svg" viewBox="0 0 100 100" preserveAspectRatio="xMidYMid" width="104" height="104" style="shape-rendering: auto; display: block; background: transparent;" xmlns:xlink="http://www.w3.org/1999/xlink"><g><g transform="rotate(0 50 50)">
  <rect fill="#eb5432" height="15" width="15" ry="7.5" rx="7.5" y="1.5" x="42.5">
    <animate repeatCount="indefinite" begin="-1.3071895424836601s" dur="1.4705882352941175s" keyTimes="0;1" values="1;0" attributeName="opacity"></animate>
  </rect>
</g><g transform="rotate(40 50 50)">
  <rect fill="#eb5432" height="15" width="15" ry="7.5" rx="7.5" y="1.5" x="42.5">
    <animate repeatCount="indefinite" begin="-1.1437908496732025s" dur="1.4705882352941175s" keyTimes="0;1" values="1;0" attributeName="opacity"></animate>
  </rect>
</g><g transform="rotate(80 50 50)">
  <rect fill="#eb5432" height="15" width="15" ry="7.5" rx="7.5" y="1.5" x="42.5">
    <animate repeatCount="indefinite" begin="-0.9803921568627451s" dur="1.4705882352941175s" keyTimes="0;1" values="1;0" attributeName="opacity"></animate>
  </rect>
</g><g transform="rotate(120 50 50)">
  <rect fill="#eb5432" height="15" width="15" ry="7.5" rx="7.5" y="1.5" x="42.5">
    <animate repeatCount="indefinite" begin="-0.8169934640522876s" dur="1.4705882352941175s" keyTimes="0;1" values="1;0" attributeName="opacity"></animate>
  </rect>
</g><g transform="rotate(160 50 50)">
  <rect fill="#eb5432" height="15" width="15" ry="7.5" rx="7.5" y="1.5" x="42.5">
    <animate repeatCount="indefinite" begin="-0.6535947712418301s" dur="1.4705882352941175s" keyTimes="0;1" values="1;0" attributeName="opacity"></animate>
  </rect>
</g><g transform="rotate(200 50 50)">
  <rect fill="#eb5432" height="15" width="15" ry="7.5" rx="7.5" y="1.5" x="42.5">
    <animate repeatCount="indefinite" begin="-0.49019607843137253s" dur="1.4705882352941175s" keyTimes="0;1" values="1;0" attributeName="opacity"></animate>
  </rect>
</g><g transform="rotate(240 50 50)">
  <rect fill="#eb5432" height="15" width="15" ry="7.5" rx="7.5" y="1.5" x="42.5">
    <animate repeatCount="indefinite" begin="-0.32679738562091504s" dur="1.4705882352941175s" keyTimes="0;1" values="1;0" attributeName="opacity"></animate>
  </rect>
</g><g transform="rotate(280 50 50)">
  <rect fill="#eb5432" height="15" width="15" ry="7.5" rx="7.5" y="1.5" x="42.5">
    <animate repeatCount="indefinite" begin="-0.16339869281045752s" dur="1.4705882352941175s" keyTimes="0;1" values="1;0" attributeName="opacity"></animate>
  </rect>
</g><g transform="rotate(320 50 50)">
  <rect fill="#eb5432" height="15" width="15" ry="7.5" rx="7.5" y="1.5" x="42.5">
    <animate repeatCount="indefinite" begin="0s" dur="1.4705882352941175s" keyTimes="0;1" values="1;0" attributeName="opacity"></animate>
  </rect>
</g><g></g></g><!-- [ldio] generated by https://loading.io --></svg>