<svg width="1512" height="757" viewBox="0 0 1512 757" fill="none" xmlns="http://www.w3.org/2000/svg">
<g clip-path="url(#clip0_546_437)">
<path d="M137.383 67.6523V101.874C156.42 101.874 171.86 117.318 171.86 136.359H206.074C206.074 98.4518 175.282 67.6523 137.383 67.6523Z" fill="#327CFF"/>
<path d="M102.906 272.895H68.6914C68.6914 310.802 99.4841 341.601 137.383 341.601V307.379C118.346 307.379 102.906 291.936 102.906 272.895Z" fill="#327CFF"/>
<path d="M137.383 410.223V444.444C156.42 444.444 171.86 459.888 171.86 478.929H206.074C206.074 441.022 175.282 410.223 137.383 410.223Z" fill="#327CFF"/>
<path d="M34.4773 546.843H68.6914C68.6914 508.936 37.8987 478.137 0 478.137V512.358C19.0371 512.358 34.4773 527.802 34.4773 546.843Z" fill="#327CFF"/>
<path d="M137.383 547.105V581.327C156.42 581.327 171.86 596.771 171.86 615.812H206.074C206.074 577.905 175.282 547.105 137.383 547.105Z" fill="#327CFF"/>
<path d="M0 615.199V649.421C19.0371 649.421 34.4773 664.864 34.4773 683.906H68.6914C68.6914 645.999 37.8987 615.199 0 615.199Z" fill="#327CFF"/>
<path d="M102.906 683.992H68.6914C68.6914 721.899 99.4841 752.699 137.383 752.699V718.477C118.346 718.477 102.906 703.033 102.906 683.992Z" fill="#327CFF"/>
<path d="M137.383 684.258V718.479C156.42 718.479 171.86 733.923 171.86 752.964H206.074C206.074 715.057 175.282 684.258 137.383 684.258Z" fill="#327CFF"/>
<path d="M102.906 615.461H68.6914C68.6914 653.368 99.4841 684.167 137.383 684.167V649.946C118.346 649.946 102.906 634.502 102.906 615.461Z" fill="#327CFF"/>
<path d="M446.888 68.7065H481.103C481.103 30.7995 450.31 0 412.411 0V34.2216C431.448 34.2216 446.888 49.6652 446.888 68.7065Z" fill="#327CFF"/>
<path d="M240.551 136.273H206.337C206.337 174.18 237.13 204.98 275.028 204.98V170.758C255.991 170.758 240.551 155.315 240.551 136.273Z" fill="#327CFF"/>
<path d="M240.551 67.8281H206.337C206.337 105.735 237.13 136.535 275.028 136.535V102.313C255.991 102.313 240.551 86.8694 240.551 67.8281Z" fill="#327CFF"/>
<path d="M377.934 136.797H343.72C343.72 174.704 374.512 205.503 412.411 205.503V171.282C393.374 171.282 377.934 155.838 377.934 136.797Z" fill="#327CFF"/>
<path d="M309.506 342.218H343.72C343.72 304.311 312.927 273.512 275.028 273.512V307.733C294.065 307.733 309.506 323.177 309.506 342.218Z" fill="#327CFF"/>
<path d="M309.506 273.773H343.72C343.72 235.866 312.927 205.066 275.028 205.066V239.288C294.065 239.288 309.506 254.732 309.506 273.773Z" fill="#327CFF"/>
<path d="M377.934 273.773H343.72C343.72 311.68 374.512 342.48 412.411 342.48V308.258C393.374 308.258 377.934 292.815 377.934 273.773Z" fill="#327CFF"/>
<path d="M446.888 342.742H481.103C481.103 304.835 450.31 274.035 412.411 274.035V308.257C431.448 308.257 446.888 323.7 446.888 342.742Z" fill="#327CFF"/>
<path d="M377.934 205.328H343.72C343.72 243.235 374.512 274.035 412.411 274.035V239.813C393.374 239.813 377.934 224.369 377.934 205.328Z" fill="#327CFF"/>
<path d="M240.551 410.309H206.337C206.337 448.216 237.13 479.015 275.028 479.015V444.793C255.991 444.793 240.551 429.35 240.551 410.309Z" fill="#327CFF"/>
<path d="M240.551 341.867H206.337C206.337 379.774 237.13 410.574 275.028 410.574V376.352C255.991 376.352 240.551 360.908 240.551 341.867Z" fill="#327CFF"/>
<path d="M309.506 410.835H343.72C343.72 372.928 312.927 342.129 275.028 342.129V376.351C294.065 376.351 309.506 391.794 309.506 410.835Z" fill="#327CFF"/>
<path d="M377.934 410.836H343.72C343.72 448.743 374.512 479.542 412.411 479.542V445.321C393.374 445.321 377.934 429.877 377.934 410.836Z" fill="#327CFF"/>
<path d="M377.934 342.391H343.72C343.72 380.298 374.512 411.097 412.411 411.097V376.875C393.374 376.875 377.934 361.432 377.934 342.391Z" fill="#327CFF"/>
<path d="M240.551 547.281H206.337C206.337 585.188 237.13 615.988 275.028 615.988V581.766C255.991 581.766 240.551 566.323 240.551 547.281Z" fill="#327CFF"/>
<path d="M309.506 616.253H343.72C343.72 578.346 312.927 547.547 275.028 547.547V581.769C294.065 581.769 309.506 597.212 309.506 616.253Z" fill="#327CFF"/>
<path d="M309.506 547.808H343.72C343.72 509.901 312.927 479.102 275.028 479.102V513.323C294.065 513.323 309.506 528.767 309.506 547.808Z" fill="#327CFF"/>
<path d="M377.934 547.809H343.72C343.72 585.716 374.512 616.515 412.411 616.515V582.293C393.374 582.293 377.934 566.85 377.934 547.809Z" fill="#327CFF"/>
<path d="M446.888 616.781H481.103C481.103 578.874 450.31 548.074 412.411 548.074V582.296C431.448 582.296 446.888 597.739 446.888 616.781Z" fill="#327CFF"/>
<path d="M377.934 479.277H343.72C343.72 517.184 374.512 547.984 412.411 547.984V513.762C393.374 513.762 377.934 498.319 377.934 479.277Z" fill="#327CFF"/>
<path d="M240.551 684.344H206.337C206.337 722.251 237.13 753.05 275.028 753.05V718.829C255.991 718.829 240.551 703.385 240.551 684.344Z" fill="#327CFF"/>
<path d="M275.028 684.609V718.831C294.065 718.831 309.506 734.275 309.506 753.316H343.72C343.72 715.409 312.927 684.609 275.028 684.609Z" fill="#327CFF"/>
<path d="M240.551 615.902H206.337C206.337 653.809 237.13 684.609 275.028 684.609V650.387C255.991 650.387 240.551 634.944 240.551 615.902Z" fill="#327CFF"/>
<path d="M309.506 684.871H343.72C343.72 646.964 312.927 616.164 275.028 616.164V650.386C294.065 650.386 309.506 665.829 309.506 684.871Z" fill="#327CFF"/>
<path d="M377.934 684.871H343.72C343.72 722.778 374.512 753.578 412.411 753.578V719.356C393.374 719.356 377.934 703.912 377.934 684.871Z" fill="#327CFF"/>
<path d="M412.411 685.133V719.354C431.448 719.354 446.888 734.798 446.888 753.839H481.103C481.103 715.932 450.31 685.133 412.411 685.133Z" fill="#327CFF"/>
<path d="M412.411 616.605V650.827C431.448 650.827 446.888 666.271 446.888 685.312H481.103C481.103 647.405 450.31 616.605 412.411 616.605Z" fill="#327CFF"/>
<path d="M515.317 0.175781H481.103C481.103 38.0828 511.895 68.8823 549.794 68.8823V34.6607C530.757 34.6607 515.317 19.2171 515.317 0.175781Z" fill="#327CFF"/>
<path d="M584.271 69.144H618.485C618.485 31.237 587.693 0.4375 549.794 0.4375V34.6591C568.831 34.6591 584.271 50.1027 584.271 69.144Z" fill="#327CFF"/>
<path d="M652.699 0.703125H618.485C618.485 38.6102 649.278 69.4096 687.177 69.4096V35.188C668.14 35.188 652.699 19.7444 652.699 0.703125Z" fill="#327CFF"/>
<path d="M515.317 137.236H481.103C481.103 99.4167 450.222 68.6172 412.411 68.6172V102.839C431.448 102.839 446.888 118.282 446.888 137.324H481.103C481.103 175.143 511.983 205.942 549.794 205.942V171.721C530.757 171.721 515.317 156.277 515.317 137.236Z" fill="#327CFF"/>
<path d="M584.271 206.207H618.485C618.485 168.299 587.693 137.5 549.794 137.5V171.722C568.831 171.722 584.271 187.165 584.271 206.207Z" fill="#327CFF"/>
<path d="M652.699 137.766H618.485C618.485 175.673 649.278 206.472 687.177 206.472V172.25C668.14 172.25 652.699 156.807 652.699 137.766Z" fill="#327CFF"/>
<path d="M687.177 138.027V172.249C706.214 172.249 721.654 187.693 721.654 206.734H755.868C755.868 168.827 725.075 138.027 687.177 138.027Z" fill="#327CFF"/>
<path d="M652.699 69.2344H618.485C618.485 107.141 649.278 137.941 687.177 137.941V103.719C668.14 103.719 652.699 88.2756 652.699 69.2344Z" fill="#327CFF"/>
<path d="M687.177 69.4961V103.718C706.214 103.718 721.654 119.161 721.654 138.203H755.868C755.868 100.296 725.075 69.4961 687.177 69.4961Z" fill="#327CFF"/>
<path d="M515.317 274.213H481.103C481.103 236.393 450.222 205.594 412.411 205.594V239.815C431.448 239.815 446.888 255.259 446.888 274.3H481.103C481.103 312.12 511.983 342.919 549.794 342.919V308.697C530.757 308.697 515.317 293.254 515.317 274.213Z" fill="#327CFF"/>
<path d="M584.271 343.183H618.485C618.485 305.276 587.693 274.477 549.794 274.477V308.698C568.831 308.698 584.271 324.142 584.271 343.183Z" fill="#327CFF"/>
<path d="M515.317 205.681H481.103C481.103 167.862 450.222 137.062 412.411 137.062V171.284C431.448 171.284 446.888 186.728 446.888 205.769H481.103C481.103 243.588 511.983 274.388 549.794 274.388V240.166C530.757 240.166 515.317 224.723 515.317 205.681Z" fill="#327CFF"/>
<path d="M584.271 274.652H618.485C618.485 236.745 587.693 205.945 549.794 205.945V240.167C568.831 240.167 584.271 255.611 584.271 274.652Z" fill="#327CFF"/>
<path d="M652.699 274.738H618.485C618.485 312.645 649.278 343.445 687.177 343.445V309.223C668.14 309.223 652.699 293.78 652.699 274.738Z" fill="#327CFF"/>
<path d="M687.177 274.914V309.136C706.214 309.136 721.654 324.579 721.654 343.621H755.868C755.868 305.714 725.075 274.914 687.177 274.914Z" fill="#327CFF"/>
<path d="M652.699 206.207H618.485C618.485 244.114 649.278 274.914 687.177 274.914V240.692C668.14 240.692 652.699 225.248 652.699 206.207Z" fill="#327CFF"/>
<path d="M687.177 206.469V240.69C706.214 240.69 721.654 256.134 721.654 275.175H755.868C755.868 237.268 725.075 206.469 687.177 206.469Z" fill="#327CFF"/>
<path d="M515.317 411.275H481.103C481.103 373.456 450.222 342.656 412.411 342.656V376.878C431.448 376.878 446.888 392.321 446.888 411.363H481.103C481.103 449.182 511.983 479.982 549.794 479.982V445.76C530.757 445.76 515.317 430.316 515.317 411.275Z" fill="#327CFF"/>
<path d="M584.271 480.242H618.485C618.485 442.335 587.693 411.535 549.794 411.535V445.757C568.831 445.757 584.271 461.2 584.271 480.242Z" fill="#327CFF"/>
<path d="M515.317 342.742H481.103C481.103 380.649 511.895 411.449 549.794 411.449V377.227C530.757 377.227 515.317 361.783 515.317 342.742Z" fill="#327CFF"/>
<path d="M584.271 411.714H618.485C618.485 373.807 587.693 343.008 549.794 343.008V377.229C568.831 377.229 584.271 392.673 584.271 411.714Z" fill="#327CFF"/>
<path d="M652.699 411.801H618.485C618.485 449.708 649.278 480.507 687.177 480.507V446.286C668.14 446.286 652.699 430.842 652.699 411.801Z" fill="#327CFF"/>
<path d="M687.177 412.062V446.284C706.214 446.284 721.654 461.728 721.654 480.769H755.868C755.868 442.862 725.075 412.062 687.177 412.062Z" fill="#327CFF"/>
<path d="M652.699 343.27H618.485C618.485 381.177 649.278 411.976 687.177 411.976V377.754C668.14 377.754 652.699 362.311 652.699 343.27Z" fill="#327CFF"/>
<path d="M687.177 343.531V377.753C706.214 377.753 721.654 393.196 721.654 412.238H755.868C755.868 374.331 725.075 343.531 687.177 343.531Z" fill="#327CFF"/>
<path d="M515.317 548.248H481.103C481.103 510.428 450.222 479.629 412.411 479.629V513.851C431.448 513.851 446.888 529.294 446.888 548.335H481.103C481.103 586.155 511.983 616.954 549.794 616.954V582.733C530.757 582.733 515.317 567.289 515.317 548.248Z" fill="#327CFF"/>
<path d="M584.271 617.218H618.485C618.485 579.311 587.693 548.512 549.794 548.512V582.733C568.831 582.733 584.271 598.177 584.271 617.218Z" fill="#327CFF"/>
<path d="M515.317 479.716H481.103C481.103 441.897 450.222 411.098 412.411 411.098V445.319C431.448 445.319 446.888 460.763 446.888 479.804H481.103C481.103 517.623 511.983 548.423 549.794 548.423V514.201C530.757 514.201 515.317 498.758 515.317 479.716Z" fill="#327CFF"/>
<path d="M584.271 548.687H618.485C618.485 510.78 587.693 479.98 549.794 479.98V514.202C568.831 514.202 584.271 529.646 584.271 548.687Z" fill="#327CFF"/>
<path d="M652.699 548.688H618.485C618.485 586.595 649.278 617.394 687.177 617.394V583.172C668.14 583.172 652.699 567.729 652.699 548.688Z" fill="#327CFF"/>
<path d="M687.177 548.949V583.171C706.214 583.171 721.654 598.614 721.654 617.656H755.868C755.868 579.749 725.075 548.949 687.177 548.949Z" fill="#327CFF"/>
<path d="M652.699 480.242H618.485C618.485 518.149 649.278 548.949 687.177 548.949V514.727C668.14 514.727 652.699 499.283 652.699 480.242Z" fill="#327CFF"/>
<path d="M687.177 480.508V514.729C706.214 514.729 721.654 530.173 721.654 549.214H755.868C755.868 511.307 725.075 480.508 687.177 480.508Z" fill="#327CFF"/>
<path d="M549.794 685.484V719.706C568.831 719.706 584.271 735.15 584.271 754.191H618.485C618.485 716.284 587.693 685.484 549.794 685.484Z" fill="#327CFF"/>
<path d="M515.317 616.777H481.103C481.103 654.684 511.895 685.484 549.794 685.484V651.262C530.757 651.262 515.317 635.819 515.317 616.777Z" fill="#327CFF"/>
<path d="M584.271 685.749H618.485C618.485 647.842 587.693 617.043 549.794 617.043V651.265C568.831 651.265 584.271 666.708 584.271 685.749Z" fill="#327CFF"/>
<path d="M652.699 685.836H618.485C618.485 723.743 649.278 754.542 687.177 754.542V720.321C668.14 720.321 652.699 704.877 652.699 685.836Z" fill="#327CFF"/>
<path d="M687.177 686.012V720.233C706.214 720.233 721.654 735.677 721.654 754.718H755.868C755.868 716.811 725.075 686.012 687.177 686.012Z" fill="#327CFF"/>
<path d="M652.699 617.305H618.485C618.485 655.212 649.278 686.011 687.177 686.011V651.79C668.14 651.79 652.699 636.346 652.699 617.305Z" fill="#327CFF"/>
<path d="M687.177 617.57V651.792C706.214 651.792 721.654 667.236 721.654 686.277H755.868C755.868 648.37 725.075 617.57 687.177 617.57Z" fill="#327CFF"/>
<path d="M996.683 70.5503H1030.9C1030.9 32.6432 1000.1 1.84375 962.206 1.84375V36.0654C981.243 36.0654 996.683 51.509 996.683 70.5503Z" fill="#327CFF"/>
<path d="M790.346 138.113H756.132C756.132 176.02 786.924 206.82 824.823 206.82V172.598C805.786 172.598 790.346 157.155 790.346 138.113Z" fill="#327CFF"/>
<path d="M859.301 207.085H893.515C893.515 169.178 862.722 138.379 824.823 138.379V172.601C843.86 172.601 859.301 188.044 859.301 207.085Z" fill="#327CFF"/>
<path d="M790.346 69.6719H756.132C756.132 107.579 786.924 138.378 824.823 138.378V104.157C805.786 104.157 790.346 88.7131 790.346 69.6719Z" fill="#327CFF"/>
<path d="M927.729 138.641H893.515C893.515 176.548 924.307 207.347 962.206 207.347V173.125C943.169 173.125 927.729 157.682 927.729 138.641Z" fill="#327CFF"/>
<path d="M996.683 207.613H1030.9C1030.9 169.706 1000.1 138.906 962.206 138.906V173.128C981.243 173.128 996.683 188.571 996.683 207.613Z" fill="#327CFF"/>
<path d="M927.729 70.1992H893.515C893.515 108.106 924.307 138.906 962.206 138.906V104.684C943.169 104.684 927.729 89.2405 927.729 70.1992Z" fill="#327CFF"/>
<path d="M790.346 275.09H756.132C756.132 312.997 786.924 343.796 824.823 343.796V309.575C805.786 309.575 790.346 294.131 790.346 275.09Z" fill="#327CFF"/>
<path d="M859.301 344.058H893.515C893.515 306.151 862.722 275.352 824.823 275.352V309.573C843.86 309.573 859.301 325.017 859.301 344.058Z" fill="#327CFF"/>
<path d="M790.346 206.559H756.132C756.132 244.466 786.924 275.265 824.823 275.265V241.043C805.786 241.043 790.346 225.6 790.346 206.559Z" fill="#327CFF"/>
<path d="M859.301 275.617H893.515C893.515 237.71 862.722 206.91 824.823 206.91V241.132C843.86 241.132 859.301 256.575 859.301 275.617Z" fill="#327CFF"/>
<path d="M927.729 275.617H893.515C893.515 313.524 924.307 344.324 962.206 344.324V310.102C943.169 310.102 927.729 294.658 927.729 275.617Z" fill="#327CFF"/>
<path d="M996.683 344.585H1030.9C1030.9 306.678 1000.1 275.879 962.206 275.879V310.101C981.243 310.101 996.683 325.544 996.683 344.585Z" fill="#327CFF"/>
<path d="M927.729 207.086H893.515C893.515 244.993 924.307 275.792 962.206 275.792V241.571C943.169 241.571 927.729 226.127 927.729 207.086Z" fill="#327CFF"/>
<path d="M790.346 412.152H756.132C756.132 450.059 786.924 480.859 824.823 480.859V446.637C805.786 446.637 790.346 431.194 790.346 412.152Z" fill="#327CFF"/>
<path d="M859.301 481.121H893.515C893.515 443.214 862.722 412.414 824.823 412.414V446.636C843.86 446.636 859.301 462.079 859.301 481.121Z" fill="#327CFF"/>
<path d="M790.346 343.707H756.132C756.132 381.614 786.924 412.414 824.823 412.414V378.192C805.786 378.192 790.346 362.748 790.346 343.707Z" fill="#327CFF"/>
<path d="M859.301 412.679H893.515C893.515 374.772 862.722 343.973 824.823 343.973V378.194C843.86 378.194 859.301 393.638 859.301 412.679Z" fill="#327CFF"/>
<path d="M927.729 412.68H893.515C893.515 450.587 924.307 481.386 962.206 481.386V447.165C943.169 447.165 927.729 431.721 927.729 412.68Z" fill="#327CFF"/>
<path d="M927.729 344.148H893.515C893.515 382.055 924.307 412.855 962.206 412.855V378.633C943.169 378.633 927.729 363.19 927.729 344.148Z" fill="#327CFF"/>
<path d="M790.346 549.125H756.132C756.132 587.032 786.924 617.832 824.823 617.832V583.61C805.786 583.61 790.346 568.166 790.346 549.125Z" fill="#327CFF"/>
<path d="M859.301 618.097H893.515C893.515 580.19 862.722 549.391 824.823 549.391V583.612C843.86 583.612 859.301 599.056 859.301 618.097Z" fill="#327CFF"/>
<path d="M790.346 480.594H756.132C756.132 518.501 786.924 549.3 824.823 549.3V515.079C805.786 515.079 790.346 499.635 790.346 480.594Z" fill="#327CFF"/>
<path d="M859.301 549.566H893.515C893.515 511.659 862.722 480.859 824.823 480.859V515.081C843.86 515.081 859.301 530.525 859.301 549.566Z" fill="#327CFF"/>
<path d="M927.729 549.652H893.515C893.515 587.559 924.307 618.359 962.206 618.359V584.137C943.169 584.137 927.729 568.694 927.729 549.652Z" fill="#327CFF"/>
<path d="M996.683 618.621H1030.9C1030.9 580.714 1000.1 549.914 962.206 549.914V584.136C981.243 584.136 996.683 599.579 996.683 618.621Z" fill="#327CFF"/>
<path d="M927.729 481.121H893.515C893.515 519.028 924.307 549.828 962.206 549.828V515.606C943.169 515.606 927.729 500.162 927.729 481.121Z" fill="#327CFF"/>
<path d="M790.346 617.746H756.132C756.132 655.653 786.924 686.453 824.823 686.453V652.231C805.786 652.231 790.346 636.787 790.346 617.746Z" fill="#327CFF"/>
<path d="M824.823 617.918V652.14C843.86 652.14 859.301 667.583 859.301 686.624H893.515C893.515 648.717 862.722 617.918 824.823 617.918Z" fill="#327CFF"/>
<path d="M927.729 686.715H893.515C893.515 724.622 924.307 755.421 962.206 755.421V721.2C943.169 721.2 927.729 705.756 927.729 686.715Z" fill="#327CFF"/>
<path d="M962.206 686.977V721.198C981.243 721.198 996.683 736.642 996.683 755.683H1030.9C1030.9 717.776 1000.1 686.977 962.206 686.977Z" fill="#327CFF"/>
<path d="M927.729 618.184H893.515C893.515 656.091 924.307 686.89 962.206 686.89V652.668C943.169 652.668 927.729 637.225 927.729 618.184Z" fill="#327CFF"/>
<path d="M1065.11 2.01953H1030.9C1030.9 39.9266 1061.69 70.726 1099.59 70.726V36.5044C1080.55 36.5044 1065.11 21.0608 1065.11 2.01953Z" fill="#327CFF"/>
<path d="M1236.97 2.80859V37.0302C1256.01 37.0302 1271.45 52.4738 1271.45 71.5151H1305.66C1305.66 33.6081 1274.87 2.80859 1236.97 2.80859Z" fill="#327CFF"/>
<path d="M1065.11 139.082H1030.9C1030.9 176.989 1061.69 207.789 1099.59 207.789V173.567C1080.55 173.567 1065.11 158.123 1065.11 139.082Z" fill="#327CFF"/>
<path d="M1134.07 208.05H1168.28C1168.28 170.143 1137.49 139.344 1099.59 139.344V173.565C1118.63 173.565 1134.07 189.009 1134.07 208.05Z" fill="#327CFF"/>
<path d="M1065.11 70.6367H1030.9C1030.9 108.544 1061.69 139.343 1099.59 139.343V105.122C1080.55 105.122 1065.11 89.678 1065.11 70.6367Z" fill="#327CFF"/>
<path d="M1202.49 139.605H1168.28C1168.28 177.513 1199.07 208.312 1236.97 208.312V174.09C1217.93 174.09 1202.49 158.647 1202.49 139.605Z" fill="#327CFF"/>
<path d="M1236.97 139.871V174.093C1256.01 174.093 1271.45 189.536 1271.45 208.578H1305.66C1305.66 170.671 1274.87 139.871 1236.97 139.871Z" fill="#327CFF"/>
<path d="M1202.49 71.1641H1168.28C1168.28 109.071 1199.07 139.871 1236.97 139.871V105.649C1217.93 105.649 1202.49 90.2053 1202.49 71.1641Z" fill="#327CFF"/>
<path d="M1065.11 276.054H1030.9C1030.9 238.147 1000.1 207.348 962.206 207.348V241.569C981.243 241.569 996.683 257.013 996.683 276.054H1030.9C1030.9 313.961 1061.69 344.761 1099.59 344.761V310.539C1080.55 310.539 1065.11 295.095 1065.11 276.054Z" fill="#327CFF"/>
<path d="M1134.07 276.582H1168.28C1168.28 238.674 1137.49 207.875 1099.59 207.875V242.097C1118.63 242.097 1134.07 257.54 1134.07 276.582Z" fill="#327CFF"/>
<path d="M1202.49 276.582H1168.28C1168.28 314.489 1199.07 345.289 1236.97 345.289V311.067C1217.93 311.067 1202.49 295.623 1202.49 276.582Z" fill="#327CFF"/>
<path d="M1236.97 276.844V311.065C1256.01 311.065 1271.45 326.509 1271.45 345.55H1305.66C1305.66 307.643 1274.87 276.844 1236.97 276.844Z" fill="#327CFF"/>
<path d="M1065.11 413.117H1030.9C1030.9 375.21 1000.1 344.41 962.206 344.41V378.632C981.243 378.632 996.683 394.075 996.683 413.117H1030.9C1030.9 451.024 1061.69 481.823 1099.59 481.823V447.602C1080.55 447.602 1065.11 432.158 1065.11 413.117Z" fill="#327CFF"/>
<path d="M1134.07 482.085H1168.28C1168.28 444.178 1137.49 413.379 1099.59 413.379V447.601C1118.63 447.601 1134.07 463.044 1134.07 482.085Z" fill="#327CFF"/>
<path d="M1065.11 344.672H1030.9C1030.9 382.579 1061.69 413.378 1099.59 413.378V379.157C1080.55 379.157 1065.11 363.713 1065.11 344.672Z" fill="#327CFF"/>
<path d="M1134.07 413.644H1168.28C1168.28 375.737 1137.49 344.938 1099.59 344.938V379.159C1118.63 379.159 1134.07 394.603 1134.07 413.644Z" fill="#327CFF"/>
<path d="M1202.49 413.645H1168.28C1168.28 451.552 1199.07 482.351 1236.97 482.351V448.129C1217.93 448.129 1202.49 432.686 1202.49 413.645Z" fill="#327CFF"/>
<path d="M1202.49 345.199H1168.28C1168.28 383.106 1199.07 413.906 1236.97 413.906V379.684C1217.93 379.684 1202.49 364.24 1202.49 345.199Z" fill="#327CFF"/>
<path d="M1236.97 345.465V379.686C1256.01 379.686 1271.45 395.13 1271.45 414.171H1305.66C1305.66 376.264 1274.87 345.465 1236.97 345.465Z" fill="#327CFF"/>
<path d="M1065.11 550.089H1030.9C1030.9 512.182 1000.1 481.383 962.206 481.383V515.604C981.243 515.604 996.683 531.048 996.683 550.089H1030.9C1030.9 587.996 1061.69 618.796 1099.59 618.796V584.574C1080.55 584.574 1065.11 569.131 1065.11 550.089Z" fill="#327CFF"/>
<path d="M1099.59 550.355V584.577C1118.63 584.577 1134.07 600.021 1134.07 619.062H1168.28C1168.28 581.155 1137.49 550.355 1099.59 550.355Z" fill="#327CFF"/>
<path d="M1065.11 481.648H1030.9C1030.9 443.741 1000.1 412.941 962.206 412.941V447.163C981.243 447.163 996.683 462.607 996.683 481.648H1030.9C1030.9 519.555 1061.69 550.354 1099.59 550.354V516.133C1080.55 516.133 1065.11 500.689 1065.11 481.648Z" fill="#327CFF"/>
<path d="M1134.07 550.617H1168.28C1168.28 512.71 1137.49 481.91 1099.59 481.91V516.132C1118.63 516.132 1134.07 531.575 1134.07 550.617Z" fill="#327CFF"/>
<path d="M1202.49 550.617H1168.28C1168.28 588.524 1199.07 619.324 1236.97 619.324V585.102C1217.93 585.102 1202.49 569.658 1202.49 550.617Z" fill="#327CFF"/>
<path d="M1202.49 482.176H1168.28C1168.28 520.083 1199.07 550.882 1236.97 550.882V516.661C1217.93 516.661 1202.49 501.217 1202.49 482.176Z" fill="#327CFF"/>
<path d="M1065.11 687.152H1030.9C1030.9 725.059 1061.69 755.859 1099.59 755.859V721.637C1080.55 721.637 1065.11 706.194 1065.11 687.152Z" fill="#327CFF"/>
<path d="M1065.11 618.711H1030.9C1030.9 656.618 1061.69 687.417 1099.59 687.417V653.196C1080.55 653.196 1065.11 637.752 1065.11 618.711Z" fill="#327CFF"/>
<path d="M1202.49 687.68H1168.28C1168.28 725.587 1199.07 756.386 1236.97 756.386V722.165C1217.93 722.165 1202.49 706.721 1202.49 687.68Z" fill="#327CFF"/>
<path d="M1236.97 687.941V722.163C1256.01 722.163 1271.45 737.607 1271.45 756.648H1305.66C1305.66 718.741 1274.87 687.941 1236.97 687.941Z" fill="#327CFF"/>
<path d="M1202.49 619.234H1168.28C1168.28 657.141 1199.07 687.941 1236.97 687.941V653.719C1217.93 653.719 1202.49 638.276 1202.49 619.234Z" fill="#327CFF"/>
<path d="M1236.97 619.5V653.722C1256.01 653.722 1271.45 669.165 1271.45 688.207H1305.66C1305.66 650.299 1274.87 619.5 1236.97 619.5Z" fill="#327CFF"/>
<path d="M1340.14 2.98438H1305.93C1305.93 40.8914 1336.72 71.6909 1374.62 71.6909V37.4693C1355.58 37.4693 1340.14 22.0256 1340.14 2.98438Z" fill="#327CFF"/>
<path d="M1409.09 71.9526H1443.31C1443.31 34.0456 1412.52 3.24609 1374.62 3.24609V37.4677C1393.65 37.4677 1409.09 52.9113 1409.09 71.9526Z" fill="#327CFF"/>
<path d="M1409.09 140.484H1443.31C1443.31 102.577 1412.52 71.7773 1374.62 71.7773V105.999C1393.65 105.999 1409.09 121.443 1409.09 140.484Z" fill="#327CFF"/>
<path d="M1477.52 140.57H1443.31C1443.31 178.477 1474.1 209.277 1512 209.277V175.055C1492.96 175.055 1477.52 159.612 1477.52 140.57Z" fill="#327CFF"/>
<path d="M1340.14 276.934H1305.93C1305.93 314.841 1336.72 345.64 1374.62 345.64V311.418C1355.58 311.418 1340.14 295.975 1340.14 276.934Z" fill="#327CFF"/>
<path d="M1340.14 208.488H1305.93C1305.93 246.395 1336.72 277.195 1374.62 277.195V242.973C1355.58 242.973 1340.14 227.53 1340.14 208.488Z" fill="#327CFF"/>
<path d="M1409.09 277.457H1443.31C1443.31 239.549 1412.52 208.75 1374.62 208.75V242.972C1393.65 242.972 1409.09 258.415 1409.09 277.457Z" fill="#327CFF"/>
<path d="M1477.52 277.457H1443.31C1443.31 315.364 1474.1 346.164 1512 346.164V311.942C1492.96 311.942 1477.52 296.498 1477.52 277.457Z" fill="#327CFF"/>
<path d="M1340.14 414.082H1305.93C1305.93 451.989 1336.72 482.789 1374.62 482.789V448.567C1355.58 448.567 1340.14 433.123 1340.14 414.082Z" fill="#327CFF"/>
<path d="M1409.09 483.05H1443.31C1443.31 445.143 1412.52 414.344 1374.62 414.344V448.565C1393.65 448.565 1409.09 464.009 1409.09 483.05Z" fill="#327CFF"/>
<path d="M1409.09 414.519H1443.31C1443.31 376.612 1412.52 345.812 1374.62 345.812V380.034C1393.65 380.034 1409.09 395.478 1409.09 414.519Z" fill="#327CFF"/>
<path d="M1340.14 550.969H1305.93C1305.93 588.876 1336.72 619.675 1374.62 619.675V585.454C1355.58 585.454 1340.14 570.01 1340.14 550.969Z" fill="#327CFF"/>
<path d="M1409.09 619.937H1443.31C1443.31 582.03 1412.52 551.23 1374.62 551.23V585.452C1393.65 585.452 1409.09 600.896 1409.09 619.937Z" fill="#327CFF"/>
<path d="M1340.14 482.523H1305.93C1305.93 520.43 1336.72 551.23 1374.62 551.23V517.008C1355.58 517.008 1340.14 501.565 1340.14 482.523Z" fill="#327CFF"/>
<path d="M1477.52 551.496H1443.31C1443.31 589.403 1474.1 620.203 1512 620.203V585.981C1492.96 585.981 1477.52 570.537 1477.52 551.496Z" fill="#327CFF"/>
<path d="M1340.14 688.117H1305.93C1305.93 726.024 1336.72 756.824 1374.62 756.824V722.602C1355.58 722.602 1340.14 707.158 1340.14 688.117Z" fill="#327CFF"/>
<path d="M1374.62 688.293V722.515C1393.65 722.515 1409.09 737.958 1409.09 756.999H1443.31C1443.31 719.092 1412.52 688.293 1374.62 688.293Z" fill="#327CFF"/>
<path d="M1340.14 619.586H1305.93C1305.93 657.493 1336.72 688.292 1374.62 688.292V654.071C1355.58 654.071 1340.14 638.627 1340.14 619.586Z" fill="#327CFF"/>
<path d="M1374.62 619.852V654.073C1393.65 654.073 1409.09 669.517 1409.09 688.558H1443.31C1443.31 650.651 1412.52 619.852 1374.62 619.852Z" fill="#327CFF"/>
<path d="M1477.52 620.113H1443.31C1443.31 658.02 1474.1 688.82 1512 688.82V654.598C1492.96 654.598 1477.52 639.155 1477.52 620.113Z" fill="#327CFF"/>
</g>
<defs>
<clipPath id="clip0_546_437">
<rect width="1512" height="757" fill="white"/>
</clipPath>
</defs>
</svg>
