<svg width="35" height="40" viewBox="0 0 35 40" fill="none" xmlns="http://www.w3.org/2000/svg">
<path d="M0.673828 9.36392H9.91371M33.6738 9.36392H23.7738M9.91371 9.36392H17.1737H23.7738M9.91371 9.36392L16.2416 1.20229C16.705 0.604556 17.6145 0.62527 18.0502 1.24349L23.7738 9.36392M9.91371 9.36392L7.27369 21.9467M9.91371 9.36392L26.7438 21.9467M23.7738 9.36392L7.27369 21.9467M23.7738 9.36392L26.7438 21.9467M4.63368 34.5294L7.27369 21.9467M29.7138 34.5294L26.7438 21.9467" stroke="black" stroke-linecap="round"/>
<path d="M22.9265 30.5924C22.4549 30.5924 22.0338 30.4866 21.6632 30.2751C21.296 30.0603 21.0046 29.7699 20.789 29.404C20.5768 29.0347 20.4707 28.6151 20.4707 28.1451V25.4863C20.4707 25.0164 20.5768 24.5967 20.789 24.2275C21.0046 23.8582 21.296 23.5678 21.6632 23.3563C22.0338 23.1448 22.4549 23.0391 22.9265 23.0391C23.3981 23.0391 23.8192 23.1448 24.1898 23.3563C24.5604 23.5678 24.8518 23.8582 25.064 24.2275C25.2762 24.5967 25.3823 25.0164 25.3823 25.4863V28.1451C25.3823 28.6151 25.2762 29.0347 25.064 29.404C24.8518 29.7699 24.5604 30.0603 24.1898 30.2751C23.8192 30.4866 23.3981 30.5924 22.9265 30.5924ZM22.9265 29.7313C23.2129 29.7313 23.4723 29.6625 23.7047 29.5248C23.9371 29.3872 24.1224 29.2026 24.2605 28.9709C24.3987 28.7359 24.4677 28.4774 24.4677 28.1955V25.4309C24.4677 25.1456 24.3987 24.8871 24.2605 24.6555C24.1224 24.4238 23.9371 24.2392 23.7047 24.1016C23.4723 23.9639 23.2129 23.8951 22.9265 23.8951C22.6435 23.8951 22.3842 23.9639 22.1483 24.1016C21.9159 24.2392 21.7306 24.4238 21.5925 24.6555C21.4544 24.8871 21.3853 25.1456 21.3853 25.4309V28.1955C21.3853 28.4774 21.4544 28.7359 21.5925 28.9709C21.7306 29.2026 21.9159 29.3872 22.1483 29.5248C22.3842 29.6625 22.6435 29.7313 22.9265 29.7313Z" fill="black"/>
<path d="M16.9622 30.5937C16.5882 30.5937 16.2396 30.5164 15.9162 30.362C15.5961 30.2076 15.3216 29.9961 15.0925 29.7275C14.8668 29.4556 14.7051 29.1434 14.6074 28.7909L15.4715 28.5593C15.5321 28.7976 15.6399 29.0041 15.7949 29.1787C15.9499 29.3499 16.1301 29.4842 16.3356 29.5815C16.5445 29.6755 16.7617 29.7225 16.9874 29.7225C17.2839 29.7225 17.55 29.652 17.7858 29.511C18.025 29.3667 18.2137 29.177 18.3518 28.942C18.4899 28.7036 18.559 28.4435 18.559 28.1615C18.559 27.8694 18.4865 27.6059 18.3417 27.3709C18.2002 27.1326 18.0099 26.9446 17.7707 26.8069C17.5315 26.6693 17.2704 26.6005 16.9874 26.6005C16.6674 26.6005 16.3929 26.6676 16.1638 26.8019C15.9381 26.9328 15.7595 27.094 15.6282 27.2853L14.8298 26.9832L15.0521 23.1914H18.9582V24.0424H15.4867L15.8859 23.6698L15.6989 26.7062L15.5018 26.4494C15.704 26.2346 15.9448 26.0684 16.2244 25.9509C16.5074 25.8334 16.7954 25.7746 17.0885 25.7746C17.5399 25.7746 17.9442 25.8804 18.3013 26.0919C18.6583 26.3 18.9413 26.5854 19.1502 26.9479C19.359 27.3071 19.4635 27.7116 19.4635 28.1615C19.4635 28.608 19.3489 29.0159 19.1199 29.3851C18.8908 29.751 18.5859 30.0448 18.2052 30.2663C17.8279 30.4846 17.4136 30.5937 16.9622 30.5937Z" fill="black"/>
<path d="M8.96777 30.4363L8.97283 29.6306L12.2018 26.7352C12.4713 26.4934 12.6515 26.2652 12.7425 26.0503C12.8368 25.8321 12.8839 25.6089 12.8839 25.3806C12.8839 25.102 12.8199 24.8502 12.6919 24.6253C12.5639 24.4003 12.3887 24.2224 12.1664 24.0915C11.9474 23.9606 11.6981 23.8951 11.4185 23.8951C11.1288 23.8951 10.8711 23.9639 10.6454 24.1016C10.4197 24.2358 10.2412 24.4154 10.1098 24.6404C9.98177 24.8653 9.91945 25.1103 9.92281 25.3756H9.00315C9.00315 24.919 9.10926 24.5162 9.32149 24.167C9.53372 23.8145 9.82175 23.5393 10.1856 23.3412C10.5528 23.1398 10.9688 23.0391 11.4337 23.0391C11.8851 23.0391 12.2894 23.1431 12.6464 23.3513C13.0035 23.556 13.2848 23.8364 13.4903 24.1922C13.6992 24.5447 13.8036 24.9442 13.8036 25.3907C13.8036 25.7062 13.7632 25.9798 13.6823 26.2115C13.6049 26.4431 13.4836 26.6579 13.3185 26.856C13.1534 27.0507 12.9463 27.2588 12.697 27.4804L10.0138 29.8824L9.89755 29.5802H13.8036V30.4363H8.96777Z" fill="black"/>
<path d="M17.9148 39.8508L15.8076 32.5996H16.7475L18.3645 38.3351L19.9764 32.6046L20.9214 32.5996L22.5384 38.3351L24.1503 32.5996H25.0953L22.9881 39.8508H22.0887L20.4514 34.1657L18.8142 39.8508H17.9148Z" fill="black"/>
<path d="M12.6041 39.9995C12.1056 39.9995 11.6508 39.9122 11.2398 39.7376C10.8288 39.563 10.4751 39.3129 10.1786 38.9873C9.88218 38.6583 9.6531 38.2622 9.4914 37.7989C9.33307 37.3323 9.25391 36.8069 9.25391 36.2228C9.25391 35.4507 9.39202 34.7826 9.66826 34.2186C9.9445 33.6547 10.3336 33.2199 10.8355 32.9144C11.3375 32.6056 11.927 32.4512 12.6041 32.4512C13.4194 32.4512 14.0763 32.6408 14.5748 33.0202C15.0734 33.3962 15.417 33.9115 15.6057 34.5661L14.6961 34.7524C14.5445 34.3126 14.2952 33.9618 13.9483 33.7C13.6013 33.4381 13.1684 33.3072 12.6496 33.3072C12.1072 33.3039 11.6558 33.4247 11.2954 33.6698C10.9383 33.9115 10.6688 34.2522 10.4869 34.692C10.305 35.1318 10.2123 35.642 10.2089 36.2228C10.2056 36.8002 10.2949 37.3071 10.4768 37.7435C10.6587 38.1799 10.9299 38.5224 11.2903 38.7708C11.6541 39.0158 12.1072 39.1401 12.6496 39.1434C13.1179 39.1468 13.512 39.0578 13.832 38.8765C14.1521 38.6952 14.3997 38.4334 14.5748 38.091C14.75 37.7486 14.8561 37.3373 14.8932 36.8573H13.3469V36.117H15.8432C15.8533 36.1842 15.8583 36.2648 15.8583 36.3588C15.8617 36.4494 15.8634 36.5115 15.8634 36.5451C15.8634 37.2064 15.7388 37.7989 15.4895 38.3226C15.2435 38.843 14.878 39.2525 14.3929 39.5513C13.9112 39.8501 13.3149 39.9995 12.6041 39.9995Z" fill="black"/>
</svg>
