<svg width="37" height="41" viewBox="0 0 37 41" fill="none" xmlns="http://www.w3.org/2000/svg">
<path d="M26.2692 33.9018C28.187 32.92 29.8986 31.5916 31.3216 29.9992C34.0725 26.9209 35.7452 22.8559 35.7452 18.3995C35.7452 8.79004 27.9672 1 18.3726 1C8.77798 1 1 8.79004 1 18.3995C1 25.1611 4.85091 31.0219 10.476 33.9018" stroke="black" stroke-linecap="round"/>
<path d="M9.06905 9.79082C9.26416 9.98623 9.5805 9.98623 9.77561 9.79082C9.97072 9.5954 9.97072 9.27857 9.77561 9.08316L9.06905 9.79082ZM6.26367 6.27344L5.91039 6.62726L9.06905 9.79082L9.42233 9.43699L9.77561 9.08316L6.61695 5.91961L6.26367 6.27344Z" fill="black"/>
<path d="M27.6751 9.79082C27.48 9.98623 27.1636 9.98623 26.9685 9.79082C26.7734 9.5954 26.7734 9.27857 26.9685 9.08316L27.6751 9.79082ZM30.4805 6.27344L30.8337 6.62726L27.6751 9.79082L27.3218 9.43699L26.9685 9.08316L30.1272 5.91961L30.4805 6.27344Z" fill="black"/>
<path d="M5.46701 19.4258C5.74316 19.4258 5.96701 19.2019 5.96701 18.9258C5.96701 18.6496 5.74316 18.4258 5.46701 18.4258L5.46701 19.4258ZM1 18.9258L1 19.4258L5.46701 19.4258L5.46701 18.9258L5.46701 18.4258L1 18.4258L1 18.9258Z" fill="black"/>
<path d="M31.533 19.4258C31.2568 19.4258 31.033 19.2019 31.033 18.9258C31.033 18.6496 31.2568 18.4258 31.533 18.4258L31.533 19.4258ZM36 18.9258L36 19.4258L31.533 19.4258L31.533 18.9258L31.533 18.4258L36 18.4258L36 18.9258Z" fill="black"/>
<path d="M18.3457 5.47394C18.3457 5.75008 18.1218 5.97394 17.8457 5.97394C17.5696 5.97394 17.3457 5.75008 17.3457 5.47394H18.3457ZM17.8457 1H18.3457V5.47394H17.8457H17.3457V1L17.8457 1Z" fill="black"/>
<path d="M18.5082 33.3768L18.1962 33.7675L18.9766 34.3928L19.2886 34.0021L18.5082 33.3768ZM23.5002 28.7295C23.6725 28.5137 23.6375 28.1989 23.422 28.0262C23.2065 27.8535 22.8921 27.8885 22.7198 28.1042L23.5002 28.7295ZM18.8984 33.6895L19.2886 34.0021L23.5002 28.7295L23.11 28.4169L22.7198 28.1042L18.5082 33.3768L18.8984 33.6895Z" fill="black"/>
<path d="M20.2303 24.4253C19.1674 24.4253 18.2624 24.1793 17.5153 23.6872C16.7683 23.1951 16.1992 22.5247 15.8082 21.6761C15.4221 20.8224 15.2316 19.8558 15.2366 18.7762C15.2617 17.6463 15.4697 16.6596 15.8608 15.816C16.2519 14.9673 16.8134 14.307 17.5454 13.835C18.2774 13.363 19.1724 13.127 20.2303 13.127C20.6915 13.127 21.1378 13.1797 21.5689 13.2851C22.0051 13.3906 22.4087 13.5513 22.7798 13.7672L22.1856 14.7012C21.8999 14.5355 21.589 14.4125 21.2531 14.3321C20.9222 14.2467 20.5812 14.2016 20.2303 14.1965C19.383 14.1915 18.6785 14.3848 18.117 14.7765C17.5554 15.1632 17.1318 15.703 16.846 16.396C16.5652 17.0839 16.4248 17.8773 16.4248 18.7762C16.4248 19.6951 16.5652 20.4985 16.846 21.1865C17.1318 21.8694 17.5554 22.4017 18.117 22.7833C18.6785 23.165 19.383 23.3583 20.2303 23.3633C20.9422 23.3784 21.599 23.2101 22.2007 22.8586L22.7873 23.7776C22.4163 23.9935 22.0127 24.1542 21.5765 24.2596C21.1403 24.3701 20.6915 24.4253 20.2303 24.4253ZM14.0859 20.4784V19.5294H20.8921V20.4784H14.0859ZM14.0859 18.0455V17.0965H20.8921V18.0455H14.0859Z" fill="black"/>
<path d="M22.5469 33.7168C23.0151 33.7169 23.4528 33.935 23.7344 34.2998L23.8448 34.4648L26.3242 38.748C26.9032 39.748 26.1819 41 25.0264 41H10.9112C9.7557 41 9.03439 39.748 9.61331 38.748L12.0928 34.4648L12.2032 34.2998C12.4848 33.935 12.9224 33.7169 13.3907 33.7168H22.5469ZM13.3907 34.7168C13.2347 34.7169 13.089 34.7897 12.9951 34.9111L12.958 34.9658L10.4785 39.249C10.2856 39.5823 10.526 40 10.9112 40H25.0264C25.4115 40 25.652 39.5823 25.459 39.249L22.9795 34.9658L22.9424 34.9111C22.8486 34.7897 22.7029 34.7169 22.5469 34.7168H13.3907Z" fill="black"/>
</svg>
