<svg width="41" height="41" viewBox="0 0 41 41" fill="none" xmlns="http://www.w3.org/2000/svg">
<path d="M23.6781 17.0733C24.0098 16.5233 24.5299 16.1086 25.1443 15.9042C25.7587 15.6998 26.427 15.7191 27.0282 15.9587C27.6294 16.1984 28.124 16.6424 28.4225 17.2107C28.7211 17.7789 28.8038 18.4339 28.6559 19.0571C28.508 19.6804 28.1391 20.2308 27.6159 20.609C27.0928 20.9871 26.4498 21.168 25.8034 21.1189L5.09738 21.1189" stroke="black" stroke-linecap="round"/>
<path d="M16.2025 12.3428C16.5342 11.7928 17.0543 11.3781 17.6687 11.1737C18.2832 10.9693 18.9514 10.9887 19.5526 11.2283C20.1539 11.4679 20.6484 11.912 20.947 12.4802C21.2455 13.0485 21.3283 13.7034 21.1803 14.3267C21.0324 14.9499 20.6635 15.5004 20.1403 15.8785C19.6172 16.2566 18.9743 16.4375 18.3278 16.3885L0.883874 16.3885" stroke="black" stroke-linecap="round"/>
<path d="M18.2425 30.7275C18.5743 31.2775 19.0943 31.6922 19.7088 31.8966C20.3232 32.101 20.9914 32.0817 21.5927 31.842C22.1939 31.6024 22.6885 31.1584 22.987 30.5901C23.2855 30.0218 23.3683 29.3669 23.2204 28.7436C23.0724 28.1204 22.7035 27.5699 22.1804 27.1918C21.6572 26.8137 21.0143 26.6328 20.3678 26.6819L1.93634 26.6819" stroke="black" stroke-linecap="round"/>
<path d="M24.1035 0.817383C24.1058 0.817594 24.1081 0.818117 24.1104 0.818359L24.125 0.821289C24.1496 0.824617 24.1737 0.829081 24.1973 0.835938L24.21 0.838867L39.8408 5.81738C40.4606 6.01481 40.888 6.58915 40.8838 7.24707L40.8692 8.50293C40.8211 11.5785 40.6616 15.613 40.3106 19.3887C40.11 21.5458 39.8457 23.6272 39.503 25.4004C39.163 27.1594 38.736 28.6668 38.1875 29.6416C37.6247 30.6416 36.6945 31.7029 35.586 32.7529C34.4723 33.8078 33.1554 34.8745 31.7959 35.8828C29.417 37.6472 26.8877 39.2498 25.0479 40.3252L24.3037 40.7529L24.2744 40.7646C24.2577 40.7727 24.2412 40.781 24.2237 40.7871L24.211 40.793C24.2021 40.7958 24.1926 40.7965 24.1836 40.7988C24.1691 40.8026 24.1545 40.8061 24.1397 40.8086C24.128 40.8105 24.1163 40.8114 24.1045 40.8125C24.0889 40.814 24.0734 40.8154 24.0576 40.8154C24.0419 40.8154 24.0264 40.814 24.0108 40.8125C23.999 40.8114 23.9873 40.8106 23.9756 40.8086C23.9608 40.8061 23.9462 40.8026 23.9317 40.7988C23.923 40.7965 23.9139 40.7957 23.9053 40.793L23.8916 40.7871C23.8741 40.7809 23.8576 40.7727 23.8408 40.7646L23.8125 40.7529L23.0684 40.3252C21.2285 39.2498 18.6992 37.6472 16.3203 35.8828C14.9608 34.8745 13.644 33.8078 12.5303 32.7529C11.5603 31.8341 10.7265 30.9069 10.1563 30.0195L9.92874 29.6416C9.77225 29.3635 9.62731 29.0461 9.49319 28.6982C9.39394 28.4407 9.52198 28.1512 9.77933 28.0518C10.037 27.9524 10.3265 28.0812 10.4258 28.3389C10.5473 28.654 10.6727 28.9254 10.7998 29.1514L11 29.4834C11.5056 30.2691 12.2725 31.1319 13.2178 32.0273C14.293 33.0458 15.5765 34.0856 16.916 35.0791C19.2609 36.8182 21.7585 38.4013 23.5713 39.4609L24.0576 39.7402L24.545 39.4609C26.3577 38.4013 28.8554 36.8182 31.2002 35.0791C32.5397 34.0856 33.8233 33.0458 34.8985 32.0273C35.9788 31.004 36.8258 30.0233 37.3164 29.1514C37.7809 28.3259 38.1846 26.9542 38.5215 25.2109C38.8557 23.4819 39.1156 21.4356 39.3145 19.2959C39.7122 15.0172 39.8637 10.3941 39.8838 7.24023C39.8852 7.02749 39.747 6.83738 39.5371 6.77051L24.0576 1.83984L8.57913 6.77051C8.37089 6.83688 8.23108 7.02879 8.23245 7.24316C8.24173 8.69381 8.2795 10.4564 8.3555 12.3535L8.44436 14.29L8.43948 14.3906C8.40484 14.6205 8.21288 14.8027 7.97171 14.8154C7.73053 14.8281 7.51958 14.6673 7.46097 14.4424L7.44632 14.3418L7.3555 12.3945C7.3045 11.1217 7.27144 9.90865 7.25198 8.80859L7.23245 7.24902C7.22842 6.59289 7.6542 6.01528 8.27542 5.81738L23.9063 0.838867L23.918 0.835938C23.9416 0.829039 23.9657 0.824663 23.9903 0.821289L24.0059 0.818359C24.0078 0.818151 24.0098 0.817568 24.0117 0.817383C24.016 0.81699 24.0202 0.816692 24.0244 0.816406H24.0918C24.0957 0.81667 24.0996 0.817027 24.1035 0.817383ZM8.65628 22.5195C8.89538 22.486 9.11833 22.6277 9.19632 22.8467L9.22073 22.9453L9.36917 23.9307C9.42071 24.2517 9.47452 24.5651 9.5303 24.8691C9.57991 25.1406 9.40036 25.4013 9.12893 25.4512C8.85752 25.5009 8.59697 25.3211 8.5469 25.0498L8.38186 24.0889L8.2305 23.085L8.22659 22.9834C8.24094 22.7514 8.4171 22.5533 8.65628 22.5195ZM8.16604 17.7393C8.40664 17.7195 8.62123 17.8737 8.68655 18.0967L8.70511 18.1963L8.81741 19.4688V19.5703C8.79235 19.8014 8.60765 19.9909 8.36722 20.0137C8.12691 20.0364 7.90994 19.8852 7.84183 19.6631L7.82229 19.5635L7.70901 18.2783L7.71097 18.1777C7.73865 17.9468 7.9252 17.7591 8.16604 17.7393Z" fill="black"/>
</svg>
