<svg width="48" height="41" viewBox="0 0 48 41" fill="none" xmlns="http://www.w3.org/2000/svg">
<path d="M28.4013 33.6928C31.7121 32.4149 34.5363 30.1147 36.469 27.1218C38.3113 24.2689 39.2536 20.9261 39.1788 17.5318C39.1727 17.2555 38.9366 17.0434 38.6607 17.0578L23.0762 17.8707C22.7373 17.8884 22.4797 17.5707 22.5669 17.2428L26.6084 2.05763C26.6792 1.79141 26.5215 1.51725 26.2535 1.45347C22.9721 0.672454 19.5287 0.903368 16.3735 2.12248C13.0631 3.40156 10.2398 5.7028 8.30816 8.69646C6.37653 11.6901 5.4357 15.2225 5.62048 18.7876C5.71382 20.5883 6.09193 22.3507 6.73078 24.0116" stroke="black" stroke-linecap="round"/>
<path d="M28.4013 33.6928C31.7121 32.4149 34.5363 30.1147 36.469 27.1218C38.3113 24.2689 39.2536 20.9261 39.1788 17.5318C39.1727 17.2555 38.9366 17.0434 38.6607 17.0578L23.0762 17.8707C22.7373 17.8884 22.4797 17.5707 22.5669 17.2428L26.6084 2.05763C26.6792 1.79141 26.5215 1.51725 26.2535 1.45347C22.9721 0.672454 19.5287 0.903368 16.3735 2.12248C13.0631 3.40156 10.2398 5.7028 8.30816 8.69646C6.37653 11.6901 5.4357 15.2225 5.62048 18.7876C5.71382 20.5883 6.09193 22.3507 6.73078 24.0116" stroke="black" stroke-linecap="round"/>
<path d="M41.5535 13.2101L40.9937 12.6466L47.1604 6.44753L47.7201 7.01108L41.5535 13.2101ZM46.3207 13.351C46.0129 13.351 45.7314 13.2759 45.4764 13.1256C45.2246 12.9722 45.0224 12.7687 44.87 12.5151C44.7177 12.2584 44.6415 11.9735 44.6415 11.6604C44.6415 11.3535 44.7192 11.0718 44.8747 10.815C45.0302 10.5583 45.2354 10.3532 45.4904 10.1998C45.7454 10.0464 46.0222 9.96972 46.3207 9.96972C46.6286 9.96972 46.91 10.0464 47.165 10.1998C47.42 10.3501 47.6222 10.5536 47.7714 10.8103C47.9238 11.0639 48 11.3473 48 11.6604C48 11.9735 47.9238 12.2584 47.7714 12.5151C47.6222 12.7687 47.42 12.9722 47.165 13.1256C46.91 13.2759 46.6286 13.351 46.3207 13.351ZM46.3207 12.6137C46.4918 12.6137 46.6488 12.5699 46.7919 12.4822C46.938 12.3945 47.0531 12.2787 47.137 12.1347C47.2241 11.9907 47.2677 11.8326 47.2677 11.6604C47.2677 11.4882 47.2241 11.3301 47.137 11.186C47.0531 11.0389 46.938 10.9231 46.7919 10.8385C46.6488 10.7509 46.4918 10.707 46.3207 10.707C46.1497 10.707 45.9927 10.7509 45.8496 10.8385C45.7066 10.9231 45.5915 11.0389 45.5044 11.186C45.4174 11.3301 45.3738 11.4882 45.3738 11.6604C45.3738 11.8326 45.4174 11.9907 45.5044 12.1347C45.5915 12.2787 45.7066 12.3945 45.8496 12.4822C45.9927 12.5699 46.1497 12.6137 46.3207 12.6137ZM42.3931 9.68794C42.0853 9.68794 41.8038 9.6128 41.5488 9.46252C41.2938 9.30911 41.0901 9.10561 40.9378 8.85201C40.7885 8.59528 40.7139 8.31037 40.7139 7.99729C40.7139 7.69047 40.7916 7.40869 40.9471 7.15197C41.1026 6.89524 41.3078 6.69017 41.5628 6.53676C41.8178 6.38335 42.0946 6.30664 42.3931 6.30664C42.701 6.30664 42.9809 6.38335 43.2328 6.53676C43.4878 6.68704 43.6914 6.89054 43.8438 7.14727C43.9962 7.40087 44.0724 7.68421 44.0724 7.99729C44.0724 8.31037 43.9962 8.59528 43.8438 8.85201C43.6914 9.10561 43.4878 9.30911 43.2328 9.46252C42.9809 9.6128 42.701 9.68794 42.3931 9.68794ZM42.3931 8.95063C42.5642 8.95063 42.7212 8.9068 42.8643 8.81913C43.0104 8.73147 43.1255 8.61563 43.2094 8.47161C43.2965 8.32759 43.34 8.16949 43.34 7.99729C43.34 7.82509 43.2965 7.66699 43.2094 7.52297C43.1255 7.37582 43.0104 7.25998 42.8643 7.17545C42.7212 7.08778 42.5642 7.04395 42.3931 7.04395C42.2221 7.04395 42.0651 7.08778 41.922 7.17545C41.779 7.25998 41.6639 7.37582 41.5768 7.52297C41.4897 7.66699 41.4462 7.82509 41.4462 7.99729C41.4462 8.16949 41.4897 8.32759 41.5768 8.47161C41.6639 8.61563 41.779 8.73147 41.922 8.81913C42.0651 8.9068 42.2221 8.95063 42.3931 8.95063Z" fill="black"/>
<path d="M37.2343 13.351C36.7989 13.351 36.4102 13.2524 36.0681 13.0552C35.7292 12.8548 35.4602 12.584 35.2612 12.2427C35.0652 11.8983 34.9673 11.507 34.9673 11.0686V8.58902C34.9673 8.1507 35.0652 7.75935 35.2612 7.41496C35.4602 7.07056 35.7292 6.79975 36.0681 6.6025C36.4102 6.40526 36.7989 6.30664 37.2343 6.30664C37.6697 6.30664 38.0584 6.40526 38.4004 6.6025C38.7425 6.79975 39.0115 7.07056 39.2074 7.41496C39.4033 7.75935 39.5013 8.1507 39.5013 8.58902V11.0686C39.5013 11.507 39.4033 11.8983 39.2074 12.2427C39.0115 12.584 38.7425 12.8548 38.4004 13.0552C38.0584 13.2524 37.6697 13.351 37.2343 13.351ZM37.2343 12.548C37.4986 12.548 37.7381 12.4838 37.9526 12.3554C38.1672 12.227 38.3382 12.0549 38.4657 11.8388C38.5932 11.6197 38.657 11.3786 38.657 11.1156V8.53736C38.657 8.27124 38.5932 8.03016 38.4657 7.81414C38.3382 7.59811 38.1672 7.42591 37.9526 7.29755C37.7381 7.16919 37.4986 7.105 37.2343 7.105C36.9731 7.105 36.7336 7.16919 36.5159 7.29755C36.3014 7.42591 36.1303 7.59811 36.0028 7.81414C35.8753 8.03016 35.8116 8.27124 35.8116 8.53736V11.1156C35.8116 11.3786 35.8753 11.6197 36.0028 11.8388C36.1303 12.0549 36.3014 12.227 36.5159 12.3554C36.7336 12.4838 36.9731 12.548 37.2343 12.548Z" fill="black"/>
<path d="M29.3872 13.2054L29.3919 12.454L32.3726 9.75369C32.6213 9.52827 32.7877 9.31537 32.8717 9.115C32.9587 8.91149 33.0023 8.70329 33.0023 8.4904C33.0023 8.23054 32.9432 7.99573 32.825 7.78596C32.7069 7.57619 32.5452 7.41026 32.3399 7.28816C32.1378 7.16605 31.9077 7.105 31.6495 7.105C31.3821 7.105 31.1442 7.16919 30.9359 7.29755C30.7275 7.42278 30.5627 7.59028 30.4414 7.80005C30.3232 8.00981 30.2657 8.23836 30.2688 8.4857H29.4199C29.4199 8.05991 29.5178 7.68421 29.7137 7.3586C29.9096 7.02986 30.1755 6.77313 30.5114 6.58842C30.8503 6.40057 31.2344 6.30664 31.6635 6.30664C32.0802 6.30664 32.4534 6.4037 32.783 6.59781C33.1127 6.78879 33.3723 7.05021 33.562 7.38208C33.7548 7.71082 33.8512 8.08339 33.8512 8.49979C33.8512 8.79409 33.8139 9.04925 33.7393 9.26528C33.6678 9.48131 33.5558 9.68168 33.4034 9.8664C33.2511 10.048 33.0598 10.2421 32.8297 10.4487L30.3528 12.6888L30.2455 12.4071H33.8512V13.2054H29.3872Z" fill="black"/>
<path d="M14.4609 29.6777C15.2119 29.6779 15.8262 30.2922 15.8262 31.0566C15.826 31.8208 15.2118 32.4344 14.4609 32.4346C13.7099 32.4346 13.0949 31.821 13.0947 31.0566C13.0947 30.2921 13.7098 29.6777 14.4609 29.6777Z" stroke="black"/>
<path d="M11.8111 26.2654L13.5695 19.6583C13.8331 18.6679 15.2386 18.6679 15.5022 19.6583L17.2607 26.2654C17.3533 26.6135 17.2516 26.9846 16.9943 27.2368L15.2359 28.9603C14.847 29.3415 14.2247 29.3415 13.8359 28.9603L12.0774 27.2368C11.8202 26.9846 11.7184 26.6135 11.8111 26.2654Z" stroke="black" stroke-linecap="round"/>
<path d="M8.87627 31.0034L4.06236 35.85C3.34094 36.5763 4.0377 37.7913 5.02318 37.5255L11.5991 35.7515C11.949 35.6571 12.2211 35.3797 12.3101 35.0267L12.9147 32.6269C13.0471 32.1012 12.7403 31.5661 12.2218 31.4187L9.85521 30.746C9.5071 30.647 9.13243 30.7455 8.87627 31.0034Z" stroke="black" stroke-linecap="round"/>
<path d="M19.989 31.0034L24.8029 35.85C25.5243 36.5763 24.8275 37.7913 23.8421 37.5255L17.2661 35.7515C16.9162 35.6571 16.6441 35.3797 16.5552 35.0267L15.9506 32.6269C15.8181 32.1012 16.125 31.5661 16.6434 31.4187L19.01 30.746C19.3581 30.647 19.7328 30.7455 19.989 31.0034Z" stroke="black" stroke-linecap="round"/>
</svg>
