<svg width="43" height="42" viewBox="0 0 43 42" fill="none" xmlns="http://www.w3.org/2000/svg">
<path d="M42.5005 26.252V30.0762C42.5004 32.7611 40.3232 34.9375 37.6382 34.9375C34.9534 34.9373 32.7769 32.761 32.7769 30.0762V26.252H42.5005Z" stroke="black"/>
<path d="M37.6382 35.0801V40.9991" stroke="black" stroke-linecap="round"/>
<path d="M35.4937 25.8428V22.0762M39.783 25.8428V22.0762" stroke="black" stroke-linecap="round"/>
<path d="M36.8087 18.9356C36.8087 14.934 35.4682 11.0477 33.0011 7.89709C30.534 4.74648 27.0825 2.51316 23.1976 1.55362C19.3127 0.594075 15.2184 0.963624 11.5681 2.60328C7.91784 4.24293 4.92206 7.05817 3.05897 10.5996C1.19587 14.1411 0.572862 18.2046 1.28939 22.1415C2.00591 26.0785 4.02066 29.6619 7.01204 32.3199C10.0034 34.9778 13.799 36.557 17.7929 36.8054C21.7868 37.0538 25.7488 35.9571 29.0465 33.6904" stroke="black" stroke-linecap="round"/>
<path d="M17.9392 1L15.6789 3.72222C15.5298 3.90174 15.4482 4.12772 15.4482 4.36105V6.27934C15.4482 6.91066 16.026 7.38402 16.645 7.25978L17.397 7.10884C17.7111 7.04579 18.0254 7.21616 18.144 7.51377L18.4738 8.34119C18.6146 8.69446 18.2149 9.01779 17.8989 8.80631V8.80631C17.676 8.6572 17.3727 8.77432 17.3079 9.03451L16.9725 10.381C16.9528 10.46 16.9428 10.5412 16.9428 10.6227V11.0868C16.9428 11.3514 16.838 11.6052 16.6512 11.7927L15.037 13.4127C14.9792 13.4707 14.9145 13.5213 14.8444 13.5636L12.5532 14.9432C12.4906 14.981 12.424 15.0117 12.3546 15.0349L12.2762 15.0611C11.63 15.2773 11.3845 16.0623 11.7924 16.6081L12.175 17.12C12.3547 17.3605 12.4169 17.669 12.3443 17.9603L12.1842 18.6029C12.0581 19.1093 11.5637 19.4336 11.0489 19.3475L9.28886 19.0531C9.08977 19.0198 8.88687 19.0849 8.74438 19.2279V19.2279C8.57816 19.3948 8.52013 19.641 8.59436 19.8645L8.86681 20.6848C8.93478 20.8894 8.93478 21.1106 8.86681 21.3152L8.63565 22.0112C8.53377 22.3179 8.58642 22.655 8.77698 22.916L9.07379 23.3226C9.19598 23.49 9.3781 23.6037 9.58214 23.6401L9.68088 23.6576C10.2818 23.7646 10.5116 24.5052 10.0769 24.9336V24.9336L8.09444 26.8827C8.01542 26.9603 7.94986 27.0506 7.90045 27.1498L7.57475 27.8036C7.51027 27.933 7.41849 28.0469 7.30574 28.1374L4.98584 30" stroke="black"/>
<path d="M23.9176 1.5L21.5276 4.29835C21.1892 4.69465 21.2118 5.28445 21.5797 5.65363L21.6332 5.70733C21.8199 5.89476 21.9248 6.14857 21.9248 6.41316V6.58684C21.9248 6.85143 21.8199 7.10524 21.6332 7.29267L21.0947 7.83304C20.9853 7.94284 20.9029 8.07657 20.8541 8.22367L20.5382 9.17469C20.4682 9.38554 20.3299 9.56707 20.1453 9.69061L19.7125 9.98016C19.31 10.2494 19.2536 10.8192 19.5954 11.1622V11.1622C19.8016 11.3691 20.1072 11.4414 20.3842 11.3487L21.1168 11.1036C21.3151 11.0373 21.5317 11.0527 21.7186 11.1465V11.1465C22.1073 11.3416 22.5805 11.1838 22.7745 10.7946L22.8265 10.69C22.8888 10.5651 22.9212 10.4273 22.9212 10.2877V9.25663C22.9212 9.09228 22.9863 8.93463 23.1023 8.81821L23.1766 8.74367C23.3215 8.59825 23.5434 8.5622 23.7269 8.65428V8.65428C24.0432 8.81299 24.4158 8.58304 24.4158 8.22916V7.64988C24.4158 7.26787 24.6757 6.93481 25.0462 6.84185L25.9836 6.60665C26.2335 6.54396 26.4087 6.31937 26.4087 6.06177V6.06177C26.4087 5.75151 26.1572 5.5 25.8469 5.5H24.6392C24.2084 5.5 23.826 5.22407 23.6902 4.81521L23.5495 4.3917C23.4662 4.14083 23.4856 3.86717 23.6035 3.63057L24.4158 2" stroke="black"/>
<path d="M29.963 25.7317L30.0125 25.5331C30.1899 24.8208 29.5651 24.1665 28.8454 24.3109L28.1246 24.4556C27.979 24.4848 27.8286 24.4812 27.6845 24.4451L26.5463 24.1595C26.1602 24.0626 25.8684 23.7461 25.8032 23.3534L25.5053 21.5596C25.4516 21.2367 25.1724 21 24.8451 21C24.3886 21 24.0661 21.4469 24.21 21.8801L24.3058 22.1686C24.3733 22.3718 24.3206 22.5957 24.1694 22.7474C23.8494 23.0686 23.3005 22.9027 23.2119 22.458L22.9886 21.3379C22.945 21.119 22.8293 20.9209 22.6601 20.7753L20.5209 18.9351C20.2158 18.6727 19.759 18.9789 19.8858 19.3609C19.9157 19.4507 19.9766 19.5268 20.0576 19.5756L21.5691 20.4858C22.0412 20.77 22.1943 21.3826 21.9116 21.8556L21.1348 23.1549C21.0184 23.3495 20.7717 23.4214 20.5691 23.3197L19.9414 23.0047C19.6902 22.8787 19.7799 22.5 20.0609 22.5C20.2427 22.5 20.3711 22.322 20.3138 22.1495L20.0168 21.2552C19.9614 21.0884 19.8606 20.9403 19.7258 20.8275L17.3336 18.8268C17.0881 18.6215 16.7591 18.5461 16.4487 18.624L15.7066 18.8102C15.2618 18.9218 14.95 19.3215 14.95 19.7801C14.95 20.2101 14.675 20.592 14.2672 20.7284L13.7012 20.9178C13.5399 20.9717 13.3951 21.0658 13.2804 21.1913L11.0264 23.6562C10.8379 23.8622 11.0379 24.1861 11.3065 24.1099L13.338 23.5333C13.4159 23.5112 13.4964 23.5 13.5773 23.5H17.2796C17.8679 23.5 18.2998 24.0526 18.1576 24.6235C18.0369 25.1078 18.3312 25.5984 18.8153 25.7198L19.932 26L22.3425 26.8064C22.6744 26.9174 23.0374 26.767 23.1934 26.4537C23.3284 26.1829 23.6217 26.029 23.9213 26.0719L26.907 26.5L28.3489 26.8618C28.6905 26.9475 29.0521 26.8472 29.3007 26.5977L29.7011 26.1958C29.8288 26.0677 29.9193 25.9073 29.963 25.7317Z" stroke="black"/>
<path d="M31.6456 18.841L32.3763 19.8187C32.6417 20.1739 32.5215 20.6826 32.1252 20.8814C31.9728 20.9579 31.798 20.9772 31.6326 20.9357L30.115 20.5549C29.9709 20.5188 29.8206 20.5152 29.6749 20.5444L27.9314 20.8944C27.6027 20.9603 27.2628 20.8572 27.0262 20.6198L26.8726 20.4656C26.591 20.183 26.5043 19.7601 26.652 19.3895L27.1541 18.1298C27.3057 17.7495 27.6737 17.5 28.083 17.5H28.7369C28.8447 17.5 28.9519 17.4826 29.0542 17.4483L30.3381 17.0188C31.0098 16.7941 31.6649 17.3996 31.4937 18.0869C31.4286 18.3483 31.4843 18.6252 31.6456 18.841Z" stroke="black"/>
<path d="M10.2633 11.518L10.0809 12.4333C10.011 12.7838 9.75884 13.0699 9.41998 13.1833C8.89748 13.3581 8.33232 13.0755 8.15865 12.5526L8.12873 12.4625C8.03176 12.1706 8.07456 11.8503 8.24478 11.594L8.71885 10.8804C8.87666 10.6428 9.14294 10.5 9.42815 10.5C9.96528 10.5 10.3682 10.9912 10.2633 11.518Z" stroke="black"/>
<path d="M12.534 10.286L12.2683 8.85051C12.2092 8.53095 11.9514 8.28552 11.6294 8.24203C11.3935 8.21018 11.1565 8.29186 10.9903 8.46225L10.8194 8.63747C10.5971 8.86537 10.4966 9.18548 10.5488 9.49952L10.9341 11.8198C10.9539 11.9389 10.9519 12.0607 10.9283 12.1791L10.759 13.0289C10.6195 13.7287 11.2369 14.3452 11.9365 14.2048L12.4769 14.0963C12.7797 14.0355 13.0374 13.8382 13.1752 13.5618L13.6389 12.631C13.8274 12.2526 13.7576 11.7966 13.4646 11.4919L12.7965 10.7972C12.6609 10.6561 12.5696 10.4784 12.534 10.286Z" stroke="black"/>
</svg>
